<?xml version="1.0" encoding="utf-8"?>
<!-- Generator: Adobe Illustrator 24.0.0, SVG Export Plug-In . SVG Version: 6.00 Build 0)  -->
<svg version="1.1" id="Calque_1" xmlns="http://www.w3.org/2000/svg" xmlns:xlink="http://www.w3.org/1999/xlink" x="0px"
	y="0px" viewBox="0 0 549.28 549.87" style="enable-background:new 0 0 549.28 549.87;" xml:space="preserve">
	<style type="text/css">
		.st0 {
			fill: currentColor;
		}
	</style>
	<g>
		<path class="st0" d="M274.78,480.27c80.09,0,160.17,0.01,240.26,0c18.14,0,32.15,14.77,33.81,30.75
		c1.96,18.91-10.4,34.24-26.29,37.74c-2.78,0.61-5.57,1.11-8.44,1.11c-159.68-0.01-319.35,0.03-479.03-0.06
		c-17.04-0.01-30.59-10.37-34.28-27.38c-4.21-19.36,8.26-38.7,27.83-41.52c2.6-0.38,5.16-0.62,7.75-0.62
		C115.85,480.27,195.31,480.27,274.78,480.27z" />
		<path class="st0" d="M543.19,153.86c-8.97-20.52-24.21-35.98-43.42-47.01c-25.58-14.69-51.66-28.5-77.55-42.66
		C393.62,48.54,365,32.93,336.4,17.3c-17.47-9.55-35.91-15.59-56-16.3c-18.95-0.66-37.19,2.18-54.57,9.92
		c-12.64,5.62-24.47,12.78-36.6,19.36c-36.32,19.71-72.6,39.51-108.81,59.43c-13.83,7.61-28.34,14.14-40.95,23.8
		C22,126.9,7.85,142.9,2.31,164.86c-3.69,14.64-2.83,29.31,3.22,43.15c11.34,25.95,31.43,40.75,59.57,44.12
		c3.67,0.44,3.74,1.81,3.74,4.57c-0.06,32.99-0.01,65.98-0.08,98.97c-0.01,3.43,1.62,8.01-0.78,10c-2.04,1.69-6.44,0.7-9.79,0.59
		c-15.62-0.5-29.23,10.48-33.67,24.14c-7.04,21.61,9.5,44.87,32.29,44.88c72.48,0,144.96,0,217.44,0c72.61,0,145.21,0,217.82,0
		c1.5,0,3.01,0.07,4.49-0.12c14.92-1.97,27.24-14,29.38-29.65c1.92-13.99-4.82-28.47-18.78-35.62c-7.34-3.76-15.11-3.86-22.97-3.53
		c-2.88,0.12-3.82-0.62-3.81-3.68c0.11-35.62,0.09-71.23,0.03-106.85c0-2.35,0.23-3.72,3.14-3.59c2.45,0.1,4.97-0.34,7.38-0.87
		c21.57-4.75,38.37-16.3,49.12-35.73C551.12,195.67,552.31,174.73,543.19,153.86z M182.84,362.94c0.01,2.47-0.42,3.46-3.2,3.43
		c-12.86-0.15-25.72-0.15-38.58,0c-2.8,0.03-3.22-1.01-3.21-3.47c0.09-17.73,0.05-35.46,0.05-53.19c0-17.61,0.07-35.21-0.07-52.82
		c-0.02-2.97,0.55-4.1,3.83-4.05c12.61,0.2,25.22,0.15,37.83,0.02c2.59-0.03,3.36,0.65,3.36,3.31
		C182.76,291.77,182.76,327.35,182.84,362.94z M296.85,309.69c0,17.62-0.05,35.23,0.05,52.85c0.02,2.73-0.41,3.9-3.58,3.85
		c-12.49-0.2-24.99-0.14-37.48-0.04c-2.41,0.02-3.5-0.32-3.49-3.16c0.1-35.73,0.09-71.47,0.01-107.2c-0.01-2.52,0.82-3.12,3.2-3.1
		c12.62,0.1,25.24,0.14,37.86-0.02c2.9-0.04,3.5,0.89,3.48,3.61C296.79,274.2,296.85,291.95,296.85,309.69z M411.42,362.97
		c0.01,2.55-0.58,3.42-3.28,3.39c-12.73-0.14-25.47-0.15-38.21,0.01c-2.79,0.03-3.55-0.67-3.53-3.5
		c0.14-17.85,0.07-35.71,0.07-53.57c0-17.48,0.07-34.96-0.07-52.44c-0.02-2.98,0.55-4.07,3.81-4.02c12.61,0.2,25.22,0.15,37.83,0.03
		c2.59-0.03,3.38,0.7,3.37,3.34C411.34,291.8,411.34,327.38,411.42,362.97z M476.97,183.31c-0.97,0.16-2,0.04-2.99,0.04
		c-66.48,0-132.97,0-199.45,0c-66.23,0-132.47,0-198.7,0c-1,0-2-0.05-3,0.01c-1.21,0.07-2.37-0.21-2.99-1.2
		c-0.8-1.28,0.58-1.98,1.15-2.87c5.38-8.24,13.52-13.02,21.89-17.55c27.04-14.65,54.05-29.35,81.06-44.05
		c25.48-13.87,50.83-27.98,76.46-41.56c16.61-8.8,33.52-8.21,50.03,0.75c38.41,20.83,76.78,41.72,115.16,62.61
		c15.85,8.62,31.72,17.21,47.49,25.98c6.28,3.49,11.39,8.39,15.61,14.27C480.6,182.39,479.15,182.96,476.97,183.31z" />
	</g>
</svg>