<?xml version="1.0" encoding="utf-8"?>
<!-- Generator: Adobe Illustrator 24.0.0, SVG Export Plug-In . SVG Version: 6.00 Build 0)  -->
<svg version="1.1" id="Calque_1" xmlns="http://www.w3.org/2000/svg" xmlns:xlink="http://www.w3.org/1999/xlink" x="0px" y="0px"
	 viewBox="0 0 512 512" style="enable-background:new 0 0 512 512;" xml:space="preserve">
<style type="text/css">
	.st0{fill:#FFFFFF00;}
</style>
<g>
	<g>
		<path class="st0" d="M512,290c0,17,0,34,0,51c-28.27,0-56.53,0-85.48,0c0,9.61,0,18.3,0,27.8c-6.86-4.09-12.91-7.54-18.8-11.26
			c-8.41-5.31-17.44-7.96-27.44-7.67c-9.32,0.26-18.69-0.36-27.99,0.18c-8.26,0.48-16.66,1.2-24.64,3.24
			c-29.01,7.4-57.8,15.67-86.81,23.06c-14.17,3.61-26.52,8.98-32.09,23.94c-1.37-0.69-2.26-1.12-3.13-1.59
			c-27.82-15.03-55.61-30.12-83.47-45.09c-13.46-7.23-28.28-5.74-39.19,3.64c-17.91,15.39-15.35,43.16,5.35,55.61
			c38.51,23.17,76.99,46.41,115.78,69.12C222.07,492.51,238.7,505.66,259,512c-86.33,0-172.67,0-259,0c0-108,0-216,0-324
			c28.25,0,56.51,0,85.36,0c0-9.06,0-17.3,0-25.44c11.26-1.43,13.11-1.04,21.67,4.24c1.84,1.13,3.71,2.22,5.61,3.25
			c12.62,6.82,26.2,10.31,41.06,11.25c0,36.29,0,72.33,0,108.79c2.59,0,4.56,0,6.53,0c69.12,0,138.24,0.01,207.36,0
			C415.73,290.06,463.87,290.03,512,290z"/>
		<path d="M512,290c-48.13,0.03-96.27,0.06-144.4,0.07c-69.12,0.01-138.24,0-207.36,0c-1.97,0-3.94,0-6.53,0
			c0-36.46,0-72.49,0-108.79c-14.86-0.94-28.44-4.43-41.06-11.25c-1.9-1.03-3.77-2.11-5.61-3.25c-8.57-5.28-10.42-5.67-21.67-4.24
			c0,8.14,0,16.38,0,25.44c-28.85,0-57.11,0-85.36,0C0,125.33,0,62.67,0,0c28.33,0,56.67,0,85,0c0,5.26,0,10.52,0,15.92
			c8.18,1.58,15.34,1.01,22.39-2.27C117.52,8.94,127.79,4.53,138,0c41,0,82,0,123,0c0.58,0.27,1.14,0.71,1.75,0.79
			c17.61,2.51,32.37,10.46,44.82,23.07c13.56,13.74,27.35,27.25,40.88,41.02c2.44,2.48,4.88,3.37,8.29,3.36
			c32.95-0.11,65.9-0.05,98.85-0.08c18.8-0.02,37.6-0.11,56.4-0.17C512,142,512,216,512,290z M85.64,34.3c0,36.73,0,73.59,0,110.73
			c3.38,0,6.4,0.27,9.35-0.06c6.81-0.76,12.29,1.61,18.09,5.16c7.58,4.63,15.93,8.18,24.28,11.3c4.93,1.85,10.5,1.99,16.3,2.98
			c0-13.78,0.11-26.42-0.16-39.05c-0.03-1.36-2.04-3-3.5-3.94c-6.2-3.98-12.54-7.74-19.25-11.84c4.31-5.29,7.73-9.48,11.11-13.63
			c23.83,19.37,46.56,18.05,68.66-2.04c16.47,16.48,32.7,32.76,48.98,48.98c7.83,7.8,18.24,8.26,25.32,1.26
			c7.16-7.08,6.8-17.38-1.01-25.3c-8.19-8.3-16.46-16.53-24.71-24.76c-11.43-11.4-22.88-22.77-33.98-33.82
			c4.07-4.31,7.79-8.27,12.11-12.85C243,53.39,248.49,59.42,254.41,65c1.81,1.71,4.8,3.02,7.26,3.05
			c20.16,0.24,40.31,0.14,60.47,0.13c1.42,0,2.84-0.15,5.07-0.28c-1.51-1.62-2.46-2.7-3.47-3.71c-9.18-9.2-18.49-18.26-27.53-27.6
			c-13.02-13.44-28.75-19.73-47.44-19.61c-33.65,0.21-67.31-0.13-100.95,0.24c-5.77,0.06-12.01,1.48-17.17,4.04
			c-14.08,6.97-27.81,14.51-44.33,12.72C86.18,33.95,86.03,34.11,85.64,34.3z M276.09,85.49c-0.34,0.43-0.67,0.87-1.01,1.3
			c4.02,3.72,8.24,7.24,11.98,11.21c2.94,3.13,6.01,4.44,10.41,4.42c43.82-0.17,87.65-0.1,131.47-0.1c1.94,0,3.88,0,6.36,0
			c-0.96,12.73,1.06,23.93,10.09,32.87c8.98,8.89,20.23,10.7,32.18,9.72c0,23.19,0,45.58,0,68.37
			c-12.35-0.69-23.61,1.17-32.55,10.22c-8.88,8.98-10.56,20.28-9.88,32.15c-68.59,0-136.47,0-204.65,0
			c1.04-29.51-13.66-43.32-42.25-42.69c0-22.92,0-45.3,0-68.07c14.17,1.12,26.35-1.9,34.63-12.9c-4.96-5.35-9.45-10.2-14.09-15.21
			c-11.5,7.36-24.14,10.18-37.67,9.86c0,48.91,0,97.45,0,146.05c108.06,0,215.77,0,323.54,0c0-62.54,0-124.76,0-187.22
			C421.57,85.49,348.83,85.49,276.09,85.49z M304.14,147.25c24.27-18.46,48.83-9.82,60.67,3.02c13.99,15.16,15.37,38.57,3.03,55.18
			c-12.29,16.55-34.7,22.12-53.22,13.18c-9.34-4.51-16.3-11.45-20.61-20.91c-5.97-13.1-5.08-26.11,1.5-39.49
			c-21.09,13.91-39.34,7.8-51.79-7.01c-2.34-2.78-4.58-5.64-7.09-8.76c-9.21,10.81-19.5,16.5-31.52,19.04c0,12.02,0,23.63,0,35.15
			c0.53,0.24,0.82,0.41,1.14,0.5c0.96,0.28,1.93,0.52,2.89,0.8c18.81,5.4,31.07,17.53,36.45,36.26c1.1,3.84,2.48,4.84,6.31,4.83
			c53.99-0.13,107.97-0.09,161.96-0.09c1.63,0,3.25,0,4.79,0c5.39-23.14,19.57-36.95,41.94-42.21c0-11.97,0-23.58,0-35.19
			c-22.91-5.32-36.67-19.55-41.92-41.63c-38.16,0-75.84,0-113.62,0C307.68,130.93,307.68,130.93,304.14,147.25z M67.77,170.47
			c0-51.24,0-102.2,0-153.03c-17.12,0-33.83,0-50.34,0c0,51.26,0,102.1,0,153.03C34.42,170.47,51,170.47,67.77,170.47z
			 M358.28,178.95c-0.11-14.14-11.34-25.26-25.5-25.24c-14.28,0.02-25.81,11.6-25.62,25.75c0.18,13.91,11.77,25.39,25.64,25.39
			C346.98,204.85,358.39,193.25,358.28,178.95z"/>
		<path d="M259,512c-20.3-6.34-36.93-19.49-54.92-30.02c-38.79-22.71-77.27-45.95-115.78-69.12c-20.7-12.45-23.26-40.22-5.35-55.61
			c10.92-9.38,25.74-10.86,39.19-3.64c27.86,14.96,55.65,30.05,83.47,45.09c0.87,0.47,1.76,0.9,3.13,1.59
			c5.57-14.96,17.92-20.33,32.09-23.94c29.01-7.39,57.8-15.66,86.81-23.06c7.98-2.04,16.38-2.76,24.64-3.24
			c9.3-0.54,18.66,0.08,27.99-0.18c10.01-0.28,19.03,2.36,27.44,7.67c5.89,3.72,11.95,7.17,18.8,11.26c0-9.5,0-18.19,0-27.8
			c28.95,0,57.21,0,85.48,0c0,57,0,114,0,171c-28.33,0-56.67,0-85,0c-0.18-4.02-0.36-8.03-0.55-12.34
			c-11.9,4.26-23.18,8.3-34.45,12.34C347.67,512,303.33,512,259,512z M343.54,419.92c-32.39,8.49-63.92,17.42-95.8,24.85
			c-18.72,4.36-33.23-5.22-39.76-23.33c-0.5-1.39-1.68-2.89-2.95-3.58c-30.56-16.62-61.12-33.22-91.84-49.51
			c-3.14-1.66-7.44-2.16-11.03-1.73c-7.37,0.9-12.57,6.61-13.88,13.83c-1.26,6.99,1.99,13.68,9.09,17.93
			c51.4,30.8,102.77,61.66,154.36,92.16c4.62,2.73,10.67,4.19,16.07,4.24c38.82,0.35,77.65,0.24,116.47,0.11
			c3.75-0.01,7.68-0.67,11.21-1.93c9.39-3.36,18.57-7.3,27.92-10.8c2.64-0.99,3.43-2.39,3.42-5.14c-0.1-28.16,0-56.32-0.19-84.48
			c-0.01-1.85-1.49-4.4-3.07-5.4c-8.85-5.63-17.86-11.01-26.97-16.18c-2.99-1.7-6.45-3.52-9.72-3.58
			c-14.97-0.27-30.3-1.89-44.86,0.66c-21.88,3.83-43.23,10.69-64.78,16.34c-13.35,3.5-26.68,7.09-40,10.73
			c-9.59,2.62-15.07,11.35-13.06,20.57c1.95,8.96,10.66,14.74,20.15,12.42c20.19-4.94,40.26-10.38,60.37-15.65
			c11.37-2.98,22.72-6.01,34.44-9.11C340.62,408.98,341.98,414.08,343.54,419.92z M444.03,494.57c17.27,0,33.99,0,50.67,0
			c0-45.49,0-90.57,0-135.9c-17,0-33.73,0-50.67,0C444.03,404.11,444.03,449.21,444.03,494.57z"/>
		<path class="st0" d="M512,68c-18.8,0.06-37.6,0.16-56.4,0.17c-32.95,0.03-65.9-0.04-98.85,0.08c-3.41,0.01-5.86-0.88-8.29-3.36
			c-13.53-13.77-27.32-27.28-40.88-41.02C295.13,11.25,280.37,3.3,262.75,0.79C262.14,0.71,261.58,0.27,261,0
			c83.67,0,167.33,0,251,0C512,22.67,512,45.33,512,68z"/>
		<path class="st0" d="M138,0c-10.21,4.53-20.48,8.94-30.61,13.65c-7.04,3.28-14.2,3.85-22.39,2.27c0-5.4,0-10.66,0-15.92
			C102.67,0,120.33,0,138,0z"/>
		<path class="st0" d="M392,512c11.27-4.04,22.55-8.07,34.45-12.34c0.19,4.3,0.37,8.32,0.55,12.34C415.33,512,403.67,512,392,512z"
			/>
		<path class="st0" d="M85.64,34.3c0.39-0.2,0.54-0.35,0.67-0.34c16.53,1.79,30.25-5.75,44.33-12.72c5.15-2.55,11.4-3.97,17.17-4.04
			c33.65-0.37,67.3-0.03,100.95-0.24c18.69-0.12,34.42,6.17,47.44,19.61c9.04,9.33,18.35,18.4,27.53,27.6
			c1.01,1.01,1.96,2.09,3.47,3.71c-2.23,0.13-3.65,0.27-5.07,0.28c-20.16,0.02-40.32,0.12-60.47-0.13
			c-2.46-0.03-5.45-1.34-7.26-3.05c-5.92-5.58-11.4-11.61-17.16-17.58c-4.32,4.59-8.05,8.54-12.11,12.85
			c11.1,11.05,22.55,22.42,33.98,33.82c8.26,8.23,16.53,16.46,24.71,24.76c7.81,7.93,8.17,18.22,1.01,25.3
			c-7.08,7-17.49,6.55-25.32-1.26c-16.28-16.22-32.51-32.5-48.98-48.98c-22.1,20.09-44.83,21.41-68.66,2.04
			c-3.39,4.15-6.8,8.35-11.11,13.63c6.71,4.1,13.05,7.86,19.25,11.84c1.46,0.94,3.47,2.58,3.5,3.94
			c0.27,12.63,0.16,25.28,0.16,39.05c-5.8-1-11.37-1.13-16.3-2.98c-8.35-3.13-16.7-6.67-24.28-11.3c-5.8-3.55-11.29-5.92-18.09-5.16
			c-2.95,0.33-5.97,0.06-9.35,0.06C85.64,107.89,85.64,71.04,85.64,34.3z"/>
		<path class="st0" d="M276.09,85.49c72.74,0,145.49,0,218.55,0c0,62.46,0,124.68,0,187.22c-107.77,0-215.48,0-323.54,0
			c0-48.6,0-97.15,0-146.05c13.53,0.32,26.17-2.5,37.67-9.86c4.64,5.01,9.13,9.85,14.09,15.21c-8.28,11-20.46,14.02-34.63,12.9
			c0,22.77,0,45.15,0,68.07c28.59-0.63,43.29,13.18,42.25,42.69c68.18,0,136.06,0,204.65,0c-0.68-11.87,1.01-23.17,9.88-32.15
			c8.94-9.05,20.2-10.91,32.55-10.22c0-22.78,0-45.18,0-68.37c-11.96,0.97-23.2-0.83-32.18-9.72c-9.03-8.94-11.05-20.14-10.09-32.87
			c-2.48,0-4.42,0-6.36,0c-43.83,0-87.65-0.07-131.47,0.1c-4.4,0.02-7.47-1.29-10.41-4.42c-3.74-3.98-7.96-7.5-11.98-11.21
			C275.41,86.36,275.75,85.93,276.09,85.49z"/>
		<path class="st0" d="M304.14,147.25c3.53-16.33,3.53-16.33,0.89-27.32c37.79,0,75.46,0,113.62,0
			c5.25,22.09,19.02,36.31,41.92,41.63c0,11.62,0,23.23,0,35.19c-22.37,5.26-36.55,19.07-41.94,42.21c-1.54,0-3.16,0-4.79,0
			c-53.99,0-107.97-0.04-161.96,0.09c-3.83,0.01-5.21-1-6.31-4.83c-5.38-18.73-17.64-30.87-36.45-36.26
			c-0.96-0.28-1.93-0.52-2.89-0.8c-0.32-0.09-0.61-0.27-1.14-0.5c0-11.52,0-23.13,0-35.15c12.02-2.54,22.32-8.22,31.52-19.04
			c2.52,3.11,4.76,5.98,7.09,8.76c12.45,14.81,30.7,20.92,51.79,7.01c-6.58,13.38-7.47,26.39-1.5,39.49
			c4.31,9.46,11.28,16.4,20.61,20.91c18.52,8.94,40.93,3.37,53.22-13.18c12.34-16.62,10.95-40.02-3.03-55.18
			C352.97,137.43,328.42,128.79,304.14,147.25z"/>
		<path class="st0" d="M67.77,170.47c-16.77,0-33.35,0-50.34,0c0-50.92,0-101.77,0-153.03c16.51,0,33.22,0,50.34,0
			C67.77,68.27,67.77,119.24,67.77,170.47z"/>
		<path class="st0" d="M358.28,178.95c0.11,14.3-11.3,25.9-25.49,25.9c-13.87,0-25.46-11.48-25.64-25.39
			c-0.18-14.15,11.34-25.73,25.62-25.75C346.93,153.69,358.17,164.81,358.28,178.95z"/>
		<path class="st0" d="M343.54,419.92c-1.56-5.84-2.92-10.94-4.43-16.59c-11.72,3.1-23.07,6.14-34.44,9.11
			c-20.11,5.27-40.18,10.71-60.37,15.65c-9.49,2.32-18.2-3.46-20.15-12.42c-2.01-9.22,3.47-17.95,13.06-20.57
			c13.32-3.64,26.65-7.23,40-10.73c21.56-5.65,42.91-12.51,64.78-16.34c14.56-2.55,29.89-0.93,44.86-0.66
			c3.27,0.06,6.73,1.89,9.72,3.58c9.12,5.18,18.13,10.56,26.97,16.18c1.57,1,3.06,3.55,3.07,5.4c0.19,28.16,0.1,56.32,0.19,84.48
			c0.01,2.75-0.78,4.15-3.42,5.14c-9.34,3.5-18.52,7.44-27.92,10.8c-3.53,1.26-7.46,1.92-11.21,1.93
			c-38.82,0.14-77.65,0.25-116.47-0.11c-5.4-0.05-11.45-1.51-16.07-4.24c-51.59-30.49-102.96-61.35-154.36-92.16
			c-7.1-4.26-10.36-10.94-9.09-17.93c1.31-7.22,6.51-12.94,13.88-13.83c3.59-0.44,7.89,0.06,11.03,1.73
			c30.73,16.29,61.29,32.9,91.84,49.51c1.27,0.69,2.46,2.2,2.95,3.58c6.53,18.12,21.04,27.69,39.76,23.33
			C279.62,437.35,311.15,428.41,343.54,419.92z"/>
		<path class="st0" d="M444.03,494.57c0-45.36,0-90.46,0-135.9c16.94,0,33.67,0,50.67,0c0,45.32,0,90.41,0,135.9
			C478.02,494.57,461.3,494.57,444.03,494.57z"/>
	</g>
</g>
</svg>
