<?xml version="1.0" encoding="utf-8"?>
<!-- Generator: Adobe Illustrator 24.0.0, SVG Export Plug-In . SVG Version: 6.00 Build 0)  -->
<svg version="1.1" id="Calque_1" xmlns="http://www.w3.org/2000/svg" xmlns:xlink="http://www.w3.org/1999/xlink" x="0px" y="0px"
	 viewBox="0 0 448 320" style="enable-background:new 0 0 448 320;" xml:space="preserve">
<style type="text/css">
	.st0{fill:#FFFFFF00;}
</style>
<g>
	<g>
		<path d="M448,46c0,76,0,152,0,228c-0.35,1.06-0.79,2.09-1.04,3.17c-4.77,20.15-16.86,33.7-36.51,40.39
			c-2.77,0.94-5.63,1.63-8.45,2.44c-118.67,0-237.33,0-356,0c-1.06-0.35-2.09-0.78-3.17-1.04c-19.93-4.74-33.47-16.61-40.21-36.04
			C1.6,279.99,0.86,276.97,0,274c0-76,0-152,0-228c0.35-1.06,0.8-2.1,1.03-3.18C4.25,28.21,11.79,16.31,24.64,8.67
			C31.17,4.79,38.84,2.83,46,0c118.67,0,237.33,0,356,0c0.73,0.31,1.43,0.76,2.19,0.91c21.78,4.18,38.23,20.3,42.77,41.92
			C447.19,43.91,447.65,44.94,448,46z M21.25,107.01c0,2.04,0,3.82,0,5.61c0,50.33-0.02,100.66,0.01,150.99
			c0.01,21.86,13.32,35.13,35.25,35.13c111.66,0.02,223.32,0.02,334.98,0c21.92,0,35.24-13.28,35.25-35.14
			c0.03-50.33,0.01-100.66,0.01-150.99c0-1.78,0-3.56,0-5.6C291.37,107.01,156.63,107.01,21.25,107.01z M426.75,84.98
			c0-3.36,0-6.49,0-9.61c0-6.5,0.02-13,0-19.5c-0.1-21.22-13.48-34.61-34.76-34.62C279.99,21.24,168,21.25,56,21.25
			c-1.17,0-2.34-0.01-3.5,0.06c-14.87,0.89-27.78,10.22-29.89,24.2c-1.95,12.86-1.31,26.11-1.82,39.47
			C156.63,84.98,291.38,84.98,426.75,84.98z"/>
		<path class="st0" d="M448,46c-0.35-1.06-0.81-2.09-1.04-3.17c-4.54-21.62-20.99-37.74-42.77-41.92c-0.76-0.15-1.46-0.6-2.19-0.91
			c15.33,0,30.67,0,46,0C448,15.33,448,30.67,448,46z"/>
		<path class="st0" d="M0,274c0.86,2.97,1.6,5.99,2.62,8.92c6.74,19.43,20.28,31.3,40.21,36.04c1.08,0.26,2.12,0.69,3.17,1.04
			c-15.33,0-30.67,0-46,0C0,304.67,0,289.33,0,274z"/>
		<path class="st0" d="M402,320c2.82-0.81,5.68-1.49,8.45-2.44c19.65-6.69,31.73-20.24,36.51-40.39c0.26-1.08,0.69-2.12,1.04-3.17
			c0,15.33,0,30.67,0,46C432.67,320,417.33,320,402,320z"/>
		<path class="st0" d="M46,0c-7.16,2.83-14.83,4.79-21.36,8.67C11.79,16.31,4.25,28.21,1.03,42.82C0.8,43.9,0.35,44.94,0,46
			C0,30.67,0,15.33,0,0C15.33,0,30.67,0,46,0z"/>
		<path class="st0" d="M21.25,107.01c135.38,0,270.12,0,405.5,0c0,2.04,0,3.82,0,5.6c0,50.33,0.02,100.66-0.01,150.99
			c-0.01,21.86-13.33,35.13-35.25,35.14c-111.66,0.02-223.32,0.02-334.98,0c-21.93,0-35.24-13.27-35.25-35.13
			c-0.02-50.33-0.01-100.66-0.01-150.99C21.25,110.84,21.25,109.06,21.25,107.01z M330.82,160c-6.83,0-13.66-0.04-20.48,0.01
			c-18.84,0.13-32.6,13.36-33.01,32.19c-0.31,14.15-0.33,28.32,0.01,42.46c0.45,18.37,13.78,31.6,32.19,32.01
			c14.15,0.31,28.32,0.35,42.46-0.01c18.62-0.47,31.86-14.19,31.98-32.7c0.1-13.99,0.14-27.98-0.02-41.97
			c-0.2-18.05-14.06-31.75-32.16-31.98C344.81,159.93,337.81,160,330.82,160z M117.2,181.26c-13.98,0-27.96-0.08-41.93,0.03
			c-7.28,0.06-12.02,4.32-12.15,10.51c-0.13,6.34,4.77,10.79,12.26,10.92c6.65,0.12,13.31,0.03,19.97,0.03
			c20.8,0,41.6-0.02,62.4,0.01c5.2,0.01,9.62-1.4,11.93-6.47c3.38-7.42-2.03-14.89-11.04-15
			C144.83,181.14,131.01,181.26,117.2,181.26z M116.47,256c13.81,0,27.62,0.02,41.43-0.01c7.91-0.02,12.89-4.3,12.75-10.85
			c-0.13-6.36-4.92-10.36-12.66-10.37c-27.45-0.04-54.91-0.04-82.36,0c-7.61,0.01-12.49,4.22-12.51,10.53
			c-0.02,6.35,4.92,10.66,12.42,10.69C89.18,256.03,102.83,256,116.47,256z"/>
		<path class="st0" d="M426.75,84.98c-135.37,0-270.12,0-405.96,0c0.51-13.36-0.12-26.61,1.82-39.47
			c2.12-13.98,15.02-23.31,29.89-24.2c1.16-0.07,2.33-0.06,3.5-0.06c111.99,0,223.99-0.02,335.98,0.01
			c21.28,0,34.67,13.4,34.76,34.62c0.03,6.5,0,13,0,19.5C426.75,78.5,426.75,81.62,426.75,84.98z"/>
		<path d="M330.82,160c6.99,0,13.99-0.07,20.98,0.01c18.1,0.22,31.95,13.92,32.16,31.98c0.16,13.99,0.11,27.98,0.02,41.97
			c-0.13,18.51-13.37,32.23-31.98,32.7c-14.15,0.36-28.32,0.32-42.46,0.01c-18.41-0.41-31.74-13.64-32.19-32.01
			c-0.34-14.15-0.32-28.32-0.01-42.46c0.41-18.83,14.16-32.05,33.01-32.19C317.16,159.96,323.99,160,330.82,160z M330.4,245.24
			c6.83,0,13.66,0.08,20.48-0.02c7.42-0.12,11.69-3.99,11.8-11.27c0.2-13.82,0.21-27.65-0.02-41.46
			c-0.11-6.8-4.24-11.02-10.98-11.14c-13.98-0.24-27.98-0.24-41.96,0c-7.01,0.12-10.86,4.42-10.92,11.59
			c-0.11,13.49-0.1,26.98-0.01,40.47c0.05,7.85,3.87,11.68,11.63,11.81C317.07,245.33,323.73,245.24,330.4,245.24z"/>
		<path d="M117.2,181.26c13.81,0,27.62-0.12,41.43,0.04c9.01,0.11,14.42,7.58,11.04,15c-2.31,5.07-6.72,6.48-11.93,6.47
			c-20.8-0.04-41.6-0.01-62.4-0.01c-6.66,0-13.31,0.09-19.97-0.03c-7.49-0.13-12.39-4.58-12.26-10.92
			c0.13-6.19,4.86-10.46,12.15-10.51C89.25,181.18,103.22,181.26,117.2,181.26z"/>
		<path d="M116.47,256c-13.64,0-27.29,0.03-40.93-0.01c-7.5-0.02-12.44-4.34-12.42-10.69c0.02-6.31,4.91-10.52,12.51-10.53
			c27.45-0.04,54.91-0.04,82.36,0c7.74,0.01,12.52,4.01,12.66,10.37c0.14,6.55-4.84,10.83-12.75,10.85
			C144.09,256.02,130.28,256,116.47,256z"/>
		<path class="st0" d="M330.4,245.24c-6.66,0-13.32,0.09-19.98-0.02c-7.76-0.13-11.57-3.96-11.63-11.81
			c-0.09-13.49-0.1-26.98,0.01-40.47c0.06-7.18,3.91-11.47,10.92-11.59c13.98-0.24,27.98-0.23,41.96,0
			c6.74,0.11,10.87,4.33,10.98,11.14c0.22,13.82,0.22,27.64,0.02,41.46c-0.11,7.28-4.38,11.15-11.8,11.27
			C344.05,245.33,337.22,245.24,330.4,245.24z"/>
	</g>
</g>
</svg>
