<?xml version="1.0" standalone="no"?>
<!DOCTYPE svg PUBLIC "-//W3C//DTD SVG 20010904//EN" "http://www.w3.org/TR/2001/REC-SVG-20010904/DTD/svg10.dtd">
<svg version="1.0" xmlns="http://www.w3.org/2000/svg" width="512.000000pt" height="512.000000pt"
  viewBox="0 0 512.000000 512.000000" preserveAspectRatio="xMidYMid meet">

  <g transform="translate(0.000000,512.000000) scale(0.100000,-0.100000)" fill="#000000" stroke="none">
    <path d="M2055 4425 c-414 -65 -759 -324 -939 -706 -220 -464 -119 -1026 249
-1394 49 -50 127 -115 173 -145 76 -51 81 -56 60 -64 -92 -37 -219 -102 -293
-151 -108 -72 -266 -222 -350 -333 -158 -211 -256 -482 -271 -755 l-7 -113 32
-37 c55 -62 132 -60 186 5 20 24 25 40 25 88 0 208 82 459 210 644 57 83 176
204 265 271 132 100 354 190 529 214 100 14 532 14 632 0 171 -24 363 -99 508
-199 93 -64 222 -193 286 -286 128 -185 210 -437 210 -644 0 -52 4 -64 31 -94
53 -61 130 -58 186 8 25 30 26 33 20 138 -20 343 -150 645 -384 889 -149 154
-298 258 -475 331 l-77 31 81 56 c159 109 305 274 396 451 101 193 137 344
137 570 0 111 -5 179 -18 240 -85 396 -334 712 -698 884 -212 101 -472 138
-704 101z m420 -254 c335 -83 604 -332 714 -658 119 -354 23 -751 -245 -1020
-303 -303 -766 -378 -1149 -186 -267 134 -453 369 -528 663 -30 121 -30 339 0
460 87 342 331 608 660 719 162 54 383 63 548 22z" />
    <path d="M3880 3083 c-20 -8 -291 -271 -307 -298 -7 -11 -12 -36 -12 -55 0
-19 5 -44 12 -55 7 -11 77 -83 156 -160 l143 -140 49 0 c42 0 53 5 81 33 28
28 33 39 33 82 0 42 -5 54 -34 84 l-35 36 273 0 c299 0 317 3 346 60 31 60 10
137 -45 165 -24 12 -77 15 -301 15 l-273 0 35 36 c29 30 34 42 34 84 0 42 -5
54 -31 81 -31 31 -90 46 -124 32z" />
    <path d="M4195 2221 c-44 -20 -70 -60 -70 -111 0 -42 5 -54 34 -84 l35 -36
-273 0 c-299 0 -317 -3 -346 -60 -31 -60 -10 -137 45 -165 24 -12 77 -15 301
-15 l273 0 -35 -36 c-29 -30 -34 -42 -34 -84 0 -43 5 -54 33 -82 28 -28 39
-33 81 -33 l49 0 143 140 c79 77 149 149 156 160 7 11 12 36 12 55 0 19 -5 44
-12 55 -7 11 -76 83 -154 159 -124 121 -146 138 -180 142 -21 2 -47 0 -58 -5z" />
  </g>
</svg>