<?xml version="1.0" encoding="utf-8"?>
<!-- Generator: Adobe Illustrator 24.0.0, SVG Export Plug-In . SVG Version: 6.00 Build 0)  -->
<svg version="1.1" id="Calque_1" xmlns="http://www.w3.org/2000/svg" xmlns:xlink="http://www.w3.org/1999/xlink" x="0px" y="0px"
	 viewBox="0 0 503 494" style="enable-background:new 0 0 503 494;" xml:space="preserve">
<style type="text/css">
	.st0{fill:#FFFFFF00;}
</style>
<g>
	<g>
		<path d="M391,0c0.67,0,1.33,0,2,0c23.29,13.61,46.58,27.23,70.04,40.94c-8.86,15.38-17.75,30.74-26.59,46.14
			c-9.33,16.26-18.56,32.59-27.92,48.83c-10.59,18.35-21.35,36.61-31.9,54.98c-3.57,6.22-1.71,9.11,5.48,9.11c40.3,0,80.6,0,120.9,0
			c0,78,0,156,0,234c-7.48,0-14.97-0.01-22.45,0c-5.98,0.01-6.54,0.57-6.54,6.61c-0.01,17.8,0,35.59,0,53.39
			c-139.34,0-278.67,0-418.01,0c-0.5-0.32-0.98-0.86-1.52-0.94c-18.19-2.6-32.65-11.55-43.08-26.47
			c-5.6-8.02-10.36-16.88-10.37-27.06c-0.1-81.13-0.07-162.26,0-243.38c0-2.57,0.41-5.28,1.29-7.69
			c3.56-9.73,9.03-18.21,17.81-24.05c14-9.31,28.98-12.3,45.18-6.33c17.01,6.26,27.22,18.57,31.07,36.01c1.14,5.14,3.6,6.01,8.23,6
			c54.81-0.13,109.62-0.17,164.43,0.05c5.57,0.02,8.46-2.32,10.87-6.68c5.44-9.85,10.98-19.64,16.59-29.4
			c10.89-18.94,21.89-37.82,32.8-56.76c9.44-16.4,18.78-32.86,28.22-49.26C368.64,38.67,379.83,19.34,391,0z M232.2,360.27
			c-0.67-0.24-1.34-0.47-2.01-0.71c-0.07-12.27-0.11-24.54-0.21-36.8c-0.13-16.23,3.52-31.84,8.08-47.23
			c4.56-15.39,11.35-29.86,19.55-43.66c3.23-5.44,0.8-9.1-5.58-9.02c-29.16,0.36-58.32,0.15-87.49,0.16c-5.99,0-6.54,0.57-6.55,6.63
			c-0.01,58.16-0.01,116.32,0,174.47c0,6.4,0.47,6.89,6.79,6.89c103.15,0,206.31,0,309.46,0c6.29,0,6.75-0.48,6.75-6.93
			c0-57.99,0-115.98,0-173.97c0-6.69-0.4-7.09-7.08-7.09c-36.66,0-73.33,0.04-109.99-0.07c-3.7-0.01-6.15,0.97-8.04,4.31
			c-8.54,15.04-17.3,29.95-25.92,44.95c-8.09,14.08-17.03,27.53-28.11,39.5c-15.23,16.46-32.91,29.69-52.63,40.23
			C243.66,354.89,237.88,357.49,232.2,360.27z M74.99,434c0-2.18,0.05-3.67-0.01-5.16c-0.67-17.33-18.75-30.46-36.35-22.98
			c-13.26,5.64-19.11,17.9-15.48,33.16c4.22,17.72,20.58,32.08,39.64,32.06c126.48-0.15,252.95-0.08,379.43-0.08
			c1.17,0,2.34-0.05,3.5,0.01c3.82,0.19,5.36-1.66,5.31-5.41c-0.1-8-0.03-16-0.03-23.99c0-7.38-0.22-7.61-7.57-7.61
			c-120.48,0-240.95,0-361.43,0C79.86,434,77.72,434,74.99,434z M22.99,289.18c0,29.83-0.01,59.66,0.01,89.49
			c0,5.67,2.85,8.06,7.76,5.9c11.82-5.21,23.59-4.27,35.47-0.49c6.8,2.16,8.77,0.76,8.77-6.26c0-57-0.35-113.99,0.23-170.98
			c0.16-15.79-12.2-30.43-29.22-29.02c-9.45,0.78-23.36,11.43-23.16,23.38C23.31,230.52,22.99,259.85,22.99,289.18z M397.07,109.65
			c-1.56-1.84-2.48-3.67-3.96-4.54c-7.15-4.24-14.48-8.19-21.69-12.33c-4.95-2.84-6.19-2.53-8.91,2.18
			c-8.32,14.4-16.76,28.74-25.06,43.15c-9.27,16.11-18.4,32.31-27.66,48.43c-8.29,14.43-17.02,28.61-24.92,43.24
			c-8.27,15.32-16.81,30.65-23.25,46.76c-4.41,11.02-5.54,23.37-7.84,35.19c-0.4,2.06,0.14,5.9,1.21,6.3
			c2.03,0.75,5.17,0.26,7.11-0.92c3.19-1.94,5.71-4.94,8.65-7.33c16.95-13.78,29.65-30.95,40.29-49.86
			c8.23-14.64,16.79-29.1,25.17-43.66c9.28-16.11,18.52-32.24,27.8-48.35c8.39-14.56,16.84-29.08,25.18-43.65
			C391.85,119.63,394.26,114.89,397.07,109.65z M134.99,316.99c0-29.15,0.01-58.3,0-87.45c0-5.98-0.57-6.52-6.64-6.53
			c-8.33-0.01-16.66,0.07-24.99-0.03c-3.76-0.05-5.51,1.53-5.4,5.34c0.11,3.83,0.02,7.66,0.02,11.49c0,54.8,0,109.61,0,164.41
			c0,6.31,0.49,6.78,6.89,6.79c7.83,0.01,15.66,0.01,23.49,0c6.05-0.01,6.62-0.56,6.62-6.55
			C134.99,375.29,134.99,346.14,134.99,316.99z M408.92,86.12c0.63-0.38,2.67-0.9,3.43-2.19c5.79-9.81,11.43-19.72,16.88-29.73
			c1.73-3.18,1.43-6.22-2.37-8.29c-7.29-3.97-14.48-8.15-21.65-12.33c-4.54-2.64-6-2.32-8.56,2.18c-5.23,9.2-10.1,18.63-15.88,27.48
			c-2.89,4.42-1.91,7.27,1.66,9.53c7.28,4.61,14.84,8.78,22.34,13.03C405.54,86.25,406.72,85.98,408.92,86.12z"/>
		<path class="st0" d="M391,0c-11.17,19.34-22.36,38.67-33.5,58.03c-9.44,16.4-18.77,32.86-28.22,49.26
			c-10.9,18.94-21.9,37.82-32.8,56.76c-5.61,9.75-11.15,19.55-16.59,29.4c-2.41,4.37-5.31,6.71-10.87,6.68
			c-54.81-0.22-109.62-0.18-164.43-0.05c-4.63,0.01-7.09-0.86-8.23-6c-3.85-17.44-14.06-29.74-31.07-36.01
			c-16.2-5.96-31.18-2.98-45.18,6.33c-8.78,5.84-14.25,14.32-17.81,24.05c-0.88,2.4-1.29,5.11-1.29,7.69
			c-0.07,81.13-0.1,162.26,0,243.38c0.01,10.18,4.77,19.05,10.37,27.06c10.42,14.92,24.88,23.88,43.08,26.47
			c0.54,0.08,1.01,0.62,1.52,0.94c-18.66,0-37.31,0-55.98,0C0,329.43,0,164.86,0,0C130.32,0,260.66,0,391,0z"/>
		<path class="st0" d="M503,200c-40.3,0-80.6,0-120.9,0c-7.19,0-9.05-2.89-5.48-9.11c10.55-18.38,21.31-36.63,31.9-54.98
			c9.37-16.24,18.59-32.56,27.92-48.83c8.83-15.4,17.72-30.76,26.59-46.14C439.57,27.23,416.29,13.61,393,0c36.67,0,73.34,0,110,0
			C503,66.67,503,133.33,503,200z"/>
		<path class="st0" d="M474,494c0-17.8-0.01-35.59,0-53.39c0-6.04,0.56-6.6,6.54-6.61c7.48-0.02,14.97,0,22.45,0c0,20,0,40,0,60
			C493.33,494,483.67,494,474,494z"/>
		<path class="st0" d="M232.2,360.27c5.68-2.77,11.45-5.38,17.02-8.35c19.72-10.54,37.39-23.76,52.63-40.23
			c11.08-11.98,20.02-25.42,28.11-39.5c8.62-14.99,17.38-29.91,25.92-44.95c1.9-3.34,4.34-4.32,8.04-4.31
			c36.66,0.11,73.32,0.07,109.99,0.07c6.68,0,7.08,0.4,7.08,7.09c0,57.99,0,115.98,0,173.97c0,6.45-0.46,6.93-6.75,6.93
			c-103.15,0-206.31,0-309.46,0c-6.31,0-6.79-0.48-6.79-6.89c0-58.16-0.01-116.32,0-174.47c0-6.06,0.56-6.63,6.55-6.63
			c29.16-0.01,58.33,0.2,87.49-0.16c6.39-0.08,8.81,3.58,5.58,9.02c-8.19,13.8-14.99,28.27-19.55,43.66
			c-4.56,15.39-8.21,31-8.08,47.23c0.1,12.27,0.14,24.54,0.21,36.8C230.86,359.8,231.53,360.03,232.2,360.27z M443.71,373.76
			c0-7.62,0-15,0-22.44c-27.66,0-55.02,0-82.33,0c0,7.71,0,15.09,0,22.44C389,373.76,416.25,373.76,443.71,373.76z M443.81,290.38
			c-17.88,0-35.24,0-52.55,0c0,7.65,0,14.91,0,22.32c17.63,0,34.99,0,52.55,0C443.81,305.15,443.81,297.89,443.81,290.38z"/>
		<path class="st0" d="M74.99,434c2.73,0,4.87,0,7,0c120.48,0,240.95,0,361.43,0c7.35,0,7.57,0.23,7.57,7.61c0,8-0.07,16,0.03,23.99
			c0.05,3.75-1.49,5.6-5.31,5.41c-1.16-0.06-2.33-0.01-3.5-0.01c-126.48,0-252.95-0.07-379.43,0.08
			c-19.05,0.02-35.42-14.34-39.64-32.06c-3.63-15.26,2.22-27.52,15.48-33.16c17.6-7.48,35.68,5.64,36.35,22.98
			C75.04,430.33,74.99,431.82,74.99,434z"/>
		<path class="st0" d="M22.99,289.18c0-29.33,0.32-58.67-0.16-87.99c-0.2-11.95,13.72-22.59,23.16-23.38
			c17.02-1.41,29.38,13.23,29.22,29.02c-0.58,56.99-0.23,113.99-0.23,170.98c0,7.02-1.97,8.43-8.77,6.26
			c-11.88-3.78-23.64-4.72-35.47,0.49c-4.9,2.16-7.76-0.22-7.76-5.9C22.98,348.85,22.99,319.01,22.99,289.18z"/>
		<path class="st0" d="M397.07,109.65c-2.81,5.23-5.22,9.98-7.87,14.6c-8.35,14.58-16.8,29.1-25.18,43.65
			c-9.28,16.11-18.52,32.24-27.8,48.35c-8.39,14.56-16.94,29.02-25.17,43.66c-10.63,18.91-23.33,36.08-40.29,49.86
			c-2.94,2.39-5.46,5.39-8.65,7.33c-1.94,1.18-5.08,1.67-7.11,0.92c-1.07-0.4-1.61-4.24-1.21-6.3c2.3-11.81,3.43-24.17,7.84-35.19
			c6.44-16.11,14.98-31.44,23.25-46.76c7.9-14.64,16.63-28.82,24.92-43.24c9.26-16.12,18.39-32.32,27.66-48.43
			c8.3-14.42,16.73-28.75,25.06-43.15c2.72-4.71,3.97-5.02,8.91-2.18c7.21,4.14,14.54,8.08,21.69,12.33
			C394.59,105.99,395.51,107.81,397.07,109.65z"/>
		<path class="st0" d="M134.99,316.99c0,29.15,0.01,58.3,0,87.45c0,5.99-0.57,6.54-6.62,6.55c-7.83,0.01-15.66,0.01-23.49,0
			c-6.4-0.01-6.89-0.48-6.89-6.79c-0.01-54.8,0-109.61,0-164.41c0-3.83,0.09-7.67-0.02-11.49c-0.11-3.81,1.63-5.38,5.4-5.34
			c8.33,0.1,16.66,0.02,24.99,0.03c6.07,0.01,6.63,0.56,6.64,6.53C134.99,258.69,134.99,287.84,134.99,316.99z"/>
		<path class="st0" d="M408.92,86.12c-2.2-0.14-3.38,0.13-4.16-0.31c-7.5-4.25-15.06-8.42-22.34-13.03
			c-3.57-2.26-4.55-5.11-1.66-9.53c5.78-8.84,10.65-18.28,15.88-27.48c2.56-4.5,4.02-4.82,8.56-2.18
			c7.18,4.18,14.36,8.35,21.65,12.33c3.8,2.07,4.1,5.11,2.37,8.29c-5.44,10.01-11.09,19.91-16.88,29.73
			C411.6,85.22,409.55,85.74,408.92,86.12z"/>
		<path d="M443.71,373.76c-27.45,0-54.7,0-82.33,0c0-7.35,0-14.73,0-22.44c27.31,0,54.67,0,82.33,0
			C443.71,358.77,443.71,366.15,443.71,373.76z"/>
		<path d="M443.81,290.38c0,7.51,0,14.76,0,22.32c-17.56,0-34.92,0-52.55,0c0-7.41,0-14.67,0-22.32
			C408.56,290.38,425.93,290.38,443.81,290.38z"/>
	</g>
</g>
</svg>
