<?xml version="1.0" encoding="utf-8"?>
<!-- Generator: Adobe Illustrator 24.0.0, SVG Export Plug-In . SVG Version: 6.00 Build 0)  -->
<svg version="1.1" id="Calque_1" xmlns="http://www.w3.org/2000/svg" xmlns:xlink="http://www.w3.org/1999/xlink" x="0px"
	y="0px" viewBox="405 190 315 360" style="enable-background:new 405 190 315 360;" xml:space="preserve">
	<style type="text/css">
		.st0 {
			fill: currentColor;
		}
	</style>
	<g>
		<path class="st0" d="M408.05,351.02c0-31.73-0.04-63.47,0.01-95.2c0.05-29.61,19.56-53.58,48.48-59.63
		c3.91-0.82,7.89-1.14,11.91-1.14c47.73,0.02,95.45-0.04,143.18,0.03c33.67,0.05,60.19,26.46,60.3,60.05
		c0.11,33.48,0.04,66.97,0.02,100.45c0,7.79-5.19,13.39-12.16,13.26c-6.9-0.13-11.81-5.59-11.82-13.23
		c-0.02-33.36,0.05-66.72-0.03-100.07c-0.04-17.08-10.73-30.95-26.94-35.31c-3.27-0.88-6.61-1.19-10-1.19
		c-47.35,0.02-94.7-0.03-142.05,0.03c-21.27,0.03-36.87,15.63-36.88,36.91c-0.05,63.34-0.05,126.68,0,190.03
		c0.02,21.28,15.61,36.82,36.87,36.94c5,0.03,10-0.12,14.99,0.05c6.18,0.21,11.03,5.1,11.43,11.24c0.39,6.02-3.97,12.18-10.02,12.44
		c-12.44,0.53-24.96,1.26-37.07-3.06c-24.13-8.61-40.12-30.93-40.19-56.66C407.99,414.99,408.05,383,408.05,351.02z" />
		<path class="st0" d="M570.34,288.84c-15.36,0-30.73,0.01-46.09-0.01c-7.94-0.01-13.41-4.92-13.4-11.96
		c0.01-7.02,5.53-12.01,13.41-12.02c30.85-0.02,61.7-0.02,92.56,0c7.02,0.01,11.95,4.1,12.93,10.53c0.84,5.52-2.89,11.14-8.5,12.97
		c-1.72,0.56-3.45,0.47-5.19,0.47C600.82,288.85,585.58,288.84,570.34,288.84z" />
		<path class="st0" d="M570.32,336.82c-15.36,0-30.73,0.01-46.09,0c-7.93-0.01-13.4-4.93-13.37-11.97c0.02-7.02,5.53-12,13.43-12
		c30.85-0.02,61.7-0.03,92.56,0.01c7.01,0.01,11.94,4.14,12.91,10.56c0.83,5.52-2.91,11.15-8.52,12.96c-1.6,0.51-3.2,0.45-4.82,0.45
		C601.04,336.83,585.68,336.82,570.32,336.82z" />
		<path class="st0" d="M496.89,402.41c-7.74,0-15.47,0.1-23.21-0.04c-5.73-0.11-10.1-3.4-11.64-8.32c-1.56-5.02,0.1-10.06,4.34-13.3
		c2.29-1.76,4.93-2.31,7.72-2.32c15.22-0.01,30.45-0.08,45.67,0.03c7.39,0.05,12.66,5.21,12.64,11.97
		c-0.02,6.77-5.28,11.84-12.69,11.96C512.11,402.51,504.5,402.41,496.89,402.41z" />
		<path class="st0" d="M485.37,324.8c0.04,6.6-5.12,11.91-11.66,12.02c-6.7,0.11-12.25-5.24-12.3-11.87
		c-0.05-6.57,5.55-12.16,12.13-12.1C480.03,312.91,485.34,318.28,485.37,324.8z" />
		<path class="st0" d="M485.38,277.04c-0.06,6.55-5.34,11.78-11.9,11.79c-6.65,0.01-12.18-5.55-12.06-12.12
		c0.12-6.47,5.55-11.83,12-11.85C480.03,264.84,485.44,270.35,485.38,277.04z" />
		<path class="st0" d="M576.3,547.91c-1.08-1.29-2.73-0.96-4.09-1.31c-11.27-2.86-20.37-9-26.52-18.78
		c-11.48-18.25-22.84-36.58-33.67-55.21c-11.45-19.71,2.84-44.38,25.65-44.48c4.87-0.02,7.05-1.55,9.08-5.81
		c7.33-15.39,15.1-30.57,22.79-45.78c3.09-6.12,9.02-9.27,15.33-8.47c6.35,0.8,11.44,5.5,12.86,11.93c0.81,3.7,0,7.14-1.68,10.48
		c-5.7,11.35-11.34,22.72-17,34.08c-0.48,0.97-0.95,1.95-1.56,3.22c23.81,0,47.21,0,70.64,0c0.39-1.25-0.55-2.1-1.02-3.04
		c-5.81-11.7-11.75-23.34-17.48-35.08c-3.25-6.67-1.4-14.24,4.19-18.51c5.73-4.38,13.51-4.17,18.99,0.49
		c2.05,1.74,3.31,4.01,4.48,6.37c7.9,15.81,15.84,31.61,23.7,47.44c0.85,1.71,1.64,2.77,3.84,2.57c14.79-1.36,29.71,8.1,32.86,25.25
		c0.01,0.08,0.2,0.13,0.31,0.19c0,3.25,0,6.5,0,9.75c-0.58,5.72-3.35,10.52-6.29,15.31c-10.17,16.56-20.06,33.29-30.49,49.69
		c-5.01,7.89-12.13,13.41-20.67,17.19c-3.71,1.64-7.68,1.78-11.54,2.53C624.79,547.91,600.54,547.91,576.3,547.91z" />
	</g>
</svg>