<?xml version="1.0" encoding="utf-8"?>
<!-- Generator: Adobe Illustrator 24.0.0, SVG Export Plug-In . SVG Version: 6.00 Build 0)  -->
<svg version="1.1" id="Calque_1" xmlns="http://www.w3.org/2000/svg" xmlns:xlink="http://www.w3.org/1999/xlink" x="0px"
	y="0px" viewBox="0 0 412.02 548.83" style="enable-background:new 0 0 412.02 548.83;" xml:space="preserve">
	<style type="text/css">
		.st0 {
			fill: currentColor;
		}
	</style>
	<path class="st0" d="M411.89,391.77c0.01-2.99-0.83-3.7-3.74-3.69c-29.61,0.11-59.23,0.11-88.84,0.04
	c-8.67-0.02-15.02-4.46-18.94-11.86c-4.02-7.59-3.61-15.39,1.16-22.68c5.08-7.77,12.78-10.27,21.59-10.27
	c28.11-0.02,56.23-0.08,84.34,0.09c3.69,0.02,4.45-0.99,4.44-4.54c-0.11-73.35-0.1-146.7-0.06-220.05
	c0.01-9.88-0.76-19.62-2.91-29.3c-5.57-24.95-18.14-45.69-37.53-62.16C348.12,7.57,321.01-1.22,290.56,0.53
	C278.15,1.24,268,6.8,259.74,15.97c-5.92,6.57-8.52,14.72-11.39,22.86c-8.43,23.86-35.44,36.02-58.73,26.66
	c-14.27-5.73-23.07-16.39-27.5-30.99c-5.39-17.79-16.96-29.5-35.32-33.19c-12.95-2.6-26.02-1.03-38.83,1.98
	c-11.95,2.81-23.28,7.23-33.59,13.96C20.25,39.51,1.23,70.77,0.38,111.74c-0.76,36.97-0.16,73.97-0.16,110.96
	c0,38.86,0.05,77.73-0.08,116.59c-0.01,3.35,0.87,4.1,4.13,4.09c28.11-0.14,56.23-0.1,84.34-0.06c5,0.01,9.89,0.62,14.39,3.19
	c8.14,4.65,12.98,15.24,10.74,23.87c-2.84,10.96-11.06,17.76-21.5,17.76c-29.11,0.01-58.23,0.1-87.34-0.11
	c-4.09-0.03-4.79,1.24-4.77,4.97c0.15,28.86,0.13,57.73,0.07,86.6c-0.04,19.43,6.68,36.08,20.51,49.67
	c12.07,11.86,26.54,18.91,43.66,19.25c17.73,0.35,35.48-0.09,53.22,0.29c20.5,0.44,39.11-14.5,44.53-33.83
	c5.39-19.2,17.83-30.82,37.81-34.01c11.4-1.82,21.72,0.83,31.17,7.12c9.76,6.5,15.84,15.69,18.86,26.94
	c5.25,19.57,24.1,34.25,44.48,33.79c16.11-0.36,32.24-0.2,48.35-0.04c15.65,0.16,29.68-4.43,42.01-13.96
	c16.62-12.84,26.29-29.89,26.81-50.82C412.39,453.27,411.78,422.51,411.89,391.77z M245.6,380.56c-4.45,5.15-10.09,7.82-17.09,7.63
	c-7.49-0.2-14.98-0.05-22.47-0.05c-7.62,0-15.25-0.33-22.84,0.08c-10.43,0.56-22.03-8.42-22.44-21.84
	c-0.38-12.45,9.33-21.97,19.97-22.55c17.32-0.94,34.67-1.31,51.95,0.2c8.44,0.74,14.2,6.31,17.14,14.28
	C252.82,366.49,251.25,374.02,245.6,380.56z" />
</svg>