<?xml version="1.0" encoding="utf-8"?>
<!-- Generator: Adobe Illustrator 24.0.0, SVG Export Plug-In . SVG Version: 6.00 Build 0)  -->
<svg version="1.1" id="Calque_1" xmlns="http://www.w3.org/2000/svg" xmlns:xlink="http://www.w3.org/1999/xlink" x="0px" y="0px"
	 viewBox="0 0 512 512" style="enable-background:new 0 0 512 512;" xml:space="preserve">
<style type="text/css">
	.st0{fill:#FFFFFF00;}
</style>
<g>
	<g>
		<path d="M512,439c0,10,0,20,0,30c-0.35,1.06-0.78,2.1-1.04,3.18c-4.78,19.21-16.44,31.98-35.43,37.89
			c-2.17,0.67-4.35,1.29-6.52,1.93c-115.33,0-230.67,0-346,0c-2.83-0.84-5.69-1.6-8.49-2.52c-21.27-6.97-34.5-25.98-34.5-49.71
			C79.99,335.44,80,211.11,80,86.78c0-2.12,0-4.23,0-6.78c-2.31,0-4.1,0-5.9,0c-20.17,0-40.33-0.18-60.5,0.11
			C7.45,80.2,2.94,78.43,0,73c0-10,0-20,0-30c0.35-1.07,0.79-2.12,1.04-3.21C4.43,25.01,12.6,13.62,25.87,6.39
			C31.17,3.5,37.27,2.08,43,0c115.33,0,230.67,0,346,0c0.26,0.2,0.49,0.51,0.78,0.58C418.18,7.57,432,25.25,432,54.65
			c0,123.55,0,247.1,0,370.66c0,2.11,0,4.21,0,6.7c2.38,0,4.18,0,5.97,0c20.15,0,40.3,0.18,60.44-0.11
			C504.57,431.8,509.06,433.6,512,439z M412,432c0-1.73,0-2.71,0-3.7c0-125.82,0.02-251.65-0.03-377.47
			c-0.01-17.96-12.99-30.81-30.99-30.81C285.49,19.98,190,20,94.5,20.01c-1.21,0-2.43,0.2-4.28,0.37c8.48,11.6,9.89,24.22,9.87,37.5
			C99.92,157.54,100,257.2,100,356.86c0,35-0.08,69.99,0.04,104.99c0.06,16.81,13.26,30.02,29.69,30.13
			c16.7,0.12,29.98-13.07,30.25-30.1c0.09-5.66,0.01-11.33,0.02-17c0.02-9.56,3.35-12.88,12.97-12.88c38.33-0.01,76.66,0,114.99,0
			c1.17,0,2.34-0.05,3.5,0.05c5.44,0.48,9.41,4.59,9.49,9.78c0.09,5.37-4,9.67-9.67,10.12c-1.49,0.12-3,0.05-4.5,0.05
			c-33.66,0-67.33,0-100.99,0c-1.78,0-3.57,0-5.98,0c1.1,14.38-0.84,27.66-9.83,40c2.6,0,4.19,0,5.78,0c14.5,0,29,0,43.5,0
			c80.49,0,160.99-0.12,241.48,0.09c18.23,0.05,35.71-15.14,30.4-40.09c-35.96,0-71.96,0.01-107.95-0.01
			c-7.62,0-12.26-3.93-12.16-10.16c0.1-6.05,4.62-9.8,11.98-9.82C392.48,431.97,401.95,432,412,432z M79.51,59.9
			c2.17-16.89-2.84-29.06-14.52-35.84c-10.54-6.12-23.6-5.25-33.32,2.23c-9.73,7.48-14.23,21.37-10.85,33.62
			C40.27,59.9,59.74,59.9,79.51,59.9z"/>
		<path class="st0" d="M512,439c-2.94-5.4-7.43-7.2-13.58-7.11c-20.14,0.29-40.29,0.11-60.44,0.11c-1.8,0-3.6,0-5.97,0
			c0-2.49,0-4.59,0-6.7c0-123.55,0-247.1,0-370.66c0-29.39-13.82-47.08-42.22-54.06C389.49,0.51,389.26,0.2,389,0
			c40.96,0,81.93,0,123,0C512,146.33,512,292.67,512,439z"/>
		<path class="st0" d="M0,73c2.94,5.43,7.45,7.2,13.6,7.11C33.76,79.82,53.93,80,74.1,80c1.8,0,3.59,0,5.9,0c0,2.55,0,4.67,0,6.78
			c0,124.33-0.01,248.66,0.01,372.99c0,23.73,13.23,42.74,34.5,49.71c2.8,0.92,5.66,1.68,8.49,2.52c-41,0-82,0-123,0
			C0,365.67,0,219.33,0,73z"/>
		<path class="st0" d="M43,0c-5.73,2.08-11.83,3.5-17.13,6.39C12.6,13.62,4.43,25.01,1.04,39.79C0.79,40.88,0.35,41.93,0,43
			C0,28.67,0,14.33,0,0C14.33,0,28.67,0,43,0z"/>
		<path class="st0" d="M469,512c2.18-0.64,4.36-1.26,6.52-1.93c19-5.91,30.66-18.68,35.43-37.89c0.27-1.08,0.69-2.12,1.04-3.18
			c0,14.33,0,28.67,0,43C497.67,512,483.33,512,469,512z"/>
		<path class="st0" d="M412,432c-10.05,0-19.52-0.03-28.98,0.01c-7.36,0.03-11.88,3.77-11.98,9.82c-0.1,6.23,4.53,10.15,12.16,10.16
			c35.99,0.02,71.99,0.01,107.95,0.01c5.31,24.95-12.17,40.14-30.4,40.09c-80.49-0.21-160.99-0.09-241.48-0.09c-14.5,0-29,0-43.5,0
			c-1.59,0-3.18,0-5.78,0c8.99-12.34,10.93-25.62,9.83-40c2.42,0,4.2,0,5.98,0c33.66,0,67.33,0,100.99,0c1.5,0,3.01,0.07,4.5-0.05
			c5.67-0.44,9.76-4.75,9.67-10.12c-0.09-5.18-4.06-9.3-9.49-9.78c-1.16-0.1-2.33-0.05-3.5-0.05c-38.33,0-76.66-0.01-114.99,0
			c-9.63,0-12.95,3.32-12.97,12.88c-0.01,5.67,0.07,11.33-0.02,17c-0.27,17.03-13.55,30.22-30.25,30.1
			c-16.42-0.12-29.63-13.32-29.69-30.13c-0.12-35-0.04-69.99-0.04-104.99c0-99.66-0.08-199.32,0.09-298.98
			c0.02-13.28-1.38-25.9-9.87-37.5c1.85-0.17,3.07-0.37,4.28-0.37c95.49-0.01,190.98-0.03,286.48,0c18,0.01,30.98,12.86,30.99,30.81
			C412.02,176.65,412,302.48,412,428.3C412,429.29,412,430.27,412,432z M288.58,76.93c-3.33-24.32-12.87-35.76-30.34-36.85
			c-7.58-0.47-14.53,1.46-20.73,5.86c-10.58,7.51-14.17,18.33-13.75,30.99c-4.45,0-8.28-0.07-12.09,0.01
			c-8.29,0.18-15.02,5.71-16.71,13.79c-0.51,2.43-0.71,4.94-0.92,7.43c-2.24,26.56-4.33,53.13-6.73,79.67
			c-1.29,14.33,5.5,22.16,19.94,22.16c32.5,0.01,65,0.01,97.49,0c14.44,0,21.32-7.85,19.93-22.16c-1.42-14.59-2.47-29.21-3.72-43.82
			c-1.21-14.1-2.16-28.24-3.84-42.29c-1.09-9.08-8.2-14.65-17.29-14.79C296.17,76.88,292.52,76.93,288.58,76.93z M256.07,240
			c-37.3,0-74.6,0-111.9,0c-9.44,0-14.26,3.47-14.13,10.17c0.12,6.52,4.83,9.82,13.99,9.82c74.6,0,149.2,0,223.8,0
			c1.66,0,3.34,0.1,4.99-0.08c5.34-0.58,9.23-4.93,9.14-10.1c-0.09-4.97-3.88-9.13-9-9.72c-1.65-0.19-3.33-0.09-4.99-0.09
			C330.67,240,293.37,240,256.07,240z M256.04,288c-37.3,0-74.6,0-111.9,0c-9.39,0-14.25,3.52-14.1,10.2
			c0.14,6.51,4.84,9.8,14.01,9.8c74.6,0,149.2,0,223.8,0c1.66,0,3.34,0.1,4.99-0.08c5.34-0.59,9.22-4.96,9.11-10.12
			c-0.1-4.97-3.9-9.12-9.02-9.7c-1.65-0.19-3.33-0.09-4.99-0.09C330.64,288,293.34,288,256.04,288z M255.97,336
			c-37.3,0-74.6,0-111.9,0c-1.66,0-3.35-0.1-4.99,0.09c-5.13,0.58-8.92,4.71-9.04,9.69c-0.11,5.17,3.76,9.53,9.1,10.14
			c1.48,0.17,2.99,0.08,4.49,0.08c74.93,0,149.87,0,224.8,0c1.66,0,3.35,0.1,4.99-0.15c5.05-0.77,8.69-5.17,8.54-10.13
			c-0.14-4.78-3.74-8.86-8.61-9.57c-1.64-0.24-3.32-0.14-4.99-0.14C330.9,336,293.43,336,255.97,336z M256.51,384
			c-37.63,0-75.27,0-112.9,0c-1.66,0-3.35-0.1-4.99,0.14c-4.87,0.71-8.46,4.8-8.59,9.58c-0.13,4.97,3.5,9.34,8.56,10.11
			c1.63,0.25,3.32,0.15,4.99,0.15c74.93,0.01,149.87,0.01,224.8,0c1.5,0,3.01,0.09,4.49-0.08c5.33-0.61,9.21-4.99,9.08-10.15
			c-0.12-4.97-3.93-9.1-9.06-9.67c-1.65-0.18-3.33-0.09-4.99-0.09C330.78,384,293.65,384,256.51,384z M151.26,148.23
			c3.99,0,7.99,0.21,11.95-0.05c5.11-0.34,8.64-4.08,8.96-8.99c0.34-5.25-2.71-9.98-7.93-10.32c-8.59-0.56-17.26-0.55-25.85-0.07
			c-5.22,0.29-8.59,5.07-8.35,10.08c0.25,5.06,3.96,8.98,9.26,9.31C143.27,148.44,147.27,148.24,151.26,148.23z M360.62,148.26
			c0,0.01,0,0.02,0,0.03c3.82,0,7.65,0.15,11.46-0.03c5.66-0.27,9.54-4.03,9.86-9.27c0.32-5.17-3.23-9.97-8.73-10.28
			c-8.27-0.47-16.61-0.47-24.87,0.02c-5.57,0.33-8.83,4.91-8.53,10.34c0.28,5.1,3.95,8.83,9.35,9.14
			C352.97,148.44,356.8,148.26,360.62,148.26z M345.96,442.2c0.12-5.31-4.18-9.91-9.51-10.17c-5.51-0.26-10.3,4.22-10.42,9.75
			c-0.11,5.32,4.18,9.91,9.5,10.17C341.03,452.22,345.84,447.72,345.96,442.2z"/>
		<path class="st0" d="M79.51,59.9c-19.77,0-39.24,0-58.69,0c-3.38-12.24,1.12-26.14,10.85-33.62c9.72-7.48,22.78-8.35,33.32-2.23
			C76.67,30.85,81.69,43.01,79.51,59.9z"/>
		<path d="M288.58,76.93c3.93,0,7.58-0.05,11.24,0.01c9.1,0.14,16.21,5.71,17.29,14.79c1.68,14.05,2.63,28.19,3.84,42.29
			c1.25,14.6,2.3,29.23,3.72,43.82c1.39,14.32-5.49,22.16-19.93,22.16c-32.5,0.01-65,0.01-97.49,0c-14.44,0-21.23-7.83-19.94-22.16
			c2.4-26.54,4.49-53.11,6.73-79.67c0.21-2.49,0.41-5,0.92-7.43c1.69-8.08,8.42-13.6,16.71-13.79c3.82-0.08,7.64-0.01,12.09-0.01
			c-0.42-12.66,3.17-23.48,13.75-30.99c6.2-4.4,13.14-6.34,20.73-5.86C275.71,41.16,285.26,52.61,288.58,76.93z M304.66,179.74
			c-2.31-27.73-4.6-55.16-6.88-82.49c-7.65-0.67-7.65-0.67-12.85,4.2c-3.79,3.55-10.7,4.1-13.38-0.13c-3.1-4.9-7.07-4.45-11.46-4.41
			c-4.16,0.04-8.36-0.29-12.48,0.14c-1.92,0.2-4.21,1.36-5.43,2.84c-4.22,5.12-12.08,6.19-15.48,0.85
			c-3.63-5.7-7.98-3.38-12.49-3.57c-2.31,27.9-4.57,55.17-6.85,82.57C240.09,179.74,272.17,179.74,304.66,179.74z M267.76,76.73
			c0.97-6.53-0.23-11.82-5.87-15.1c-4.43-2.57-8.99-2.22-13.07,0.87c-4.76,3.61-5.61,8.55-4.45,14.23
			C252.24,76.73,259.82,76.73,267.76,76.73z"/>
		<path d="M256.07,240c37.3,0,74.6,0,111.9,0c1.66,0,3.35-0.1,4.99,0.09c5.12,0.59,8.91,4.75,9,9.72c0.09,5.17-3.79,9.52-9.14,10.1
			c-1.65,0.18-3.33,0.08-4.99,0.08c-74.6,0-149.2,0-223.8,0c-9.16,0-13.87-3.31-13.99-9.82c-0.13-6.7,4.69-10.17,14.13-10.17
			C181.47,240,218.77,240,256.07,240z"/>
		<path d="M256.04,288c37.3,0,74.6,0,111.9,0c1.66,0,3.35-0.1,4.99,0.09c5.12,0.58,8.92,4.72,9.02,9.7
			c0.11,5.16-3.78,9.54-9.11,10.12c-1.65,0.18-3.33,0.08-4.99,0.08c-74.6,0-149.2,0-223.8,0c-9.18,0-13.87-3.29-14.01-9.8
			c-0.14-6.68,4.71-10.2,14.1-10.2C181.44,288,218.74,288,256.04,288z"/>
		<path d="M255.97,336c37.47,0,74.93,0,112.4,0c1.66,0,3.35-0.1,4.99,0.14c4.86,0.7,8.47,4.79,8.61,9.57
			c0.14,4.96-3.49,9.36-8.54,10.13c-1.63,0.25-3.32,0.15-4.99,0.15c-74.93,0.01-149.87,0.01-224.8,0c-1.5,0-3.01,0.08-4.49-0.08
			c-5.34-0.6-9.21-4.97-9.1-10.14c0.11-4.98,3.9-9.11,9.04-9.69c1.65-0.19,3.33-0.09,4.99-0.09C181.37,336,218.67,336,255.97,336z"
			/>
		<path d="M256.51,384c37.13,0,74.27,0,111.4,0c1.66,0,3.34-0.1,4.99,0.09c5.13,0.57,8.93,4.7,9.06,9.67
			c0.13,5.16-3.75,9.55-9.08,10.15c-1.48,0.17-2.99,0.08-4.49,0.08c-74.93,0-149.87,0-224.8,0c-1.66,0-3.35,0.1-4.99-0.15
			c-5.06-0.77-8.69-5.14-8.56-10.11c0.13-4.78,3.72-8.87,8.59-9.58c1.63-0.24,3.32-0.14,4.99-0.14C181.24,384,218.88,384,256.51,384
			z"/>
		<path d="M151.26,148.24c-3.99,0.01-7.99,0.21-11.96-0.04c-5.29-0.33-9.01-4.26-9.26-9.31c-0.24-5.01,3.13-9.78,8.35-10.08
			c8.59-0.48,17.26-0.49,25.85,0.07c5.22,0.34,8.28,5.07,7.93,10.32c-0.32,4.91-3.85,8.65-8.96,8.99
			C159.24,148.44,155.24,148.23,151.26,148.24z"/>
		<path d="M360.62,148.26c-3.82,0-7.65,0.18-11.46-0.04c-5.4-0.31-9.07-4.05-9.35-9.14c-0.3-5.44,2.96-10.01,8.53-10.34
			c8.27-0.49,16.6-0.48,24.87-0.02c5.49,0.31,9.04,5.11,8.73,10.28c-0.32,5.24-4.2,9-9.86,9.27c-3.81,0.18-7.64,0.03-11.46,0.03
			C360.62,148.28,360.62,148.27,360.62,148.26z"/>
		<path d="M345.96,442.2c-0.12,5.52-4.93,10.02-10.42,9.75c-5.33-0.26-9.61-4.85-9.5-10.17c0.12-5.53,4.91-10.01,10.42-9.75
			C341.78,432.29,346.08,436.89,345.96,442.2z"/>
		<path class="st0" d="M304.66,179.74c-32.49,0-64.57,0-97.31,0c2.27-27.4,4.53-54.67,6.85-82.57c4.51,0.19,8.86-2.12,12.49,3.57
			c3.4,5.34,11.26,4.27,15.48-0.85c1.22-1.48,3.51-2.64,5.43-2.84c4.12-0.43,8.31-0.1,12.48-0.14c4.39-0.04,8.36-0.49,11.46,4.41
			c2.68,4.24,9.6,3.68,13.38,0.13c5.21-4.88,5.21-4.88,12.85-4.2C300.06,124.58,302.35,152.02,304.66,179.74z"/>
		<path class="st0" d="M267.76,76.73c-7.94,0-15.52,0-23.39,0c-1.16-5.68-0.32-10.62,4.45-14.23c4.08-3.09,8.64-3.44,13.07-0.87
			C267.53,64.91,268.73,70.2,267.76,76.73z"/>
	</g>
</g>
</svg>
