<?xml version="1.0" encoding="utf-8"?>
<!-- Generator: Adobe Illustrator 24.0.0, SVG Export Plug-In . SVG Version: 6.00 Build 0)  -->
<svg version="1.1" id="Calque_1" xmlns="http://www.w3.org/2000/svg" xmlns:xlink="http://www.w3.org/1999/xlink" x="0px"
	y="0px" viewBox="328 140 420 485" style="enable-background:new 0 0 1080 750;" xml:space="preserve">
	<g>
		<path d="M501.6,535.97c-1.79,0-3.13,0-4.46,0c-15.12,0-30.25,0.02-45.37-0.01c-11.59-0.02-18.69-7.09-18.7-18.66
		c-0.02-44.68-0.08-89.37,0.02-134.05c0.06-30.21,22.43-52.54,52.61-52.57c67.75-0.06,135.5-0.07,203.25,0
		c30.03,0.03,52.49,22.33,52.53,52.26c0.09,73.39,0.05,146.78,0.01,220.17c-0.01,14.61-12.82,22.41-26.02,15.93
		c-7.51-3.69-15-7.39-22.44-11.22c-2.1-1.08-3.82-1.05-5.93,0.04c-7.31,3.79-14.78,7.27-22.09,11.06
		c-6.14,3.19-12.1,3.24-18.26,0.06c-7.1-3.67-14.35-7.02-21.43-10.72c-2.55-1.33-4.6-1.53-7.27-0.12
		c-7.27,3.86-14.75,7.32-22.11,11.03c-5.78,2.92-11.46,2.95-17.25,0.02c-7.35-3.72-14.79-7.25-22.1-11.05
		c-2.43-1.26-4.37-1.45-6.93-0.1c-7.27,3.86-14.71,7.42-22.11,11.02c-13.16,6.41-25.9-1.51-25.93-16.15
		c-0.04-20.72-0.01-41.44-0.01-62.16C501.6,539.32,501.6,537.86,501.6,535.97z M532.99,364.91c4.48,14.09,2.79,28.01,2.83,41.8
		c0.16,54.79,0.07,109.57,0.07,164.36c0,1.59,0,3.18,0,5.41c2.75-1.26,4.96-2.07,6.96-3.24c6.77-3.96,13.37-3.8,20.26-0.08
		c7.13,3.85,14.46,7.34,21.82,10.76c1.33,0.62,3.44,0.62,4.77,0c7.58-3.53,15.11-7.18,22.5-11.09c6.28-3.33,12.32-3.32,18.59-0.09
		c7.32,3.78,14.77,7.29,22.09,11.07c2.1,1.08,3.8,1.12,5.92,0.02c7.21-3.73,14.61-7.08,21.76-10.91c6.4-3.43,12.57-3.51,18.92-0.09
		c2.34,1.26,4.81,2.28,7.72,3.64c0-1.89,0-3.01,0-4.12c0-62.9,0.01-125.8-0.01-188.7c0-11.77-7.06-18.73-18.97-18.73
		c-50.24-0.01-100.49-0.01-150.73-0.01C536.14,364.91,534.81,364.91,532.99,364.91z M501.6,501.5c0-1.9,0-3.38,0-4.85
		c0-24.07,0-48.14,0-72.21c0-14.09,0.05-28.19-0.03-42.28c-0.04-7.38-4.63-13.87-11.19-16.18c-11.53-4.05-22.97,4.03-22.99,16.46
		c-0.07,38.66-0.03,77.33-0.02,115.99c0,0.96,0.16,1.93,0.26,3.08C478.91,501.5,489.98,501.5,501.6,501.5z" />
		<path
			d="M553,177.43c0,1.08,0,2.41,0,3.74c0,9.86,0.08,19.72-0.03,29.58c-0.21,19.46-15.08,34.28-34.6,34.37
		c-22.62,0.1-45.25,0.11-67.87,0c-19.49-0.09-34.35-14.96-34.53-34.43c-0.1-11.1-0.02-22.19-0.02-33.89
		c-11.87,0.18-23.67-1.91-34.44,4.63c-9.05,5.5-14.59,13.46-16.43,23.88c-0.41,2.32-0.5,4.71-0.5,7.07
		c-0.02,113.07-0.03,226.14-0.01,339.22c0,20.91,14.7,35.61,35.59,35.67c16.75,0.05,33.5-0.05,50.25,0.06
		c7.91,0.05,14.26,5.21,16.41,12.92c1.91,6.84-1,14.66-7.49,18.42c-2.69,1.56-6.07,2.65-9.15,2.69
		c-17.87,0.24-35.75,0.34-53.62,0.04c-35.47-0.58-65.42-30.51-66.26-65.97c-0.16-6.86-0.05-13.73-0.05-20.59
		c0-107.71-0.1-215.41,0.07-323.12c0.04-27.29,12.62-47.72,36.3-61.17c9.49-5.39,19.92-8,30.87-8.01
		c58-0.05,115.99-0.21,173.99,0.04c36.23,0.16,66.48,30.06,67.11,66.18c0.41,23.46,0.17,46.93,0.07,70.39
		c-0.04,9.91-7.77,17.4-17.39,17.29c-9.37-0.11-16.82-7.71-16.85-17.46c-0.06-21.97-0.01-43.93-0.03-65.9
		c-0.02-21.9-14.49-36.34-36.4-36.37c-4.62-0.01-9.24,0.07-13.86,0.14C553.91,176.85,553.69,177.06,553,177.43z M450.43,210.6
		c22.91,0,45.45,0,68.07,0c0-11.35,0-22.39,0-33.65c-22.78,0-45.32,0-68.07,0C450.43,188.26,450.43,199.3,450.43,210.6z" />
	</g>
</svg>