<svg width="30px" height="29px" viewBox="0 0 30 29" version="1.1"
  xmlns="http://www.w3.org/2000/svg"
  xmlns:xlink="http://www.w3.org/1999/xlink">
  <g id="Symbols" stroke="none" stroke-width="1" fill="none" fill-rule="evenodd">
    <g id="environment" transform="translate(-10.000000, -193.000000)" fill="#000000" fill-rule="nonzero">
      <g id="eau" transform="translate(10.000000, 178.000000)">
        <g id="Group" transform="translate(0.000000, 15.000000)">
          <rect id="Rectangle" x="0" y="17" width="5" height="12" rx="1"></rect>
          <path d="M29.8003156,21.3173184 C28.7654213,19.897816 27.0152036,19.3010531 25.3961215,19.8156425 L25.3961215,19.8156425 L22.872228,20.673743 C22.6080114,20.7620202 22.4288695,21.0230485 22.4305466,21.3173184 C22.449226,22.1302535 22.152638,22.9156202 21.6102812,23.4893855 C21.0831728,24.0726781 20.3521842,24.3979022 19.5911664,24.3877095 L12.9533266,24.3877095 C12.6048496,24.3877095 12.3223532,24.0875652 12.3223532,23.7173184 C12.3290669,23.3500669 12.6076687,23.0540605 12.9533266,23.0469274 L19.578547,23.0469274 C20.4497394,23.0469274 21.1559804,22.2965666 21.1559804,21.3709497 C21.1559804,20.4453328 20.4497394,19.6949721 19.578547,19.6949721 L14.934583,19.6949721 C14.6757848,19.5504856 14.4306781,19.3798664 14.2026538,19.1854749 C12.7873592,17.89516 11.0158837,17.1281872 9.15486686,17 L6.63097337,17 C6.2824964,17 6,17.3001443 6,17.6703911 L6,25.5810056 C6.00044477,25.8703781 6.17227985,26.1281238 6.42906189,26.224581 L8.85199964,27.1094972 C12.1583001,28.3296089 14.0007424,29 15.6791315,29 C17.7361047,29 19.5280691,27.9944134 23.4274845,25.7955307 C25.0427764,24.8837989 27.0618912,23.7441341 29.6236431,22.3765363 C29.81017,22.2998576 29.9477631,22.1284639 29.9896076,21.9206704 C30.0284415,21.6983439 29.9569352,21.4704237 29.8003156,21.3173184 Z" id="Path"></path>
          <path d="M20,16.9984217 C21.6017936,17.0362541 23.1488038,16.3925744 24.2817362,15.2168779 C25.4146686,14.0411814 26.0349354,12.4357772 25.9984791,10.7735217 C25.9984791,8.1341641 22.855276,3.21649312 20.9717536,0.51488653 C20.7461324,0.191486505 20.3847369,0 20,0 C19.6152631,0 19.2538676,0.191486505 19.0282464,0.51488653 C17.1567209,3.21649312 14.0015209,8.1341641 14.0015209,10.7735217 C13.9650646,12.4357772 14.5853314,14.0411814 15.7182638,15.2168779 C16.8511962,16.3925744 18.3982064,17.0362541 20,16.9984217 L20,16.9984217 Z M15.5333333,11 C15.8278852,11 16.0666667,11.2984768 16.0666667,11.6666667 C16.0666667,13.3235209 17.1411833,14.6666667 18.4666667,14.6666667 C18.7612185,14.6666667 19,14.9651435 19,15.3333333 C19,15.7015232 18.7612185,16 18.4666667,16 C16.5520795,16 15,14.0599006 15,11.6666667 C15,11.2984768 15.2387815,11 15.5333333,11 Z" id="Shape"></path>
        </g>
      </g>
    </g>
  </g>
</svg>