<svg viewBox="0 0 24 25" fill="none" xmlns="http://www.w3.org/2000/svg">
<path d="M0.799814 12.5L0.0574138 12.2024C-0.0191379 12.3934 -0.0191379 12.6066 0.0574138 12.7976L0.799814 12.5ZM23.1998 12.5L23.9422 12.7976C24.0188 12.6066 24.0188 12.3934 23.9422 12.2024L23.1998 12.5ZM11.9998 19.7C8.29741 19.7 5.69741 17.8568 3.99501 15.9656C3.06477 14.9251 2.28444 13.7597 1.67661 12.5032C1.63208 12.4081 1.58941 12.312 1.54861 12.2152L1.54221 12.204L0.799814 12.5L0.0574138 12.7976V12.8008L0.0622138 12.8072C0.0755361 12.841 0.0894046 12.8746 0.103814 12.908L0.228614 13.1848C0.903024 14.5822 1.77014 15.878 2.80461 17.0344C4.70381 19.1448 7.70221 21.3 11.9998 21.3V19.7ZM0.799814 12.5L1.54221 12.7976L1.54861 12.7848C1.58766 12.6872 1.63035 12.5912 1.67661 12.4968C2.28444 11.2404 3.06477 10.075 3.99501 9.03441C5.69581 7.14321 8.29741 5.30001 11.9998 5.30001V3.70001C7.70221 3.70001 4.70221 5.85681 2.80461 7.96561C1.77012 9.12201 0.903006 10.4178 0.228614 11.8152C0.17047 11.9399 0.114991 12.0658 0.0622138 12.1928L0.0590138 12.1992V12.2008H0.0558138L0.799814 12.5ZM11.9998 5.30001C15.7022 5.30001 18.3022 7.14321 20.0046 9.03441C20.9348 10.075 21.7152 11.2404 22.323 12.4968C22.3677 12.5919 22.4104 12.6879 22.451 12.7848L22.4574 12.796L23.1998 12.5L23.9422 12.2024V12.1992L23.9374 12.1928C23.9253 12.1585 23.9114 12.1249 23.8958 12.092C23.7076 11.6701 23.4993 11.2573 23.2718 10.8552C22.6852 9.82031 21.9889 8.85154 21.195 7.96561C19.2958 5.85681 16.2974 3.70001 11.9998 3.70001V5.30001ZM23.1998 12.5C22.952 12.4017 22.7045 12.3025 22.4574 12.2024L22.4526 12.2152L22.4286 12.2712L22.323 12.5032C21.7152 13.7596 20.9348 14.925 20.0046 15.9656C18.3038 17.8568 15.7022 19.7 11.9998 19.7V21.3C16.2974 21.3 19.2974 19.1432 21.195 17.036C22.2296 15.8791 23.0968 14.5828 23.771 13.1848C23.8291 13.0601 23.8846 12.9342 23.9374 12.8072L23.9406 12.8008V12.7992L23.9422 12.7976L23.1998 12.5ZM11.9998 14.9C11.3633 14.9 10.7528 14.6472 10.3028 14.1971C9.85267 13.747 9.59981 13.1365 9.59981 12.5H7.99981C7.99981 13.5609 8.42124 14.5783 9.17139 15.3284C9.92153 16.0786 10.9389 16.5 11.9998 16.5V14.9ZM14.3998 12.5C14.3998 13.1365 14.147 13.747 13.6969 14.1971C13.2468 14.6472 12.6363 14.9 11.9998 14.9V16.5C13.0607 16.5 14.0781 16.0786 14.8282 15.3284C15.5784 14.5783 15.9998 13.5609 15.9998 12.5H14.3998ZM11.9998 10.1C12.6363 10.1 13.2468 10.3529 13.6969 10.803C14.147 11.253 14.3998 11.8635 14.3998 12.5H15.9998C15.9998 11.4391 15.5784 10.4217 14.8282 9.67159C14.0781 8.92144 13.0607 8.50001 11.9998 8.50001V10.1ZM11.9998 8.50001C10.9389 8.50001 9.92153 8.92144 9.17139 9.67159C8.42124 10.4217 7.99981 11.4391 7.99981 12.5H9.59981C9.59981 11.8635 9.85267 11.253 10.3028 10.803C10.7528 10.3529 11.3633 10.1 11.9998 10.1V8.50001Z" fill="black"/>
</svg>
