<svg width="30px" height="30px" viewBox="0 0 30 30" version="1.1"
  xmlns="http://www.w3.org/2000/svg"
  xmlns:xlink="http://www.w3.org/1999/xlink">
  <g id="Symbols" stroke="none" stroke-width="1" fill="none" fill-rule="evenodd">
    <g id="environment" transform="translate(-10.000000, -285.000000)" fill="#000000" fill-rule="nonzero">
      <g id="eutrophisation" transform="translate(10.000000, 270.000000)">
        <g id="Group" transform="translate(0.000000, 15.000000)">
          <path d="M29.4639972,23.1460706 C29.6745986,23.1361283 29.8625527,23.0100998 29.9526779,22.8183967 C30.0438555,22.6104188 30.0009425,22.3676352 29.8440822,22.2040082 C27.7264659,20.0741279 24.943701,19.3095555 22.6496167,20.7294757 L21.8079999,19.8693318 C21.6786547,19.736609 21.6786547,19.5241968 21.8079999,19.391474 L22.5410209,18.6405547 C23.0673349,18.1080335 23.0673349,17.2479918 22.5410209,16.7154706 C22.011566,16.1861086 21.1564765,16.1861086 20.6270216,16.7154706 L19.8940006,17.4527369 C19.8300366,17.519484 19.7418308,17.5571918 19.6496603,17.5571918 C19.5574897,17.5571918 19.4692839,17.519484 19.4053199,17.4527369 L18.9302137,16.9748791 C18.8645966,16.9129397 18.8273745,16.8264605 18.8273745,16.7359502 C18.8273745,16.6454399 18.8645966,16.5589608 18.9302137,16.4970214 L21.0885534,14.3125288 C21.6148673,13.7800076 21.6148673,12.9199659 21.0885534,12.3874447 C20.8336703,12.1289747 20.4867126,11.983589 20.1247665,11.983589 C19.7628203,11.983589 19.4158627,12.1289747 19.1609796,12.3874447 L17.0026399,14.5582842 C16.9432737,14.6224908 16.8589778,14.6574019 16.771874,14.6538558 C16.6807144,14.6578192 16.5920802,14.6231507 16.5275337,14.5582842 L16.0524275,14.0804265 C15.9860647,14.0160921 15.948574,13.9273754 15.948574,13.8346711 C15.948574,13.7419667 15.9860647,13.6532501 16.0524275,13.5889156 L16.7854485,12.8516494 C17.1337362,12.3169082 17.0664908,11.6106946 16.6236239,11.152162 C16.1807571,10.6936294 15.4808535,10.6055573 14.9393215,10.9402184 L14.192726,11.6774847 C14.1311432,11.7434817 14.045162,11.7809195 13.9551729,11.7809195 C13.8651838,11.7809195 13.7792026,11.7434817 13.7176198,11.6774847 L12.9845988,10.9402184 L12.9845988,10.9402184 C15.0343427,8.63284815 16.1202998,5.61551779 14.3420451,3.82696451 L3.61821907,0.0177556055 C3.50538728,-0.0211976678 3.38041092,0.00498986258 3.29243195,0.0860209981 C3.20709404,0.171674599 3.1757625,0.297726584 3.21098517,0.413694882 L4.5684315,5.1649662 C4.63819389,5.33842966 4.63410517,5.53309085 4.55712131,5.7034362 C4.48013745,5.87378155 4.33700788,6.00487633 4.1611976,6.06606939 C3.99019713,6.12114764 3.80432074,6.10435173 3.64581929,6.01949947 C3.48731783,5.93464721 3.36965666,5.78894714 3.31958087,5.61551779 L1.96213454,1.21922651 C1.92971289,1.10231474 1.83569433,1.01300518 1.7177942,0.98712418 C1.61791076,0.978763409 1.51920371,1.01351096 1.44630494,1.08269573 C-0.0333115669,2.65279976 -2.02875768,6.22990633 4.94851647,13.2475887 C6.46885637,14.7903866 8.87153637,14.2169573 10.9755782,12.7287717 L11.8036205,13.5889156 C11.9346292,13.7262588 11.9346292,13.9430833 11.8036205,14.0804265 L10.6226421,15.2682443 C10.1614134,15.8099442 10.1924236,16.6174336 10.6938223,17.121736 C11.1952209,17.6260385 11.9980607,17.6572283 12.5366415,17.1933284 L13.7176198,16.0055105 C13.7858176,15.9465101 13.8720489,15.9127815 13.9619601,15.909939 C14.0478872,15.9124668 14.129943,15.9464501 14.192726,16.0055105 L14.6814067,16.4970214 C14.803959,16.6324609 14.803959,16.8394395 14.6814067,16.9748791 L12.523067,19.1320655 C12.0618382,19.6737654 12.0928485,20.4812548 12.5942471,20.9855572 C13.0956458,21.4898597 13.8984856,21.5210495 14.4370663,21.0571496 L16.595406,18.8863101 C16.6636038,18.8273097 16.7498351,18.7935811 16.8397463,18.7907386 C16.9256734,18.7932663 17.0077292,18.8272497 17.0705122,18.8863101 L17.5591929,19.3778209 C17.6159371,19.4422264 17.6494164,19.5240042 17.6542141,19.6099233 C17.651388,19.7003552 17.6178536,19.7870859 17.5591929,19.8556787 L16.3782146,21.0434965 C15.9908318,21.3771639 15.8220933,21.9010715 15.9413746,22.3998192 C16.0606559,22.898567 16.4478251,23.2879784 16.943701,23.4079505 C17.4395769,23.5279226 17.9604678,23.3582069 18.2922139,22.9685806 L19.4731922,21.7807628 C19.6051508,21.6506684 19.8163399,21.6506684 19.9482984,21.7807628 C20.2740856,22.0811305 20.7763407,22.5862944 20.8170641,22.5999475 C19.4596178,24.9209708 20.1519154,27.7061988 22.2695317,29.8360791 C22.430936,29.9951925 22.6705489,30.0433926 22.8803825,29.9589568 C23.0865909,29.8646838 23.2154229,29.6541194 23.2061696,29.4264867 C23.1402956,27.7389792 23.7788894,26.1006236 24.9674691,24.9077536 C26.1560488,23.7148835 27.7863535,23.0761507 29.4639972,23.1460706 Z M10.6690406,7.54998206 C10.3887308,7.82469518 10.0171094,7.98247272 9.62774556,7.99207976 C9.0669581,8.05076344 8.52222339,7.77989864 8.22381003,7.2939845 C7.92539666,6.80807035 7.92539666,6.19192965 8.22381003,5.7060155 C8.52222339,5.22010136 9.0669581,4.94923656 9.62774556,5.00792024 L9.62774556,5.00792024 C10.1857578,5.07474127 10.6648192,5.44234101 10.8806963,5.96935102 C11.0965734,6.49636103 11.0156476,7.10070985 10.6690406,7.54998206 Z" id="Shape"></path>
        </g>
      </g>
    </g>
  </g>
</svg>