<svg width="25px" height="25px" viewBox="0 0 25 25" version="1.1"
  xmlns="http://www.w3.org/2000/svg"
  xmlns:xlink="http://www.w3.org/1999/xlink">
  <g id="Symbols" stroke="none" stroke-width="1" fill="none" fill-rule="evenodd">
    <g id="environment" transform="translate(-10.000000, -376.000000)" fill="#000000" fill-rule="nonzero">
      <g id="fossile" transform="translate(10.000000, 361.000000)">
        <g id="Group" transform="translate(0.000000, 15.000000)">
          <path d="M6.46344818,7.79580185 C6.55661968,7.92801926 6.70523819,8.00416148 6.8616701,7.99982421 C6.96512011,7.99534622 7.06483054,7.95789671 7.14757302,7.89244402 L8.80172564,6.58240569 C8.9059033,6.49364015 8.97503767,6.36736498 8.99573119,6.22805106 C9.01322965,6.08660968 8.9764912,5.94365905 8.893623,5.83074436 L8.2299198,4.91801274 C6.02438298,1.86841532 4.69697656,0 1.02108186,0 C0.75321137,0.00118614472 0.496511917,0.113023918 0.306324558,0.311402553 C0.11144532,0.512280218 0.00113281317,0.786832754 0,1.07380191 L0,2.14760381 C0,2.74064823 0.457153921,3.22140572 1.02108186,3.22140572 C3.42062423,3.22140572 4.08432744,4.29520763 5.36067977,6.18509899 C5.67721514,6.67904786 6.0345938,7.21594882 6.46344818,7.79580185 Z" id="Path"></path>
          <path d="M22.368425,1 L13.9473851,1 C12.4940064,1 11.3158101,2.16795283 11.3158101,3.60869565 L11.3158101,6.49913043 L5.94739715,10.933913 C5.34499939,11.4274926 4.99736909,12.1626562 5.000015,12.9373913 L5.000015,23.4347826 C5.000015,24.2992283 5.70694791,25 6.57897515,25 L23.421055,25 C24.2930823,25 25,24.2992283 25,23.4347826 L25,3.60869565 C25,2.91682655 24.7227456,2.2532946 24.2292295,1.76406927 C23.7357135,1.27484393 23.0663621,1 22.368425,1 Z M16.4017321,16.4141327 L19.6445153,19.6754497 C19.9484778,19.9786151 19.9484778,20.4697434 19.6445153,20.7729088 C19.3401744,21.0756971 18.8471415,21.0756971 18.5428005,20.7729088 L15.3000173,17.5115918 C15.0979444,17.3142858 14.7745428,17.3142858 14.5724698,17.5115918 L11.3296867,20.7107884 C11.0253457,21.0135768 10.5323128,21.0135768 10.2279719,20.7107884 C9.92400938,20.4076231 9.92400938,19.9164947 10.2279719,19.6133294 L13.470755,16.3830725 C13.6688261,16.1817802 13.6688261,15.8596278 13.470755,15.6583354 L10.2279719,12.4280786 C10.0503609,12.1169003 10.1093093,11.7250973 10.3706958,11.4794589 C10.6320822,11.2338204 11.0281688,11.1980033 11.3296867,11.3927398 L14.5724698,14.6229967 C14.7745428,14.8203027 15.0979444,14.8203027 15.3000173,14.6229967 L18.5428005,11.3927398 C18.7026575,11.1126671 19.019528,10.9600181 19.3391802,11.0090923 C19.6588324,11.0581666 19.9148601,11.2987692 19.9826459,11.6137906 C20.0504317,11.928812 19.9158934,12.252808 19.6445153,12.4280786 L16.4017321,15.6583354 C16.2967833,15.7562121 16.237227,15.8930238 16.237227,16.0362341 C16.237227,16.1794443 16.2967833,16.3162561 16.4017321,16.4141327 Z M23,6 C23,6.55228475 22.4963203,7 21.875,7 L15.125,7 C14.5036797,7 14,6.55228475 14,6 L14,5 C14,4.44771525 14.5036797,4 15.125,4 L21.875,4 C22.4963203,4 23,4.44771525 23,5 L23,6 Z" id="Shape"></path>
        </g>
      </g>
    </g>
  </g>
</svg>