<?xml version="1.0" encoding="UTF-8" ?>
<svg
  enable-background="new 0 0 512 512"
  version="1.1"
  viewBox="0 0 512 512"
  xml:space="preserve"
  xmlns="http://www.w3.org/2000/svg"
>
		<path
    d="m467 120h-61.041c9.438-12.544 15.041-28.129 15.041-45 0-41.355-33.645-75-75-75-24.911 0-43.28 8.925-57.809 28.087-12.155 16.032-21.043 38.416-32.191 66.698-11.148-28.283-20.036-50.666-32.191-66.698-14.529-19.162-32.898-28.087-57.809-28.087-41.355 0-75 33.645-75 75 0 16.871 5.603 32.456 15.041 45h-61.041c-24.813 0-45 20.187-45 45v30c0 19.555 12.541 36.228 30 42.42v229.58c0 24.813 20.187 45 45 45h362c24.813 0 45-20.187 45-45v-229.58c17.459-6.192 30-22.865 30-42.42v-30c0-24.813-20.187-45-45-45zm-183.47-13.26c22.979-58.298 31.715-76.74 62.466-76.74 24.813 0 45 20.187 45 45s-20.187 45-45 45h-67.713c1.838-4.615 3.591-9.058 5.247-13.26zm-117.53-76.74c30.751 0 39.487 18.442 62.466 76.74 1.656 4.202 3.409 8.645 5.247 13.26h-67.713c-24.813 0-45-20.187-45-45s20.187-45 45-45zm30 452h-121c-8.271 0-15-6.729-15-15v-227h136v242zm0-272h-151c-8.271 0-15-6.729-15-15v-30c0-8.271 6.729-15 15-15h151v60zm90 272h-60v-332h60v332zm166-15c0 8.271-6.729 15-15 15h-121v-242h136v227zm30-272c0 8.271-6.729 15-15 15h-151v-60h151c8.271 0 15 6.729 15 15v30z"
  />
</svg>
