<svg width="30px" height="30px" viewBox="0 0 30 30" version="1.1" xmlns="http://www.w3.org/2000/svg" xmlns:xlink="http://www.w3.org/1999/xlink">
    <g id="Symbols" stroke="none" stroke-width="1" fill="none" fill-rule="evenodd">
        <g id="environment" transform="translate(-10.000000, -105.000000)" fill="#000000" fill-rule="nonzero">
            <g id="rechauffement" transform="translate(10.000000, 88.000000)">
                <g id="Group" transform="translate(0.000000, 17.000000)">
                    <path d="M18.120461,0.00254646222 C16.2324489,0.00488933991 14.3728164,0.456922427 12.6990756,1.32035828 C12.2901607,1.5207597 12.023167,1.92436664 12.0014322,2.37496639 C11.9796974,2.82556614 12.2066323,3.25244642 12.5944036,3.49038674 C12.9821749,3.72832707 13.46993,3.73998765 13.8688873,3.52085536 C14.7440232,3.06877136 15.686787,2.75817513 16.6613411,2.60087353 C16.8313196,2.57300731 17.0052461,2.61824463 17.1393286,2.7251954 C17.278393,2.82416348 17.3659185,2.97896483 17.3783224,3.14788975 C17.4525031,3.74684982 17.8191199,4.27179107 18.3594548,4.55272688 L20.573292,5.79594557 C20.7195228,5.87234094 20.8285505,6.00362023 20.8758615,6.16026703 C20.9231725,6.31691383 20.9047963,6.4857814 20.8248644,6.62890209 L20.4475058,7.30024018 C20.1956731,7.82151467 20.2006753,8.42835383 20.4610677,8.94550379 C20.72146,9.46265375 21.2082448,9.83252371 21.7808396,9.948296 L23.0387016,10.1720754 C23.1473835,10.1839819 23.2570638,10.1839819 23.3657457,10.1720754 C24.0579181,10.176676 24.6963047,9.80383898 25.0261236,9.20236478 L25.8311553,7.73536673 C25.8885624,7.63141752 26.0007496,7.56874555 26.1204636,7.5737483 C26.2413128,7.57814803 26.3489028,7.65065086 26.3971933,7.7602311 C27.4752629,10.0925169 27.4972413,12.7682311 26.4576262,15.1175091 C25.4180111,17.466787 23.4152197,19.2672295 20.9506506,20.0680962 C20.7316653,20.1429859 20.4886853,20.0901526 20.3217196,19.9313421 L17.3154293,17.1216679 C16.970731,16.7994685 16.8928681,16.2864252 17.12675,15.8784492 C17.3649216,15.444407 17.4192044,14.9347233 17.2776935,14.4611799 C17.1332348,13.9898004 16.8082764,13.5927919 16.3720328,13.3547152 L14.1581956,12.1114965 C13.719003,11.8747849 13.2011155,11.825395 12.7242329,11.9747425 C12.3805881,12.0699178 12.1437087,12.3803836 12.1456163,12.7331059 L12.1456163,17.9794887 C12.1456163,18.2484842 12.2338904,18.5102236 12.3971887,18.72542 C13.0369072,19.5544171 13.5030121,20.5011332 13.7682584,21.5102298 C13.8763444,21.921468 14.1894371,22.2496702 14.5984473,22.3804829 C18.9949362,23.8670048 23.8647499,22.62563 26.985377,19.2229037 C30.1060042,15.8201774 30.8790238,10.9086169 28.951641,6.7297861 C27.0242583,2.55095526 22.7660741,-0.0938004805 18.120461,0.00254646222 L18.120461,0.00254646222 Z" id="Path"></path>
                    <path d="M10.1998437,18.803437 L10.1998437,4.36998864 C10.1998437,1.95651055 8.31946129,3.41060513e-13 5.99989207,3.41060513e-13 C3.68032284,3.41060513e-13 1.79994045,1.95651055 1.79994042,4.36998864 L1.79994042,18.803437 C1.79952068,19.1069295 1.69287492,19.3998728 1.49994387,19.6274921 C-0.268098498,21.7135212 -0.496598022,24.7649363 0.939575653,27.1107288 C2.37574933,29.4565213 5.1301586,30.5308329 7.69444056,29.7453518 C10.2587225,28.9598707 12.0143143,26.5040726 11.999912,23.7227957 C11.9919128,22.213942 11.4590591,20.7591268 10.4998403,19.6274921 C10.3069092,19.3998728 10.2002635,19.1069295 10.1998437,18.803437 Z M5.5,26 C4.42399329,26 3.46870772,25.3063242 3.12844452,24.277907 C2.78818132,23.2494897 3.13929125,22.1170948 4.00009662,21.4666667 C4.16071316,21.3505186 4.25422112,21.1621052 4.25008051,20.962963 L4.25008051,10.2592593 C4.25008051,9.56378957 4.80968853,9 5.5,9 C6.19031147,9 6.74991949,9.56378957 6.74991949,10.2592593 L6.74991949,20.962963 C6.74577888,21.1621052 6.83928684,21.3505186 6.99990338,21.4666667 C7.86070875,22.1170948 8.21181868,23.2494897 7.87155548,24.277907 C7.53129228,25.3063242 6.57600671,26 5.5,26 L5.5,26 Z" id="Shape"></path>
                </g>
            </g>
        </g>
    </g>
</svg>