<?xml version="1.0" encoding="UTF-8"?>
<svg viewBox="0 0 33 10" version="1.1" xmlns="http://www.w3.org/2000/svg" xmlns:xlink="http://www.w3.org/1999/xlink">
    <title>GoogleThreeStars</title>
    <g id="Page-1" stroke="none" stroke-width="1" fill="none" fill-rule="evenodd">
        <g id="GoogleThreeStars" fill="#FFB600" fill-rule="nonzero">
            <path
                d="M3.37796767,1.6093 C3.97626767,0.5364 4.27516767,0 4.72236767,0 C5.16956767,0 5.46846767,0.5364 6.06676767,1.6093 L6.22166767,1.887 C6.39166767,2.192 6.47666767,2.3445 6.60886767,2.4451 C6.74106767,2.5457 6.90636767,2.583 7.23696767,2.6576 L7.53726767,2.7256 C8.69896767,2.9887 9.27926767,3.1199 9.41766767,3.5643 C9.55556767,4.0082 9.15976767,4.4714 8.36786767,5.3975 L8.16296767,5.6369 C7.93816767,5.8999 7.82526767,6.0317 7.77476767,6.1941 C7.72426767,6.357 7.74126767,6.5327 7.77526767,6.8835 L7.80646767,7.2032 C7.92586767,8.439 7.98586767,9.0567 7.62416767,9.3311 C7.26246767,9.6059 6.71846767,9.3552 5.63136767,8.8546 L5.34946767,8.7252 C5.04056767,8.5826 4.88616767,8.5118 4.72236767,8.5118 C4.55846767,8.5118 4.40406767,8.5826 4.09526767,8.7252 L3.81376767,8.8546 C2.72626767,9.3552 2.18226767,9.6054 1.82100767,9.3315 C1.45880767,9.0567 1.51877767,8.439 1.63825767,7.2032 L1.66941767,6.884 C1.70341767,6.5327 1.72041767,6.357 1.66941767,6.1946 C1.61936767,6.0317 1.50650767,5.8999 1.28172767,5.6373 L1.07677767,5.3975 C0.284867671,4.4719 -0.110862329,4.0087 0.027027671,3.5643 C0.165387671,3.1199 0.746227671,2.9882 1.90788767,2.7256 L2.20826767,2.6576 C2.53826767,2.583 2.70306767,2.5457 2.83576767,2.4451 C2.96806767,2.3445 3.05306767,2.192 3.22306767,1.887 L3.37796767,1.6093 Z"
                id="Path"></path>
            <path
                d="M14.7109677,1.6093 C15.3092677,0.5364 15.6081677,0 16.0553677,0 C16.5025677,0 16.8014677,0.5364 17.3997677,1.6093 L17.5546677,1.887 C17.7246677,2.192 17.8096677,2.3445 17.9418677,2.4451 C18.0740677,2.5457 18.2393677,2.583 18.5699677,2.6576 L18.8702677,2.7256 C20.0319677,2.9887 20.6122677,3.1199 20.7506677,3.5643 C20.8885677,4.0082 20.4927677,4.4714 19.7008677,5.3975 L19.4959677,5.6369 C19.2711677,5.8999 19.1582677,6.0317 19.1077677,6.1941 C19.0572677,6.357 19.0742677,6.5327 19.1082677,6.8835 L19.1394677,7.2032 C19.2588677,8.439 19.3188677,9.0567 18.9571677,9.3311 C18.5954677,9.6059 18.0514677,9.3552 16.9643677,8.8546 L16.6824677,8.7252 C16.3736677,8.5826 16.2191677,8.5118 16.0553677,8.5118 C15.8914677,8.5118 15.7370677,8.5826 15.4282677,8.7252 L15.1467677,8.8546 C14.0592677,9.3552 13.5152677,9.6054 13.1539677,9.3315 C12.7917677,9.0567 12.8517677,8.439 12.9712677,7.2032 L13.0024677,6.884 C13.0364677,6.5327 13.0534677,6.357 13.0024677,6.1946 C12.9523677,6.0317 12.8394677,5.8999 12.6147677,5.6373 L12.4097677,5.3975 C11.6178677,4.4719 11.2221677,4.0087 11.3600677,3.5643 C11.4983677,3.1199 12.0792677,2.9882 13.2408677,2.7256 L13.5412677,2.6576 C13.8712677,2.583 14.0361677,2.5457 14.1687677,2.4451 C14.3010677,2.3445 14.3860677,2.192 14.5560677,1.887 L14.7109677,1.6093 Z"
                id="Path"></path>
            <path
                d="M26.0448677,1.6093 C26.6432677,0.5364 26.9421677,0 27.3893677,0 C27.8365677,0 28.1354677,0.5364 28.7337677,1.6093 L28.8886677,1.887 C29.0586677,2.192 29.1436677,2.3445 29.2758677,2.4451 C29.4080677,2.5457 29.5733677,2.583 29.9038677,2.6576 L30.2042677,2.7256 C31.3658677,2.9887 31.9462677,3.1199 32.0846677,3.5643 C32.2225677,4.0082 31.8267677,4.4714 31.0348677,5.3975 L30.8299677,5.6369 C30.6051677,5.8999 30.4922677,6.0317 30.4417677,6.1941 C30.3912677,6.357 30.4082677,6.5327 30.4422677,6.8835 L30.4733677,7.2032 C30.5928677,8.439 30.6528677,9.0567 30.2911677,9.3311 C29.9293677,9.6059 29.3853677,9.3552 28.2983677,8.8546 L28.0164677,8.7252 C27.7075677,8.5826 27.5531677,8.5118 27.3893677,8.5118 C27.2254677,8.5118 27.0710677,8.5826 26.7621677,8.7252 L26.4807677,8.8546 C25.3932677,9.3552 24.8492677,9.6054 24.4879677,9.3315 C24.1257677,9.0567 24.1857677,8.439 24.3052677,7.2032 L24.3363677,6.884 C24.3703677,6.5327 24.3873677,6.357 24.3363677,6.1946 C24.2863677,6.0317 24.1734677,5.8999 23.9487677,5.6373 L23.7437677,5.3975 C22.9518677,4.4719 22.5561677,4.0087 22.6940677,3.5643 C22.8323677,3.1199 23.4132677,2.9882 24.5748677,2.7256 L24.8752677,2.6576 C25.2052677,2.583 25.3700677,2.5457 25.5027677,2.4451 C25.6350677,2.3445 25.7200677,2.192 25.8900677,1.887 L26.0448677,1.6093 Z"
                id="Path"></path>
        </g>
    </g>
</svg>