<?xml version="1.0" encoding="utf-8"?>
<!-- Generator: Adobe Illustrator 24.0.0, SVG Export Plug-In . SVG Version: 6.00 Build 0)  -->
<svg version="1.1" id="Calque_1" xmlns="http://www.w3.org/2000/svg" xmlns:xlink="http://www.w3.org/1999/xlink" x="0px"
	y="0px" viewBox="0 0 549.86 551.83" style="enable-background:new 0 0 549.86 551.83;" xml:space="preserve">
	<path class="st0" d="M468.01,81.99C417.95,32.1,356.71,5.33,285.79,2.84c-78.03-2.73-145.78,23.11-201.7,77.58
	C29.65,133.43,2.39,198.61,1.4,274.62C0.04,350.13,32.02,419.7,78.38,466.94c50.83,51.78,112.55,80.16,185.13,83.05
	c79.95,3.19,149.02-23.79,205.59-80.16c49.96-49.79,77.2-110.72,79.76-181.46C551.77,208.18,524.85,138.63,468.01,81.99z
	 M275.59,458.75c-12.23,0.15-23.66-10.88-22.36-22.37c-1.28-12.63,10.77-22.57,21.84-22.72c12.27-0.17,22.49,10.87,22.6,21.85
	C297.8,449.51,286.39,458.62,275.59,458.75z M351.11,258.4c-7.65,12.23-18.57,21.38-30.9,28.83c-15.64,9.44-22.5,23.74-22.73,41.61
	c-0.07,5.61-0.46,11.27,0.08,16.84c0.75,7.58-6.13,17.01-14.17,20.22c-12.72,5.08-26.33-3.2-29.72-14.79
	c-0.33-1.12-0.4-2.18-0.4-3.27c-0.04-5.24-0.02-10.48-0.02-17.41c-0.21-7.84-0.38-17.38,2.26-26.68c3.52-12.37,8.91-23.8,17.01-33.9
	c5.7-7.1,12.29-13.22,19.85-18.21c4.92-3.24,10.22-5.98,14.45-10.13c7.96-7.8,12.82-17.05,13.93-28.43
	c1.76-18-4.96-32.14-19.22-42.43c-17.11-12.35-37.97-11.34-54.18,1.11c-9.93,7.63-16.3,17.77-17.44,30.84
	c-0.54,6.22-0.46,12.65-4.66,18.26c-5.55,7.42-12.9,10.61-21.57,9.34c-8.41-1.23-14.92-5.9-17.89-14.56
	c-2.51-7.32-1.56-14.61-0.33-21.92c1.75-10.41,4.9-20.36,10.12-29.59c2.7-4.77,5.73-9.32,9.18-13.58
	c8.19-10.09,18.18-18.06,29.78-23.78c9.57-4.73,19.68-7.68,30.48-8.87c22.4-2.45,42.83,2.49,61.27,15.12
	c21.2,14.51,33.99,34.59,38.6,59.99C369.22,216.76,363.63,238.4,351.11,258.4z" />
</svg>