<?xml version="1.0" encoding="utf-8"?>
<!-- Generator: Adobe Illustrator 24.0.0, SVG Export Plug-In . SVG Version: 6.00 Build 0)  -->
<svg version="1.1" id="Calque_1" xmlns="http://www.w3.org/2000/svg" xmlns:xlink="http://www.w3.org/1999/xlink" x="0px"
	y="0px" viewBox="0 0 549.32 550.52" style="enable-background:new 0 0 549.32 550.52;" xml:space="preserve">
	<style type="text/css">
		.st0 {
			fill: currentColor;
		}
	</style>
	<g>
		<path class="st0" d="M0.08,377.35c0-33.74,0.18-67.47-0.08-101.21c-0.11-15.17,5.17-27.59,15.56-38.57
		c20-21.15,39.5-42.79,59.24-64.19c10.71-11.61,21.53-23.13,32.26-34.73c18.41-19.89,36.79-39.81,55.17-59.73
		c16.63-18.02,32.75-36.51,50.15-53.8c12.83-12.74,28.62-20.38,46.3-23.16c23.07-3.63,45.1,0.12,65.17,12.72
		c10.65,6.69,18.94,16,27.37,25.13c10.88,11.78,21.74,23.58,32.62,35.37c14.86,16.1,29.71,32.21,44.59,48.29
		c16.42,17.74,32.89,35.43,49.31,53.17c11.58,12.51,23.21,24.97,34.62,37.64c9.24,10.26,19.16,19.91,27.78,30.72
		c5.16,6.47,7.99,14.02,8.48,22.25c1.23,20.71,0.44,41.44,0.5,62.17c0.12,49.36-0.07,98.71,0.1,148.07
		c0.06,17.66-4.36,33.67-15.67,47.41c-9.16,11.13-20.67,18.78-34.66,22.68c-6.79,1.89-13.67,2.27-20.66,2.25
		c-28.74-0.07-57.48-0.08-86.22,0.05c-3.17,0.01-3.86-0.88-3.86-3.94c0.1-44.48,0.09-88.96,0.06-133.45
		c-0.01-15.87-3.35-31.1-9.92-45.5c-13.92-30.53-36.65-51.79-68.34-62.93c-21.92-7.71-44.22-8.11-66.58-1.42
		c-20.9,6.26-38.6,17.65-53.07,33.81c-15,16.75-24.33,36.35-28,58.65c-0.96,5.83-1.29,11.61-1.29,17.47
		c0.02,44.36-0.04,88.71,0.09,133.07c0.01,3.5-0.98,4.26-4.32,4.24c-30.49-0.13-60.98,0.07-91.46-0.14
		c-15.91-0.11-29.72-6.17-41.67-16.51c-11.28-9.76-18.43-22.1-21.9-36.51c-1.25-5.18-1.64-10.55-1.65-15.9
		C0.07,446.32,0.08,411.84,0.08,377.35z" />
		<path class="st0" d="M205.37,478.24c0-21.49,0.02-42.97-0.01-64.46c-0.02-16.91,4.8-32.35,15.55-45.34
		c10.72-12.95,24.55-21.45,41.46-24.05c15.18-2.34,29.98-0.96,43.76,6.27c19.17,10.06,31.29,25.82,36.09,46.92
		c1.11,4.88,1.69,9.98,1.69,15.11c-0.07,44.6-0.09,89.2,0.05,133.79c0.01,3.39-0.93,4.05-4.14,4.05c-43.47-0.11-86.95-0.11-130.42,0
		c-3.26,0.01-4.14-0.73-4.12-4.07C205.45,523.71,205.37,500.98,205.37,478.24z" />
	</g>
</svg>