<svg viewBox="0 0 32 32" fill="none" xmlns="http://www.w3.org/2000/svg">
<path d="M16.7065 23.8039C16.7065 24.0753 16.626 24.3407 16.4752 24.5664C16.3244 24.7921 16.11 24.9681 15.8592 25.0719C15.6084 25.1758 15.3325 25.203 15.0662 25.1501C14.8 25.0971 14.5554 24.9664 14.3634 24.7744C14.1715 24.5825 14.0408 24.3379 13.9878 24.0716C13.9349 23.8054 13.962 23.5294 14.0659 23.2786C14.1698 23.0278 14.3457 22.8135 14.5714 22.6626C14.7972 22.5118 15.0625 22.4313 15.334 22.4313C15.698 22.4313 16.0471 22.5759 16.3045 22.8333C16.5619 23.0907 16.7065 23.4399 16.7065 23.8039ZM15.334 9.25486C12.4516 9.25486 10.1183 11.348 10.1183 13.9215V14.4705C10.1183 14.689 10.2051 14.8984 10.3595 15.0529C10.514 15.2073 10.7234 15.2941 10.9418 15.2941C11.1602 15.2941 11.3697 15.2073 11.5242 15.0529C11.6786 14.8984 11.7654 14.689 11.7654 14.4705V13.9215C11.7654 12.2566 13.3658 10.9019 15.334 10.9019C17.3022 10.9019 18.9026 12.2566 18.9026 13.9215C18.9026 15.5864 17.3022 16.9411 15.334 16.9411C15.1156 16.9411 14.9061 17.0279 14.7517 17.1823C14.5972 17.3368 14.5105 17.5462 14.5105 17.7647V18.8627C14.5105 19.0811 14.5972 19.2906 14.7517 19.445C14.9061 19.5995 15.1156 19.6862 15.334 19.6862C15.5524 19.6862 15.7619 19.5995 15.9163 19.445C16.0708 19.2906 16.1575 19.0811 16.1575 18.8627V18.5305C18.6432 18.1764 20.5497 16.2439 20.5497 13.9215C20.5497 11.348 18.2163 9.25486 15.334 9.25486ZM29.334 16.6666C29.334 19.4356 28.5129 22.1423 26.9746 24.4446C25.4362 26.7469 23.2497 28.5413 20.6916 29.6009C18.1334 30.6606 15.3185 30.9378 12.6027 30.3976C9.88699 29.8574 7.39243 28.5241 5.43449 26.5661C3.47656 24.6082 2.14319 22.1136 1.603 19.3979C1.0628 16.6822 1.34005 13.8672 2.39968 11.3091C3.4593 8.75089 5.25372 6.56439 7.55601 5.02605C9.85829 3.48771 12.5651 2.66663 15.334 2.66663C19.0457 2.67098 22.6041 4.14738 25.2287 6.77194C27.8532 9.39651 29.3296 12.9549 29.334 16.6666ZM27.6869 16.6666C27.6869 14.2234 26.9624 11.8351 25.6051 9.8037C24.2477 7.77227 22.3185 6.18896 20.0613 5.254C17.8041 4.31903 15.3203 4.0744 12.924 4.55104C10.5278 5.02768 8.32673 6.20419 6.59914 7.93178C4.87155 9.65937 3.69505 11.8604 3.21841 14.2567C2.74177 16.6529 2.9864 19.1367 3.92136 21.3939C4.85633 23.6511 6.43963 25.5804 8.47106 26.9377C10.5025 28.2951 12.8908 29.0196 15.334 29.0196C18.6091 29.0159 21.749 27.7133 24.0648 25.3975C26.3807 23.0816 27.6833 19.9417 27.6869 16.6666Z" fill="#002E51"/>
</svg>
