<svg  viewBox="0 0 32 32" fill="none" xmlns="http://www.w3.org/2000/svg">
<path d="M5.33398 10.6666C5.33398 6.89596 5.33398 5.00929 6.50598 3.83863C7.67665 2.66663 9.56332 2.66663 13.334 2.66663H18.6673C22.438 2.66663 24.3247 2.66663 25.4953 3.83863C26.6673 5.00929 26.6673 6.89596 26.6673 10.6666V21.3333C26.6673 25.104 26.6673 26.9906 25.4953 28.1613C24.3247 29.3333 22.438 29.3333 18.6673 29.3333H13.334C9.56332 29.3333 7.67665 29.3333 6.50598 28.1613C5.33398 26.9906 5.33398 25.104 5.33398 21.3333V10.6666Z" stroke="#002E51" stroke-width="1.8"/>
<path d="M26.5313 21.3333H10.5313C9.29132 21.3333 8.67132 21.3333 8.16198 21.4693C7.48373 21.6511 6.86531 22.0083 6.36889 22.505C5.87247 23.0017 5.51554 23.6202 5.33398 24.2986" stroke="#002E51" stroke-width="1.8"/>
<path d="M10.668 9.33325H21.3346M10.668 13.9999H17.3346" stroke="#002E51" stroke-width="1.8" stroke-linecap="round"/>
</svg>
