<?xml version="1.0" encoding="utf-8"?>
<!-- Generator: Adobe Illustrator 24.0.0, SVG Export Plug-In . SVG Version: 6.00 Build 0)  -->
<svg version="1.1" id="Calque_1" xmlns="http://www.w3.org/2000/svg" xmlns:xlink="http://www.w3.org/1999/xlink" x="0px"
	y="0px" viewBox="0 0 503.34 549.06" style="enable-background:new 0 0 503.34 549.06;" xml:space="preserve">
	<style type="text/css">
		.st0 {
			fill: currentColor;
		}
	</style>
	<g>
		<path class="st0" d="M253.97,549c-31.56,0.39-60.43-4.92-88.32-15.13c-24.02-8.79-46.19-21.1-66.56-36.72
		c-13.66-10.47-26.06-22.22-37.2-35.23c-12.76-14.91-23.75-31.05-32.72-48.63c-5.45-10.69-10.38-21.58-14.29-32.85
		c-4.68-13.49-8.18-27.32-10.37-41.52C2.2,323.87,0.66,308.8,0.99,293.6c0.29-13.53,1.9-26.93,4.24-40.31
		c3.91-22.32,10.89-43.61,20.61-63.95C34.08,172.1,44.28,156,56.37,141.1c7.52-9.26,15.42-18.16,24.18-26.21
		c13.04-11.99,26.8-23.25,42.38-31.68c11.7-6.33,26.05-4.93,37.33,4.73c9.32,7.99,13.39,18.28,12.03,30.32
		c-1.2,10.65-6.61,19.1-15.78,24.87c-13.42,8.44-25.81,18.18-36.62,29.75C108.95,184.57,99.7,197.46,92,211.56
		c-7.2,13.19-12.53,27.04-16.38,41.47c-2.11,7.9-3.52,15.97-4.44,24.15c-0.94,8.39-1.79,16.77-1.31,25.18
		c0.58,10.17,1.63,20.28,3.47,30.36c2.13,11.61,5.57,22.77,9.79,33.67c4.96,12.82,11.69,24.81,19.55,36.12
		c11.88,17.1,26.41,31.62,43.25,43.8c14.66,10.6,30.66,18.8,47.79,24.54c11.58,3.87,23.51,6.32,35.69,7.97
		c11.8,1.6,23.61,1.91,35.28,1.05c20.18-1.49,39.82-6.01,58.56-14.07c16.77-7.21,32.22-16.59,46.18-28.27
		c15.69-13.13,28.6-28.69,39.05-46.32c6.51-10.97,11.88-22.47,16.03-34.48c3.58-10.38,6.13-21.09,7.69-32
		c1.2-8.43,2.34-16.98,2-25.39c-0.46-11.13-1.2-22.27-3.21-33.37c-2.46-13.58-6.28-26.64-11.61-39.23
		c-6.26-14.79-14.22-28.65-24.42-41.18c-5.37-6.59-10.67-13.24-16.91-19c-10.03-9.25-20.99-17.32-32.33-24.94
		c-8.8-5.91-13.42-14.41-13.97-25.32c-0.47-9.26,2.18-17.37,7.8-24.33c5.19-6.44,12.3-10.17,20.54-11.79
		c12.45-2.45,22.39,2.88,32,9.7c10.3,7.31,20.17,15.1,29.64,23.51c14.98,13.29,27.48,28.62,38.75,45
		c10.21,14.84,18.51,30.8,25.08,47.55c6.52,16.6,11.44,33.7,14.09,51.42c1.46,9.75,2.57,19.49,3.08,29.36
		c0.3,5.7,0.84,11.42,0.49,17.09c-0.93,15.2-2.27,30.33-5.45,45.31c-4.23,19.94-10.54,39.13-19.27,57.48
		c-6.88,14.47-15.14,28.17-24.74,41.03c-8.27,11.08-17.32,21.47-27.29,31.07c-9.92,9.56-20.68,18.04-31.91,26.01
		c-15.28,10.84-31.71,19.5-49.03,26.45c-16,6.42-32.49,11.23-49.53,14.14C281.5,547.77,266.95,549.37,253.97,549z" />
		<path class="st0" d="M286.18,92.87c0,19.46-0.16,38.92,0.06,58.38c0.15,13.38-9.61,26.08-21.83,30.77
		c-19.84,7.61-40.59-4.07-46.05-24.24c-0.95-3.51-1-7.35-1-11.03c-0.07-35.93-0.1-71.85-0.01-107.78
		c0.04-15.13,5.83-27.26,19.85-34.2c18.58-9.19,41.08,0.63,47.53,20.33c1.05,3.22,1.51,6.4,1.5,9.77
		C286.15,54.2,286.18,73.53,286.18,92.87z" />
	</g>
</svg>