<?xml version="1.0" encoding="utf-8"?>
<!-- Generator: Adobe Illustrator 24.0.0, SVG Export Plug-In . SVG Version: 6.00 Build 0)  -->
<svg version="1.1" id="Calque_1" xmlns="http://www.w3.org/2000/svg" xmlns:xlink="http://www.w3.org/1999/xlink" x="0px"
	y="0px" viewBox="304 140 490 465" style="enable-background:new 304 140 490 490;" xml:space="preserve">
	<g>
		<path d="M456.81,275.96c-9.43,4.7-18.33,9.13-27.23,13.56c-2.9,1.45-5.79,2.92-8.71,4.34c-5.75,2.81-11.33,2.48-16.67-1.08
		c-11.21-7.47-22.49-14.85-33.6-22.47c-2.85-1.95-4.86-2.26-7.9-0.13c-10.84,7.56-21.98,14.7-32.93,22.11
		c-5.52,3.74-11.25,4.81-17.26,1.64c-6.15-3.24-8.47-8.68-8.43-15.51c0.1-20.09-0.01-40.19,0.05-60.28
		c0.11-38.15,26.12-69.8,63.55-77.15c4.86-0.96,9.91-1.32,14.88-1.33c100.47-0.07,200.93-0.1,301.4-0.03
		c37.53,0.03,69.41,24.65,77.99,61.04c2.73,11.57,3.25,23.7,4.31,35.62c4.81,53.74,7.32,107.61,5.73,161.54
		c-1.13,38.52-3.5,77.03-6.4,115.46c-2.01,26.6-5.84,53.05-8.9,79.57c-1.09,9.46-7.3,15-16.87,15c-92.98,0.02-185.96,0.02-278.93,0
		c-10.69,0-17.38-8.04-16.12-18.8c3.36-28.74,7.04-57.45,9.8-86.25c4.16-43.38,6.09-86.9,5.51-130.48
		c-0.41-31.18-1.88-62.35-2.88-93.53C457.18,278.08,457.01,277.36,456.81,275.96z M727.38,576.33c0.99-7.5,2.24-14.76,2.85-22.07
		c3.14-37.41,6.87-74.79,8.98-112.27c4.22-74.9,1.45-149.68-6.07-224.29c-0.79-7.87-2.1-15.6-6.21-22.53
		c-11-18.54-27.72-25.68-48.67-24.12c-23.79,1.77-46.88,21.62-46.27,49.23c0.43,19.33,0.01,38.68,0.12,58.03
		c0.04,6.82-2.24,12.28-8.38,15.55c-6,3.19-11.73,2.11-17.26-1.61c-11.17-7.53-22.48-14.85-33.62-22.42
		c-2.42-1.65-4.13-1.76-6.62-0.05c-10.59,7.28-21.33,14.33-32.02,21.45c-9.32,6.2-13.83,6.18-23.26-0.09
		c-6.23-4.14-12.43-8.33-18.67-12.47c-1.05-0.7-2.19-1.25-3.93-2.23c6.49,100.77,2.84,200.35-10.21,299.92
		C561.34,576.33,644.13,576.33,727.38,576.33z M335.22,249.9c0.35,0.15,0.7,0.3,1.05,0.45c6.62-4.4,13.34-8.65,19.83-13.23
		c7.01-4.95,13.72-4.87,20.77-0.07c11.54,7.86,23.27,15.46,34.84,23.28c2.02,1.37,3.59,1.47,5.78,0.36
		c16.57-8.39,33.25-16.57,49.8-25c6.58-3.35,12.55-2.97,18.63,1.16c11.13,7.58,22.44,14.9,33.57,22.48c2.32,1.58,4,1.57,6.31-0.01
		c11.13-7.58,22.44-14.9,33.57-22.49c6.81-4.65,13.38-4.67,20.14-0.05c5.77,3.94,11.63,7.74,17.46,11.58
		c1.06,0.69,2.19,1.27,3.81,2.19c0-11.14-0.04-21.49,0.01-31.83c0.08-16.26,4.38-31.26,13.53-44.79c0.52-0.77,0.87-1.66,1.6-3.07
		c-2.16,0-3.75,0-5.34,0c-74.99,0-149.98,0-224.97,0.01c-2.25,0-4.49,0.01-6.73,0.14c-19.31,1.13-36.79,15.22-41.64,33.87
		C333.39,219.75,336.28,234.91,335.22,249.9z" />
		<path d="M639.65,420.57c12.6,0,25.2-0.02,37.8,0.01c9.83,0.02,16.9,6.6,16.88,15.65c-0.02,9-7.12,15.59-16.96,15.6
		c-25.45,0.03-50.9,0.05-76.35-0.02c-8.17-0.02-14.9-5.95-15.85-13.62c-0.97-7.91,4-15.2,11.86-17.14c1.67-0.41,3.46-0.45,5.19-0.46
		C614.69,420.55,627.17,420.57,639.65,420.57z" />
		<path d="M639.49,529.84c-12.48,0-24.95,0.02-37.43-0.01c-9.87-0.02-16.95-6.54-16.97-15.56c-0.02-9.07,7.01-15.67,16.84-15.68
		c25.2-0.03,50.4-0.03,75.6,0c9.76,0.01,16.86,6.71,16.8,15.75c-0.06,8.89-7.08,15.46-16.67,15.49
		C664.94,529.87,652.21,529.84,639.49,529.84z" />
		<path d="M639.94,342.53c12.47,0,24.95-0.02,37.42,0.01c9.88,0.02,16.94,6.53,16.96,15.56c0.02,9.03-7.04,15.64-16.88,15.65
		c-25.2,0.04-50.4,0.04-75.6,0c-9.79-0.02-16.83-6.72-16.76-15.77c0.07-8.92,7.04-15.41,16.68-15.43
		C614.49,342.51,627.22,342.53,639.94,342.53z" />
		<path d="M546.09,498.6c2.74,0,5.48-0.08,8.22,0.02c8.53,0.32,15.24,7.37,15.14,15.83c-0.1,8.29-6.8,15.14-15.22,15.35
		c-5.47,0.14-10.96,0.15-16.43,0c-8.4-0.23-15.06-7.12-15.12-15.44c-0.06-8.54,6.56-15.44,15.19-15.74
		C540.61,498.52,543.35,498.6,546.09,498.6z" />
		<path d="M546.41,342.55c2.61,0,5.23-0.07,7.84,0.01c8.4,0.27,15.11,7.08,15.2,15.37c0.09,8.35-6.37,15.38-14.79,15.75
		c-5.72,0.25-11.46,0.24-17.18,0c-8.43-0.35-14.88-7.36-14.8-15.72c0.08-8.38,6.67-15.12,15.13-15.4
		C540.68,342.47,543.54,342.55,546.41,342.55z" />
		<path d="M546,420.58c2.74,0,5.48-0.07,8.22,0.02c8.4,0.26,15.13,7.07,15.24,15.35c0.11,8.47-6.57,15.56-15.13,15.83
		c-5.47,0.17-10.96,0.16-16.43,0.01c-8.59-0.25-15.27-7.27-15.21-15.75c0.06-8.53,6.76-15.24,15.47-15.45
		C540.77,420.52,543.39,420.58,546,420.58z" />
	</g>
</svg>