<?xml version="1.0" encoding="utf-8"?>
<!-- Generator: Adobe Illustrator 24.0.0, SVG Export Plug-In . SVG Version: 6.00 Build 0)  -->
<svg version="1.1" id="Calque_1" xmlns="http://www.w3.org/2000/svg" xmlns:xlink="http://www.w3.org/1999/xlink" x="0px"
	y="0px" viewBox="0 0 411.67 549.94" style="enable-background:new 0 0 411.67 549.94;" xml:space="preserve">
	<style type="text/css">
		.st0 {
			fill: currentColor;
		}
	</style>
	<path class="st0" d="M411.61,129.85c0-8.09,0.25-16.17-0.58-24.29c-1.06-10.43-3.14-20.55-6.85-30.3
	c-7.65-20.12-19.95-36.91-37-50.06C347.31,9.88,324.84,1.53,299.62,1.49c-62.97-0.09-125.94-0.02-188.91-0.04
	c-12.18,0-23.9,2.51-35.26,6.6C55.06,15.39,38.1,27.68,24.7,44.69C8.57,65.16,0.07,88.43,0.05,114.58
	c-0.06,67.72-0.02,135.44-0.02,203.17c0,69.47,0.01,138.94-0.03,208.41c0,3.68,0.71,7.17,2.29,10.41c6.46,13.22,22,17.25,34.49,8.85
	c15.04-10.12,29.98-20.4,44.91-30.67c1.65-1.13,2.77-1.39,4.61-0.12c14.83,10.25,29.78,20.31,44.64,30.51
	c9.11,6.25,19.42,6.15,28.52-0.14c14.63-10.1,29.42-19.96,44.01-30.11c2.13-1.48,3.36-1.2,5.22,0.09
	c14.4,9.95,28.99,19.64,43.26,29.78c8.9,6.32,20.62,6.38,29.21,0.29c14.3-10.14,28.99-19.71,43.32-29.8
	c2.63-1.85,4.11-1.57,6.47,0.07c14.59,10.13,29.24,20.18,43.97,30.11c7.71,5.2,16.1,6.14,24.33,1.65c8.24-4.5,12.4-11.78,12.4-21.39
	C411.64,393.74,411.66,261.79,411.61,129.85z M256.3,320.24c-1.98,0.42-3.9,0.64-5.89,0.64c-45.07,0-90.14-0.03-135.22,0.02
	c-13.25,0.01-21.44-9.07-22.81-18.46c-2.22-15.23,7.34-23.62,17.62-26.26c1.42-0.36,2.97-0.28,4.46-0.28
	c22.85-0.02,45.7-0.01,68.55-0.01c22.85,0,45.7,0.11,68.54-0.05c9.29-0.07,21.67,6.6,22.53,22.16
	C274.57,306.86,268.87,317.58,256.3,320.24z M296.05,229.57c-60.35-0.3-120.7-0.13-181.05-0.14c-10.18,0-17.74-4.87-21.37-14.36
	c-4.71-12.32,1.15-24.14,12.37-28.96c2.99-1.28,6.09-1.76,9.4-1.75c30.24,0.09,60.47,0.06,90.71,0.06c30.61,0,61.22,0,91.84,0
	c10.77,0,21.14,10.22,21.68,21.4C320.26,218.97,308.69,229.63,296.05,229.57z" />
</svg>