<svg viewBox="0 0 24 24" fill="none" xmlns="http://www.w3.org/2000/svg">
  <path
    d="M18.3571 15.4286V15.9286H18.8571H23.5V18.8571C23.5 20.0885 23.0108 21.2694 22.1401 22.1401C21.2694 23.0108 20.0885 23.5 18.8571 23.5H5.14286C3.91149 23.5 2.73057 23.0108 1.85986 22.1401C0.989157 21.2694 0.5 20.0885 0.5 18.8571V3.42857C0.5 2.65187 0.808545 1.90697 1.35776 1.35776C1.90697 0.808545 2.65187 0.5 3.42857 0.5H15.4286C16.2053 0.5 16.9502 0.808545 17.4994 1.35776C18.0486 1.90697 18.3571 2.65187 18.3571 3.42857V15.4286ZM18.8571 16.6429H18.3571V17.1429V22.2857V22.7857H18.8571C19.8991 22.7857 20.8983 22.3718 21.6351 21.6351C22.3718 20.8983 22.7857 19.8991 22.7857 18.8571V17.1429V16.6429H22.2857H18.8571ZM17.1429 22.7857H17.6429V22.2857V3.42857C17.6429 2.84131 17.4096 2.2781 16.9943 1.86284C16.579 1.44758 16.0158 1.21429 15.4286 1.21429H3.42857C2.84131 1.21429 2.27809 1.44758 1.86284 1.86284C1.44758 2.27809 1.21429 2.84131 1.21429 3.42857V18.8571C1.21429 19.8991 1.62819 20.8983 2.36494 21.6351C3.10169 22.3718 4.10093 22.7857 5.14286 22.7857H17.1429ZM5.64286 6C5.64286 5.90528 5.68048 5.81444 5.74746 5.74746C5.81444 5.68048 5.90528 5.64286 6 5.64286H12.8571C12.9519 5.64286 13.0427 5.68048 13.1097 5.74746C13.1767 5.81444 13.2143 5.90528 13.2143 6C13.2143 6.09472 13.1767 6.18556 13.1097 6.25254C13.0427 6.31952 12.9519 6.35714 12.8571 6.35714H6C5.90528 6.35714 5.81444 6.31952 5.74746 6.25254C5.68048 6.18556 5.64286 6.09472 5.64286 6ZM5.64286 11.1429C5.64286 11.0481 5.68048 10.9573 5.74746 10.8903C5.81444 10.8233 5.90528 10.7857 6 10.7857H12.8571C12.9519 10.7857 13.0427 10.8233 13.1097 10.8903C13.1767 10.9573 13.2143 11.0481 13.2143 11.1429C13.2143 11.2376 13.1767 11.3284 13.1097 11.3954C13.0427 11.4624 12.9519 11.5 12.8571 11.5H6C5.90528 11.5 5.81444 11.4624 5.74746 11.3954C5.68049 11.3284 5.64286 11.2376 5.64286 11.1429ZM5.64286 16.2857C5.64286 16.191 5.68049 16.1002 5.74746 16.0332C5.81444 15.9662 5.90528 15.9286 6 15.9286H9.42857C9.52329 15.9286 9.61413 15.9662 9.68111 16.0332C9.74809 16.1002 9.78571 16.191 9.78571 16.2857C9.78571 16.3804 9.74809 16.4713 9.68111 16.5383C9.61414 16.6052 9.52329 16.6429 9.42857 16.6429H6C5.90528 16.6429 5.81444 16.6052 5.74746 16.5383C5.68049 16.4713 5.64286 16.3804 5.64286 16.2857Z"
    fill="currentColor" stroke="currentColor" />
</svg>