<?xml version="1.0" encoding="utf-8"?>
<!-- Generator: Adobe Illustrator 24.0.0, SVG Export Plug-In . SVG Version: 6.00 Build 0)  -->
<svg version="1.1" id="Calque_1" xmlns="http://www.w3.org/2000/svg" xmlns:xlink="http://www.w3.org/1999/xlink" x="0px"
	y="0px" viewBox="0 0 494.25 550.25" style="enable-background:new 0 0 494.25 550.25;" xml:space="preserve">
	<style type="text/css">
		.st0 {
			fill: currentColor;
		}
	</style>
	<path class="st0" d="M491.13,357.37c-3.68-12.3-10.34-22.69-19.91-31.35c-5.8-5.25-12.56-8.89-19.17-12.8
	c-1.84-1.09-2.47-2.27-1.96-4.23c0.88-3.39,1.03-6.87,1.48-10.32c2.54-19.56,1.78-39.01-1.39-58.41c-0.38-2.34,0.31-3.37,2.28-4.36
	c5.89-2.98,11.64-6.33,16.59-10.68c18.87-16.61,27.49-37.37,24.36-62.56c-2.25-18.11-10.47-33.13-24.8-44.37
	c-20.94-16.44-44.16-19.6-69.14-10.54c-5.9,2.14-11.01,5.74-16.46,8.7c-1.33,0.72-2.39,1.36-3.94,0.05
	c-18.01-15.22-38.15-26.78-60.31-34.79c-1.98-0.72-2.71-1.71-2.6-3.79c0.41-7.37,0.06-14.78-1.38-21.96
	c-3.62-18.05-12.88-32.73-28.09-43.33c-13.31-9.28-28.07-13.05-44.37-12.05c-15.28,0.93-28.61,6.27-40.04,16.08
	c-16.77,14.4-24.56,32.99-24.22,55.04c0,2.12-0.12,4.26,0.04,6.37c0.14,1.93-0.6,2.94-2.39,3.57
	c-21.19,7.44-40.25,18.65-57.78,32.59c-4.6,3.65-4.63,3.62-9.72,0.43c-16.37-10.25-34.11-14.11-53.08-10.27
	c-28.03,5.67-48.81,26.75-53.88,55.18c-4.19,23.45,2.36,44.09,18.87,61.35c6.17,6.45,13.9,10.81,21.69,14.99
	c1.55,0.83,2.88,1.6,2.44,3.62c-0.81,3.78-1.06,7.62-1.56,11.43c-2.51,19.18-1.84,38.28,1.25,57.29c0.51,3.13-0.29,4.5-2.89,5.8
	c-8.28,4.14-15.9,9.27-22.17,16.15C3.9,346.66-2.16,365.93,0.87,387.99c2.11,15.35,9.04,28.4,20.03,39.07
	c10.37,10.07,22.77,16.48,37.34,18.48c11.78,1.61,23.22,0.92,34.45-3.16c6.57-2.39,12.55-5.87,18.57-9.31
	c1.11-0.64,2.16-1.63,3.63-0.31c6.2,5.58,13.06,10.28,20,14.9c12.37,8.24,25.63,14.73,39.52,19.85c2.99,1.1,3.81,2.25,3.7,5.18
	c-0.37,10.5,0.3,20.94,3.95,30.89c12.79,34.85,48.6,53.09,84.42,42.82c23.24-6.67,38.63-22.18,46.35-45.19
	c3.22-9.61,3.52-19.54,3.32-29.52c-0.04-2.01,0.43-3.17,2.49-3.87c22.13-7.55,41.77-19.51,59.78-34.23c1.8-1.47,3.04-1.66,4.79-0.45
	c0.92,0.63,1.94,1.12,2.89,1.71c18.12,11.23,37.44,14.72,58.14,8.93c16.2-4.53,29.3-13.79,38.32-27.84
	C494.15,397.91,497.35,378.2,491.13,357.37z M245.51,366.61c-48.59-0.56-90.58-40.03-89.28-93.98c1.14-47.4,40.23-87.25,90.93-87.99
	c49.98,0.81,91.06,39.86,90.8,91.85C337.69,326.57,297.56,367.21,245.51,366.61z" />
</svg>