<?xml version="1.0" encoding="UTF-8"?>
<svg viewBox="0 0 28 17" version="1.1" xmlns="http://www.w3.org/2000/svg" xmlns:xlink="http://www.w3.org/1999/xlink">
    <title>SocialsNetwork</title>
    <g id="Page-1" stroke="none" stroke-width="1" fill="none" fill-rule="evenodd">
        <g id="SocialsNetwork" fill="#FFB600" fill-rule="nonzero">
            <path
                d="M22.69002,8.7179 C25.10562,8.7179 27.06442,6.7667 27.06442,4.3589 C27.06442,1.9518 25.10562,0 22.69002,0 C20.27272,0 18.3135199,1.9521 18.3135199,4.3589 C18.31312,6.7667 20.27272,8.7179 22.69002,8.7179 Z"
                id="Path"></path>
            <path
                d="M12.83342,9.5251 C15.00832,9.5251 16.77132,7.7685 16.77132,5.6017 C16.77132,3.4349 15.00832,1.6784 12.83342,1.6784 C10.65862,1.6784 8.89552,3.4349 8.89552,5.6017 C8.89552,7.7685 10.65862,9.5251 12.83342,9.5251 Z"
                id="Path"></path>
            <path
                d="M3.89512,10.2518 C5.85222,10.2518 7.43942,8.672 7.43942,6.7221 C7.43942,4.7716 5.85222,3.1912 3.89512,3.1912 C1.93752,3.1912 0.35092,4.7716 0.35092,6.7221 C0.35092,8.6723 1.93722,10.2518 3.89512,10.2518 Z M3.89512,11.0581 C1.64762,11.0581 0,13.0306 0,15.0682 L0,16.44 C0,16.634 0.15872,16.7934 0.35402,16.7934 L7.43532,16.7934 C7.63122,16.7934 7.79002,16.634 7.79002,16.44 L7.79002,15.0682 C7.79002,13.0306 6.14232,11.0581 3.89512,11.0581 Z M12.83302,10.4198 C10.33602,10.4198 8.50482,12.6118 8.50482,14.8763 L8.50482,16.4006 C8.50482,16.6161 8.68122,16.7934002 8.89822,16.7934002 L16.76662,16.7934002 C16.87092,16.7935 16.97102,16.7521 17.04492,16.6785 C17.11882,16.6049 17.16042,16.5049 17.1606201,16.4006 L17.1606201,14.8763 C17.16102,12.6121 15.33012,10.4198 12.83302,10.4198 Z M22.68892,9.712 C19.91442,9.712 17.88022,12.1474 17.88022,14.664 L17.88022,16.3572 C17.88022,16.5968 18.07612,16.7934 18.31732,16.7934 L27.05932,16.7934 C27.30172,16.7934 27.49762,16.5965 27.49762,16.3572 L27.49762,14.664 C27.49762,12.1477 25.46342,9.712 22.68892,9.712 Z"
                id="Shape"></path>
        </g>
    </g>
</svg>