<?xml version="1.0" encoding="UTF-8"?>
<svg viewBox="0 0 32 32" version="1.1" xmlns="http://www.w3.org/2000/svg" xmlns:xlink="http://www.w3.org/1999/xlink">
  <title>TicketLogo</title>
  <g id="Page-1" stroke="none" stroke-width="1" fill="none" fill-rule="evenodd">
    <g id="TicketLogo" fill-rule="nonzero">
      <rect id="Rectangle" fill="#FFB600" x="0" y="0" width="32" height="32" rx="16"></rect>
      <path
        d="M14.3789,13.3701 C14.3789,12.6702 14.0485,12.3203 13.3877,12.3203 C13.1012,12.3203 12.8538,12.4082 12.6455,12.584 C12.4372,12.7598 12.276,12.986 12.1621,13.2627 C12.0482,13.5394 11.9359,13.873 11.8252,14.2637 C11.7178,14.6543 11.6217,15.0417 11.5371,15.4258 C11.3255,16.373 11.026,17.1624 10.6387,17.7939 C10.7559,17.846 10.9349,17.9307 11.1758,18.0479 C11.4167,18.1618 11.6104,18.2513 11.7568,18.3164 C12.167,18.502 12.5267,18.5947 12.8359,18.5947 C12.9727,18.5947 13.1012,18.5605 13.2217,18.4922 C13.3421,18.4238 13.4333,18.3506 13.4951,18.2725 C13.5602,18.1911 13.6156,18.1162 13.6611,18.0479 C13.71,17.9795 13.7393,17.9453 13.749,17.9453 L13.9688,18.0723 C13.6823,18.6126 13.3796,18.9479 13.0605,19.0781 C12.9173,19.1367 12.7334,19.166 12.5088,19.166 C12.2842,19.166 12.0368,19.1253 11.7666,19.0439 C11.4997,18.9658 11.1986,18.8519 10.8633,18.7021 C10.5312,18.5524 10.2969,18.4531 10.1602,18.4043 C9.8997,18.6289 9.5661,18.8128 9.1592,18.9561 C8.7555,19.096 8.2917,19.166 7.7676,19.166 C7.5039,19.166 7.2646,19.1172 7.0498,19.0195 C6.6429,18.8307 6.4395,18.5915 6.4395,18.3018 C6.4395,18.012 6.529,17.7679 6.708,17.5693 C7.0498,17.1917 7.5234,17.0029 8.1289,17.0029 C8.5618,17.0029 9.0192,17.0924 9.501,17.2715 C9.6768,17.3398 9.9062,17.4342 10.1895,17.5547 C10.3294,17.1673 10.4482,16.7214 10.5459,16.2168 C10.6436,15.7122 10.7347,15.2956 10.8193,14.9668 C10.904,14.6348 10.9902,14.3304 11.0781,14.0537 C11.1693,13.7738 11.2865,13.502 11.4297,13.2383 C11.5762,12.9746 11.7373,12.75 11.9131,12.5645 C12.3005,12.1608 12.805,11.959 13.4268,11.959 C13.8988,11.959 14.2829,12.0957 14.5791,12.3691 C14.8786,12.6426 15.0283,13.0267 15.0283,13.5215 C15.0283,13.8893 14.9535,14.2474 14.8037,14.5957 C14.6572,14.9408 14.4619,15.2451 14.2178,15.5088 C13.9736,15.7725 13.6904,15.9954 13.3682,16.1777 C13.0492,16.36 12.7188,16.4805 12.377,16.5391 L12.3086,16.2705 C12.7057,16.1729 13.0638,15.9743 13.3828,15.6748 C13.7018,15.3721 13.9476,15.0189 14.1201,14.6152 C14.2926,14.2083 14.3789,13.7933 14.3789,13.3701 Z M6.7471,18.2432 C6.7471,18.5003 6.9066,18.6729 7.2256,18.7607 C7.8864,18.943 8.5439,18.8861 9.1982,18.5898 C9.4424,18.4759 9.6296,18.3343 9.7598,18.165 C9.1087,17.7256 8.5179,17.5059 7.9873,17.5059 C7.1605,17.5059 6.7471,17.7516 6.7471,18.2432 Z M14.3496,17.8379 C14.3496,17.5938 14.4082,17.3594 14.5254,17.1348 C14.6458,16.9069 14.8005,16.7148 14.9893,16.5586 C15.4059,16.2201 15.8307,16.0508 16.2637,16.0508 C16.6966,16.0508 17.0514,16.1663 17.3281,16.3975 C17.6048,16.6286 17.7432,16.9183 17.7432,17.2666 C17.7432,17.6117 17.6471,17.9225 17.4551,18.1992 C17.2663,18.4759 17.0156,18.6924 16.7031,18.8486 C16.3906,19.0016 16.0488,19.0781 15.6777,19.0781 C15.3099,19.0781 14.9958,18.9626 14.7354,18.7314 C14.4782,18.4971 14.3496,18.1992 14.3496,17.8379 Z M15.9463,18.7754 C16.096,18.7754 16.236,18.7266 16.3662,18.6289 C16.4997,18.5312 16.6006,18.4043 16.6689,18.248 C16.8024,17.9486 16.8691,17.6393 16.8691,17.3203 C16.8691,17.0013 16.8105,16.7604 16.6934,16.5977 C16.5762,16.4316 16.4102,16.3486 16.1953,16.3486 C15.9805,16.3486 15.7673,16.4886 15.5557,16.7686 C15.3473,17.0485 15.2432,17.4049 15.2432,17.8379 C15.2432,18.4629 15.4775,18.7754 15.9463,18.7754 Z M18.1631,19.7178 C18.0264,19.6038 17.958,19.498 17.958,19.4004 C17.958,19.3027 17.9971,19.2295 18.0752,19.1807 L18.666,18.5996 C18.321,18.3099 18.1484,17.9632 18.1484,17.5596 C18.1484,17.1527 18.3258,16.7946 18.6807,16.4854 C19.0387,16.1761 19.4408,16.0215 19.8867,16.0215 C19.9876,16.0215 20.0641,16.0247 20.1162,16.0312 C20.1423,15.7839 20.2627,15.5511 20.4775,15.333 C20.6956,15.1117 20.9674,15.001 21.293,15.001 C21.6217,15.001 21.7861,15.1475 21.7861,15.4404 C21.7861,15.5674 21.7487,15.6683 21.6738,15.7432 C21.6022,15.8148 21.516,15.8506 21.415,15.8506 C21.3141,15.8506 21.2246,15.8197 21.1465,15.7578 C21.0684,15.696 21.0146,15.6097 20.9854,15.499 C20.79,15.5511 20.6322,15.6357 20.5117,15.7529 C20.3945,15.8669 20.3359,15.9694 20.3359,16.0605 C20.5964,16.1549 20.8112,16.3177 20.9805,16.5488 C21.1497,16.7767 21.2344,17.0143 21.2344,17.2617 C21.2344,17.6882 21.0635,18.0544 20.7217,18.3604 C20.3799,18.6663 19.9941,18.8193 19.5645,18.8193 C19.2812,18.8193 19.0485,18.7835 18.8662,18.7119 C18.6742,18.8714 18.5781,18.9805 18.5781,19.0391 C18.5781,19.1302 18.6579,19.1807 18.8174,19.1904 L19.7842,19.2295 C20.113,19.2425 20.3701,19.2962 20.5557,19.3906 C20.7412,19.4883 20.834,19.625 20.834,19.8008 C20.834,19.9766 20.7835,20.1312 20.6826,20.2646 C20.5817,20.3981 20.4434,20.5023 20.2676,20.5771 C19.9323,20.7204 19.5091,20.792 18.998,20.792 C18.7441,20.792 18.5098,20.7643 18.2949,20.709 C17.875,20.6016 17.665,20.4355 17.665,20.2109 C17.665,20.0319 17.7969,19.8822 18.0605,19.7617 C18.0996,19.7422 18.1338,19.7275 18.1631,19.7178 Z M19.3887,16.5635 C19.2487,16.7035 19.1478,16.8662 19.0859,17.0518 C19.0273,17.234 18.998,17.3984 18.998,17.5449 C18.998,17.6882 19.0062,17.8102 19.0225,17.9111 C19.0387,18.0088 19.0664,18.1081 19.1055,18.209 C19.1901,18.4238 19.3398,18.5312 19.5547,18.5312 C19.7695,18.5312 19.9437,18.4564 20.0771,18.3066 C20.3115,18.0495 20.4287,17.68 20.4287,17.1982 C20.4287,17.0127 20.3799,16.8255 20.2822,16.6367 C20.1846,16.4447 20.0462,16.3486 19.8672,16.3486 C19.6882,16.3486 19.5286,16.4202 19.3887,16.5635 Z M19.0762,20.5088 C19.8021,20.5088 20.165,20.3818 20.165,20.1279 C20.165,19.9098 19.6051,19.8008 18.4854,19.8008 C18.404,19.8008 18.334,19.8464 18.2754,19.9375 C18.2168,20.0286 18.1875,20.1133 18.1875,20.1914 C18.1875,20.3151 18.264,20.3981 18.417,20.4404 C18.57,20.486 18.7897,20.5088 19.0762,20.5088 Z M21.625,17.8379 C21.625,17.5938 21.6836,17.3594 21.8008,17.1348 C21.9212,16.9069 22.0758,16.7148 22.2646,16.5586 C22.6813,16.2201 23.1061,16.0508 23.5391,16.0508 C23.972,16.0508 24.3268,16.1663 24.6035,16.3975 C24.8802,16.6286 25.0186,16.9183 25.0186,17.2666 C25.0186,17.6117 24.9225,17.9225 24.7305,18.1992 C24.5417,18.4759 24.291,18.6924 23.9785,18.8486 C23.666,19.0016 23.3242,19.0781 22.9531,19.0781 C22.5853,19.0781 22.2712,18.9626 22.0107,18.7314 C21.7536,18.4971 21.625,18.1992 21.625,17.8379 Z M23.2217,18.7754 C23.3714,18.7754 23.5114,18.7266 23.6416,18.6289 C23.7751,18.5312 23.876,18.4043 23.9443,18.248 C24.0778,17.9486 24.1445,17.6393 24.1445,17.3203 C24.1445,17.0013 24.0859,16.7604 23.9688,16.5977 C23.8516,16.4316 23.6855,16.3486 23.4707,16.3486 C23.2559,16.3486 23.0426,16.4886 22.8311,16.7686 C22.6227,17.0485 22.5186,17.4049 22.5186,17.8379 C22.5186,18.4629 22.7529,18.7754 23.2217,18.7754 Z"
        id="Shape" fill="#FFFFFF"></path>
    </g>
  </g>
</svg>