<?xml version="1.0" encoding="UTF-8"?>
<svg viewBox="0 0 24 25" version="1.1" xmlns="http://www.w3.org/2000/svg" xmlns:xlink="http://www.w3.org/1999/xlink">
    <title>Trumpet</title>
    <g id="Page-1" stroke="none" stroke-width="1" fill="none" fill-rule="evenodd">
        <g id="Trumpet" fill="#FFB600" fill-rule="nonzero">
            <path
                d="M13.9103996,3.23073061 C11.8679996,5.37313061 9.4726996,7.14873061 6.8289996,8.48003061 C5.8016996,9.00113061 4.7233996,9.45653061 3.6007996,9.84523061 C2.3155996,10.2878306 1.2474996,11.2040306 0.614399601,12.4069306 C-0.018700399,13.6098306 -0.169100399,15.0089306 0.193799601,16.3189306 C0.556599601,17.6289306 1.4054996,18.7511306 2.5672996,19.4568306 C3.7290996,20.1626306 5.1162996,20.3986306 6.4460996,20.1168306 C7.3268996,21.4471306 8.3540996,22.6744306 9.5085996,23.7756306 C10.3456996,24.5734306 11.6380996,24.4507306 12.3520996,23.6243306 L13.2271996,22.6149306 C13.9594996,21.7681306 13.8357996,20.5381306 13.0859996,19.8090306 C12.7353996,19.4675306 12.4004996,19.1103306 12.0823996,18.7383306 C14.5091996,18.4036306 16.9319996,18.4206306 19.2875996,18.7574306 C19.3299996,15.9560306 18.8810996,13.1688306 17.9611996,10.5223306 C17.0171996,7.79663061 15.6311996,5.34833061 13.9103996,3.23073061 Z M15.2523996,1.70933061 C17.2676996,4.12733061 18.8265996,6.89153061 19.8531996,9.86713061 C20.8866996,12.8407306 21.3712996,15.9774306 21.2834996,19.1242306 L21.2792996,19.2345306 C21.2749996,19.3659306 21.2965996,19.4969306 21.3429996,19.6200306 C21.3892996,19.7430306 21.4593996,19.8558306 21.5492996,19.9517306 C21.7308996,20.1456306 21.9819996,20.2593306 22.2473996,20.2680306 C22.5128996,20.2766306 22.7708996,20.1795306 22.9646996,19.9979306 C23.0606996,19.9080306 23.1379996,19.8001306 23.1922996,19.6803306 C23.2464996,19.5605306 23.2766996,19.4312306 23.2808996,19.2998306 C23.3666996,16.6661306 23.0789996,14.0335306 22.4262996,11.4805306 C22.7611996,11.1258306 22.9924996,10.6861306 23.0949996,10.2091306 C23.1974996,9.73223061 23.1671996,9.23633061 23.0075996,8.77533061 C22.8479996,8.31443061 22.5649996,7.90603061 22.1894996,7.59463061 C21.8139996,7.28323061 21.3602996,7.08073061 20.8777996,7.00913061 C19.8116996,4.59933061 18.4096996,2.35263061 16.7133996,0.336030606 C16.5400996,0.141030606 16.2975996,0.0214306063 16.0373996,0.00263060627 C15.7772996,-0.0162693937 15.5199996,0.0672306063 15.3204996,0.235130606 C15.1208996,0.403130606 14.9947996,0.642330606 14.9688996,0.901930606 C14.9430996,1.16153061 15.0195996,1.42093061 15.1820996,1.62493061 L15.2523996,1.70933061 Z"
                id="Shape"></path>
        </g>
    </g>
</svg>