<svg viewBox="0 0 18 18" fill="none" xmlns="http://www.w3.org/2000/svg">
    <g clip-path="url(#clip0_2603_5739)">
        <path
            d="M6.48302 17.0308L6.05429 17.3146C5.65109 17.5815 5.10789 17.471 4.84098 17.0678L3.12212 14.4711C2.85521 14.0679 2.96571 13.5247 3.36892 13.2578L3.79765 12.974C4.20086 12.7071 4.74405 12.8176 5.01096 13.2208L6.72982 15.8175C6.99669 16.2207 6.88623 16.7639 6.48302 17.0308Z"
            fill="#F2A74E" />
        <path
            d="M12.4416 5.81673C10.8807 3.45866 8.72134 1.6833 7.87717 2.24211C7.77504 2.30972 7.69707 2.40865 7.64124 2.53405C7.63713 2.54073 7.63312 2.54751 7.62943 2.55483C7.05139 3.7057 1.81986 9.21852 0.602957 10.395C0.463798 10.5293 0.367826 10.702 0.327297 10.8911C0.216871 11.408 0.110418 12.488 0.792449 13.5183C1.47937 14.556 2.54949 14.8752 3.07782 14.9719C3.26558 15.0065 3.45936 14.9854 3.63525 14.9112C5.18044 14.2576 12.2885 11.6081 13.5685 11.526C13.6072 11.5235 13.6443 11.5185 13.6802 11.5117C13.7802 11.4988 13.8704 11.467 13.9491 11.4149C13.991 11.387 14.0291 11.3538 14.0625 11.3163C14.1342 11.245 14.1894 11.1588 14.224 11.0638C14.2142 11.0804 14.2031 11.0961 14.1907 11.1107C14.5836 10.191 13.8075 7.88012 12.4416 5.81673Z"
            fill="#FFB636" />
        <path
            d="M11.9966 6.11091C13.3593 8.16952 14.1056 10.4733 13.4378 10.9154C12.77 11.3575 10.9408 9.77046 9.57812 7.71185C8.21543 5.65324 7.4691 3.34949 8.13692 2.9074C8.80475 2.46531 10.6339 4.05226 11.9966 6.11091Z"
            fill="#CC883E" />
        <path
            d="M2.34477 11.561C2.25777 11.5611 2.17164 11.5437 2.09152 11.5098C2.01141 11.4759 1.93894 11.4262 1.87846 11.3637C1.62881 11.1062 1.63518 10.695 1.8927 10.4454L3.40913 8.97526C3.66665 8.72562 4.07776 8.73198 4.32737 8.9895C4.57702 9.24698 4.57065 9.6581 4.31313 9.90775L2.7967 11.3779C2.67569 11.4955 2.51353 11.5612 2.34477 11.561Z"
            fill="#FFD469" />
        <path
            d="M13.8273 4.60239L16.4295 2.02501C16.54 1.91557 16.7227 1.93357 16.8097 2.06242L17.41 2.95113C17.4927 3.07355 17.4508 3.24065 17.3201 3.30955L14.1176 4.99818C14.065 5.0258 14.0042 5.03363 13.9463 5.02025C13.8884 5.00686 13.8373 4.97315 13.8021 4.92523C13.767 4.87732 13.7502 4.81839 13.7548 4.75914C13.7594 4.6999 13.7851 4.64428 13.8273 4.60239ZM14.2576 6.81575C14.2674 6.86342 14.2944 6.90581 14.3335 6.93479C14.3726 6.96376 14.421 6.97729 14.4694 6.97276L17.3378 6.70501C17.3654 6.70244 17.3921 6.69407 17.4163 6.68045C17.4405 6.66684 17.4615 6.64828 17.478 6.62599C17.4946 6.60371 17.5062 6.57819 17.5122 6.5511C17.5182 6.52402 17.5184 6.49597 17.5128 6.4688L17.3417 5.63278C17.3169 5.51156 17.188 5.44276 17.0735 5.48963L14.3763 6.59343C14.3337 6.61085 14.2985 6.6426 14.2768 6.68319C14.2552 6.72379 14.2484 6.77068 14.2576 6.81575ZM12.116 3.77203C12.1566 3.79884 12.2057 3.80971 12.2538 3.80256C12.3019 3.79541 12.3457 3.77074 12.3768 3.73329L14.2157 1.51574C14.2334 1.49439 14.2464 1.46954 14.2538 1.44283C14.2613 1.41611 14.2631 1.38812 14.259 1.36069C14.2549 1.33325 14.2451 1.30698 14.2302 1.28359C14.2153 1.2602 14.1956 1.24021 14.1725 1.22493L13.4603 0.754782C13.357 0.686614 13.2172 0.729118 13.1694 0.843235L12.0427 3.53093C12.0249 3.57336 12.0225 3.62067 12.0359 3.6647C12.0492 3.70872 12.0776 3.74669 12.116 3.77203Z"
            fill="#59CAFC" />
    </g>
    <defs>
        <clipPath id="clip0_2603_5739">
            <rect width="18" height="18" fill="white" />
        </clipPath>
    </defs>
</svg>