<svg viewBox="0 0 32 32" fill="none" xmlns="http://www.w3.org/2000/svg">
<path d="M29.334 16.6526C29.334 8.93163 23.062 2.66663 15.334 2.66663C7.60598 2.66663 1.33398 8.93163 1.33398 16.6526C1.33398 20.9051 3.26598 24.7376 6.28998 27.3101C6.31798 27.3381 6.34598 27.3381 6.34598 27.3661C6.59798 27.5621 6.84998 27.7581 7.12998 27.9541C7.26998 28.0381 7.38198 28.1484 7.52198 28.2604C9.8356 29.829 12.5667 30.6673 15.362 30.6666C18.1572 30.6673 20.8884 29.829 23.202 28.2604C23.342 28.1764 23.454 28.0661 23.594 27.9804C23.846 27.7861 24.126 27.5901 24.378 27.3941C24.406 27.3661 24.434 27.3661 24.434 27.3381C27.402 24.7359 29.334 20.9051 29.334 16.6526ZM15.334 28.9044C12.702 28.9044 10.294 28.0644 8.30598 26.6661C8.33398 26.4421 8.38998 26.2199 8.44598 25.9959C8.61283 25.3888 8.85752 24.8059 9.17398 24.2616C9.48198 23.7296 9.84598 23.2536 10.294 22.8336C10.714 22.4136 11.218 22.0234 11.722 21.7154C12.254 21.4074 12.814 21.1834 13.43 21.0154C14.0508 20.848 14.691 20.7639 15.334 20.7651C17.2426 20.7516 19.0811 21.4837 20.458 22.8056C21.102 23.4496 21.606 24.2056 21.97 25.0719C22.166 25.5759 22.306 26.1079 22.39 26.6661C20.3235 28.1189 17.86 28.9004 15.334 28.9044ZM11.05 15.9544C10.8033 15.3895 10.6792 14.7787 10.686 14.1624C10.686 13.5481 10.798 12.9321 11.05 12.3721C11.302 11.8121 11.638 11.3099 12.058 10.8899C12.478 10.4699 12.982 10.1356 13.542 9.88363C14.102 9.63163 14.718 9.51963 15.334 9.51963C15.978 9.51963 16.566 9.63163 17.126 9.88363C17.686 10.1356 18.19 10.4716 18.61 10.8899C19.03 11.3099 19.366 11.8139 19.618 12.3721C19.87 12.9321 19.982 13.5481 19.982 14.1624C19.982 14.8064 19.87 15.3944 19.618 15.9526C19.3748 16.5043 19.0332 17.0072 18.61 17.4366C18.1804 17.8592 17.6776 18.2002 17.126 18.4429C15.9689 18.9184 14.671 18.9184 13.514 18.4429C12.9624 18.2002 12.4596 17.8592 12.03 17.4366C11.6062 17.0135 11.2727 16.5103 11.05 15.9544ZM24.042 25.2399C24.042 25.1839 24.014 25.1559 24.014 25.0999C23.7386 24.2239 23.3327 23.3944 22.81 22.6394C22.2868 21.8788 21.6438 21.208 20.906 20.6531C20.3425 20.2292 19.7318 19.8722 19.086 19.5891C19.3798 19.3953 19.652 19.1706 19.898 18.9189C20.3154 18.5068 20.682 18.0461 20.99 17.5469C21.6101 16.528 21.9304 15.355 21.914 14.1624C21.9226 13.2795 21.7512 12.4042 21.41 11.5899C21.0731 10.8052 20.5883 10.0928 19.982 9.49163C19.3766 8.89668 18.664 8.42166 17.882 8.09163C17.0663 7.75106 16.1898 7.58018 15.306 7.58938C14.422 7.58073 13.5455 7.75222 12.73 8.09338C11.9412 8.4227 11.2269 8.9078 10.63 9.51963C10.0351 10.1244 9.56002 10.8364 9.22998 11.6179C8.88882 12.4322 8.71732 13.3075 8.72598 14.1904C8.72598 14.8064 8.80998 15.3944 8.97798 15.9526C9.14598 16.5406 9.36998 17.0726 9.67798 17.5749C9.95798 18.0789 10.35 18.5269 10.77 18.9469C11.022 19.1989 11.302 19.4211 11.61 19.6171C10.9622 19.9077 10.3512 20.2743 9.78998 20.7091C9.06198 21.2691 8.41798 21.9394 7.88598 22.6674C7.35794 23.4192 6.95162 24.2496 6.68198 25.1279C6.65398 25.1839 6.65398 25.2399 6.65398 25.2679C4.44198 23.0296 3.06998 20.0091 3.06998 16.6526C3.06998 9.91163 8.58598 4.40088 15.334 4.40088C22.082 4.40088 27.598 9.91163 27.598 16.6526C27.5943 19.8726 26.3158 22.96 24.042 25.2399Z" fill="#002E51"/>
</svg>
