<?xml version="1.0" encoding="utf-8"?>
<!-- Generator: Adobe Illustrator 24.0.0, SVG Export Plug-In . SVG Version: 6.00 Build 0)  -->
<svg version="1.1" id="Calque_1" xmlns="http://www.w3.org/2000/svg" xmlns:xlink="http://www.w3.org/1999/xlink" x="0px"
	y="0px" viewBox="385 132 310 482" style="enable-background:new 385 140 310 490;" xml:space="preserve">
	<g>
		<path d="M383.41,390.12c0-67.64,0.07-135.28-0.05-202.91c-0.03-16.01,5.13-29.6,17.1-40.32c9.15-8.2,19.99-12.8,32.3-12.82
		c71.45-0.11,142.9-0.2,214.35,0.03c26.33,0.09,48.09,21.95,49.12,48.36c0.08,2.12,0.11,4.24,0.11,6.36
		c0,135.52,0.01,271.05-0.02,406.57c0,2.6,0.09,5.33-0.6,7.79c-2.63,9.39-13.5,13.07-21.68,7.27c-11.7-8.29-23.32-16.69-34.78-25.31
		c-3.17-2.38-5.26-2.7-8.61-0.14c-10.8,8.25-21.91,16.08-32.91,24.06c-7.94,5.76-12.69,5.79-20.69,0
		c-11.22-8.11-22.48-16.16-33.52-24.5c-2.87-2.17-4.68-1.9-7.38,0.12c-11.18,8.36-22.53,16.51-33.84,24.69
		c-7.4,5.35-12.33,5.38-19.77,0.01c-11.23-8.09-22.48-16.15-33.54-24.48c-2.95-2.22-4.86-2.5-7.99-0.13
		c-11.53,8.73-23.26,17.2-35.08,25.54c-8.32,5.87-18.98,2.45-21.82-6.9c-0.71-2.32-0.67-4.93-0.67-7.4
		c-0.04-51.17-0.03-102.33-0.03-153.5C383.41,425.06,383.41,407.59,383.41,390.12z M411.51,571.3c1.57-0.99,2.5-1.52,3.36-2.14
		c6.46-4.68,12.92-9.37,19.37-14.07c8.24-6,13.16-6,21.33-0.05c11.28,8.23,22.65,16.35,33.85,24.69c2.35,1.75,3.86,1.59,6.13-0.1
		c11.31-8.41,22.75-16.63,34.15-24.91c7.57-5.5,12.89-5.48,20.43,0.02c11.38,8.3,22.84,16.51,34.15,24.92
		c2.29,1.7,3.81,1.8,6.14,0.07c11.61-8.62,23.35-17.08,35.07-25.55c6.57-4.75,12-4.78,18.58-0.15c4.28,3.02,8.47,6.16,12.71,9.23
		c3.57,2.58,7.16,5.13,11.46,8.21c0-2.25,0-3.59,0-4.92c0-100.59-0.02-201.17,0.07-301.76c0-3.64-0.73-4.86-4.67-4.85
		c-82.55,0.13-165.1,0.12-247.65,0.02c-3.62,0-4.57,0.96-4.56,4.57c0.1,100.71,0.08,201.42,0.08,302.13
		C411.51,567.98,411.51,569.31,411.51,571.3z M539.89,231.93c41.39,0,82.79-0.04,124.18,0.07c3.23,0.01,4.29-0.79,4.25-4.15
		c-0.18-13.85-0.01-27.7-0.1-41.55c-0.09-15.03-9.34-24.2-24.38-24.2c-69.32-0.02-138.64-0.02-207.97,0
		c-15.04,0-24.26,9.18-24.35,24.22c-0.07,13.72,0.11,27.45-0.1,41.17c-0.06,3.69,1.13,4.52,4.65,4.51
		C457.35,231.89,498.62,231.93,539.89,231.93z" />
		<path d="M428.1,402.05c0.04-61.73,49.97-111.82,111.46-111.8c62.24,0.02,112.32,50.21,112.07,112.34
		c-0.25,61.61-50.33,111.37-112.02,111.3C478.1,513.82,428.07,463.64,428.1,402.05z M456.23,401.56
		c-0.58,45.77,36.7,83.64,82.98,84.28c45.72,0.63,83.83-36.87,84.32-82.96c0.49-45.81-36.48-84-81.88-84.56
		C494.49,317.73,456.83,354.43,456.23,401.56z" />
		<path d="M526.69,410.55c9.38-9.48,18.38-18.61,27.42-27.72c5.97-6.02,11.95-12.03,17.98-17.98c6.36-6.27,14.96-6.57,20.66-0.8
		c5.74,5.81,5.47,14.35-0.83,20.68c-18.12,18.19-36.27,36.34-54.45,54.47c-6.63,6.6-14.54,6.71-21.22,0.33
		c-9.37-8.96-18.7-17.96-27.99-27c-6.63-6.45-7.14-15-1.37-20.89c5.68-5.8,14.33-5.49,20.97,0.83
		C513.98,398.3,520.05,404.18,526.69,410.55z" />
	</g>
</svg>