<svg xmlns="http://www.w3.org/2000/svg" viewBox="0 0 68 68" fill="none">
<g filter="url(#filter0_d_1079_10595)">
<circle cx="34" cy="33" r="24" fill="black"/>
</g>
<g clip-path="url(#clip0_1079_10595)">
<path d="M29.9314 39.2653C30.6835 40.2237 31.3681 41.2332 31.9801 42.2867C32.4489 43.1989 32.825 44.1559 33.1027 45.1433C33.3361 45.8033 33.5481 46 34.0027 46C34.4994 46 34.7241 45.6653 34.8981 45.1467C35.1702 44.1801 35.5357 43.2424 35.9894 42.3467C36.8812 40.8303 37.8969 39.3903 39.0261 38.0413C40.1647 36.6963 41.1718 35.2452 42.0334 33.708C42.7214 32.2753 43.0758 30.7053 43.0701 29.116C43.0794 27.641 42.7286 26.186 42.0481 24.8773" stroke="white" stroke-width="1.5" stroke-linecap="round" stroke-linejoin="round"/>
<path d="M25.8232 33.3853C26.7946 35.6046 28.6679 37.5553 29.9352 39.2666L36.6679 31.292C36.3381 31.6783 35.929 31.9891 35.4684 32.2032C35.0078 32.4172 34.5065 32.5296 33.9986 32.5326C33.5434 32.5348 33.0923 32.4467 32.6713 32.2737C32.2503 32.1006 31.8677 31.8459 31.5456 31.5242C31.2235 31.2026 30.9683 30.8203 30.7947 30.3996C30.621 29.9788 30.5324 29.5278 30.5339 29.0726C30.5454 28.261 30.8255 27.4761 31.3306 26.8406M36.7426 20.41C37.8784 20.767 38.9322 21.3456 39.8432 22.1122C40.7541 22.8789 41.5042 23.8185 42.0499 24.8766L36.6699 31.288C37.1721 30.6477 37.4516 29.8609 37.4659 29.0473C37.4574 28.1333 37.0899 27.2594 36.4427 26.614C35.7955 25.9685 34.9206 25.6034 34.0066 25.5973C33.4988 25.6042 32.9983 25.7181 32.5375 25.9315C32.0768 26.145 31.6662 26.4531 31.3326 26.836M27.0566 23.2433C27.9012 22.2267 28.9597 21.4089 30.1567 20.8483C31.3536 20.2877 32.6595 19.998 33.9812 20C34.9155 19.9974 35.8447 20.1365 36.7372 20.4126L31.3279 26.8393" stroke="white" stroke-width="1.5" stroke-linecap="round" stroke-linejoin="round"/>
<path d="M25.8233 33.3853C25.2204 32.0379 24.9157 30.5761 24.9299 29.1C24.9198 26.957 25.6738 24.8806 27.0566 23.2433L31.3306 26.84L25.8233 33.3853Z" stroke="white" stroke-width="1.5" stroke-linecap="round" stroke-linejoin="round"/>
</g>
<defs>
<filter id="filter0_d_1079_10595" x="0" y="0" filterUnits="userSpaceOnUse" color-interpolation-filters="sRGB">
<feFlood flood-opacity="0" result="BackgroundImageFix"/>
<feColorMatrix in="SourceAlpha" type="matrix" values="0 0 0 0 0 0 0 0 0 0 0 0 0 0 0 0 0 0 127 0" result="hardAlpha"/>
<feOffset dy="1"/>
<feGaussianBlur stdDeviation="5"/>
<feComposite in2="hardAlpha" operator="out"/>
<feColorMatrix type="matrix" values="0 0 0 0 0.433333 0 0 0 0 0.433333 0 0 0 0 0.433333 0 0 0 0.25 0"/>
<feBlend mode="normal" in2="BackgroundImageFix" result="effect1_dropShadow_1079_10595"/>
<feBlend mode="normal" in="SourceGraphic" in2="effect1_dropShadow_1079_10595" result="shape"/>
</filter>
<clipPath id="clip0_1079_10595">
<rect width="32" height="32" fill="white" transform="translate(18 17)"/>
</clipPath>
</defs>
</svg>