<svg xmlns="http://www.w3.org/2000/svg" viewBox="0 0 68 68" fill="none">
<g filter="url(#filter0_d_233_650)">
<circle cx="34" cy="33" r="24" fill="black"/>
</g>
<path d="M34.0001 38.3333C35.4146 38.3333 36.7711 37.7714 37.7713 36.7712C38.7715 35.771 39.3334 34.4144 39.3334 33C39.3334 31.5855 38.7715 30.2289 37.7713 29.2287C36.7711 28.2285 35.4146 27.6666 34.0001 27.6666C32.5856 27.6666 31.229 28.2285 30.2288 29.2287C29.2287 30.2289 28.6667 31.5855 28.6667 33C28.6667 34.4144 29.2287 35.771 30.2288 36.7712C31.229 37.7714 32.5856 38.3333 34.0001 38.3333Z" stroke="white" stroke-width="1.5" stroke-linecap="round" stroke-linejoin="round"/>
<path d="M22 38.3333V27.6667C22 25.8986 22.7024 24.2029 23.9526 22.9526C25.2029 21.7024 26.8986 21 28.6667 21H39.3333C41.1014 21 42.7971 21.7024 44.0474 22.9526C45.2976 24.2029 46 25.8986 46 27.6667V38.3333C46 40.1014 45.2976 41.7971 44.0474 43.0474C42.7971 44.2976 41.1014 45 39.3333 45H28.6667C26.8986 45 25.2029 44.2976 23.9526 43.0474C22.7024 41.7971 22 40.1014 22 38.3333Z" stroke="white" stroke-width="1.5"/>
<path d="M41.3333 25.68L41.3466 25.6653" stroke="white" stroke-width="1.5" stroke-linecap="round" stroke-linejoin="round"/>
<defs>
<filter id="filter0_d_233_650" x="0" y="0" filterUnits="userSpaceOnUse" color-interpolation-filters="sRGB">
<feFlood flood-opacity="0" result="BackgroundImageFix"/>
<feColorMatrix in="SourceAlpha" type="matrix" values="0 0 0 0 0 0 0 0 0 0 0 0 0 0 0 0 0 0 127 0" result="hardAlpha"/>
<feOffset dy="1"/>
<feGaussianBlur stdDeviation="5"/>
<feComposite in2="hardAlpha" operator="out"/>
<feColorMatrix type="matrix" values="0 0 0 0 0.433333 0 0 0 0 0.433333 0 0 0 0 0.433333 0 0 0 0.25 0"/>
<feBlend mode="normal" in2="BackgroundImageFix" result="effect1_dropShadow_233_650"/>
<feBlend mode="normal" in="SourceGraphic" in2="effect1_dropShadow_233_650" result="shape"/>
</filter>
</defs>
</svg>