<svg xmlns="http://www.w3.org/2000/svg"  viewBox="0 0 68 68" fill="none">
<g filter="url(#filter0_d_233_744)">
<circle cx="34" cy="33" r="24" fill="black"/>
</g>
<path d="M28.2265 28.0632H23.5232C23.3673 28.0632 23.2177 28.1264 23.1075 28.2389C22.9972 28.3514 22.9353 28.5039 22.9353 28.663V43.0585C22.9353 43.2175 22.9972 43.3701 23.1075 43.4826C23.2177 43.5951 23.3673 43.6583 23.5232 43.6583H28.2265C28.3824 43.6583 28.532 43.5951 28.6422 43.4826C28.7525 43.3701 28.8144 43.2175 28.8144 43.0585V28.663C28.8144 28.5039 28.7525 28.3514 28.6422 28.2389C28.532 28.1264 28.3824 28.0632 28.2265 28.0632ZM27.6386 42.4586H24.1111V29.2628H27.6386V42.4586ZM40.5727 28.0632C39.297 28.0632 38.0565 28.4927 37.0453 29.2856V28.663C37.0453 28.5039 36.9833 28.3514 36.8731 28.2389C36.7628 28.1264 36.6133 28.0632 36.4573 28.0632H31.754C31.5981 28.0632 31.4486 28.1264 31.3383 28.2389C31.228 28.3514 31.1661 28.5039 31.1661 28.663V43.0585C31.1661 43.2175 31.228 43.3701 31.3383 43.4826C31.4486 43.5951 31.5981 43.6583 31.754 43.6583H36.4573C36.6133 43.6583 36.7628 43.5951 36.8731 43.4826C36.9833 43.3701 37.0453 43.2175 37.0453 43.0585V36.4605C37.0453 35.9833 37.2311 35.5256 37.5618 35.1881C37.8926 34.8507 38.3412 34.6611 38.809 34.6611C39.2768 34.6611 39.7254 34.8507 40.0562 35.1881C40.3869 35.5256 40.5727 35.9833 40.5727 36.4605V43.0585C40.5727 43.2175 40.6347 43.3701 40.7449 43.4826C40.8552 43.5951 41.0047 43.6583 41.1607 43.6583H45.864C46.0199 43.6583 46.1695 43.5951 46.2797 43.4826C46.39 43.3701 46.4519 43.2175 46.4519 43.0585V34.0613C46.45 32.4711 45.83 30.9466 44.7279 29.8221C43.6257 28.6977 42.1314 28.0651 40.5727 28.0632ZM45.2761 42.4586H41.7486V36.4605C41.7486 35.6651 41.4389 34.9023 40.8876 34.3399C40.3363 33.7775 39.5886 33.4615 38.809 33.4615C38.0294 33.4615 37.2817 33.7775 36.7304 34.3399C36.1791 34.9023 35.8694 35.6651 35.8694 36.4605V42.4586H32.3419V29.2628H35.8694V30.706C35.8694 30.8302 35.9072 30.9514 35.9776 31.0527C36.0479 31.1541 36.1474 31.2307 36.2623 31.2719C36.3772 31.3131 36.5017 31.317 36.6188 31.2828C36.7359 31.2487 36.8397 31.1783 36.9159 31.0814C37.5197 30.3006 38.3473 29.7314 39.2834 29.4533C40.2194 29.1752 41.2171 29.2021 42.1374 29.5301C43.0578 29.8582 43.8548 30.4711 44.4175 31.2833C44.9801 32.0956 45.2802 33.0667 45.2761 34.0613V42.4586ZM26.3076 19.6682C26.1694 19.6583 26.0308 19.6575 25.8925 19.6658C25.4525 19.6353 25.011 19.6973 24.5954 19.8479C24.1798 19.9985 23.7989 20.2346 23.4763 20.5415C23.1538 20.8484 22.8965 21.2196 22.7203 21.6321C22.5441 22.0446 22.4528 22.4896 22.452 22.9396C22.4484 23.3849 22.5344 23.8262 22.7048 24.2361C22.8752 24.6461 23.1264 25.0159 23.4427 25.3228C23.759 25.6296 24.1337 25.8669 24.5436 26.0199C24.9534 26.1729 25.3898 26.2383 25.8255 26.2122H25.8584C26.2796 26.2423 26.7024 26.1874 27.1028 26.0508C27.5032 25.9142 27.8733 25.6984 28.1919 25.4159C28.5106 25.1333 28.7716 24.7895 28.96 24.404C29.1484 24.0186 29.2606 23.599 29.2901 23.1693C29.3196 22.7397 29.2658 22.3083 29.1319 21.8998C28.998 21.4913 28.7865 21.1137 28.5095 20.7886C28.2326 20.4635 27.8956 20.1972 27.5178 20.005C27.14 19.8128 26.7287 19.6983 26.3076 19.6682ZM26.2664 25.0162C26.1306 25.0288 25.994 25.0275 25.8584 25.0126H25.8255C25.5425 25.0343 25.2582 24.9955 24.9907 24.8988C24.7232 24.8021 24.4784 24.6496 24.2719 24.4509C24.0655 24.2523 23.9019 24.0119 23.7916 23.7451C23.6814 23.4783 23.6268 23.191 23.6315 22.9015C23.6362 22.6121 23.7 22.3267 23.8188 22.0638C23.9376 21.8009 24.1089 21.5661 24.3217 21.3745C24.5344 21.1829 24.784 21.0387 25.0545 20.9511C25.325 20.8634 25.6104 20.8343 25.8925 20.8655C26.432 20.8149 26.9691 20.985 27.3856 21.3384C27.8022 21.6919 28.0641 22.1997 28.1136 22.7501C28.1632 23.3005 27.9965 23.8485 27.65 24.2734C27.3036 24.6984 26.8059 24.9656 26.2664 25.0162Z" fill="white"/>
<defs>
<filter id="filter0_d_233_744" x="0" y="0"  filterUnits="userSpaceOnUse" color-interpolation-filters="sRGB">
<feFlood flood-opacity="0" result="BackgroundImageFix"/>
<feColorMatrix in="SourceAlpha" type="matrix" values="0 0 0 0 0 0 0 0 0 0 0 0 0 0 0 0 0 0 127 0" result="hardAlpha"/>
<feOffset dy="1"/>
<feGaussianBlur stdDeviation="5"/>
<feComposite in2="hardAlpha" operator="out"/>
<feColorMatrix type="matrix" values="0 0 0 0 0.433333 0 0 0 0 0.433333 0 0 0 0 0.433333 0 0 0 0.25 0"/>
<feBlend mode="normal" in2="BackgroundImageFix" result="effect1_dropShadow_233_744"/>
<feBlend mode="normal" in="SourceGraphic" in2="effect1_dropShadow_233_744" result="shape"/>
</filter>
</defs>
</svg>