<svg xmlns="http://www.w3.org/2000/svg" viewBox="0 0 68 68" fill="none">
<g filter="url(#filter0_d_1448_8307)">
<circle cx="34" cy="33" r="24" fill="black"/>
</g>
<path d="M44.7724 38.2661C48.6543 30.2936 42.8588 21.0039 34.0009 21C24.949 20.9877 19.1608 30.653 23.4351 38.6423L23.1229 39.8054L22.0482 43.8252C22.006 43.9834 22.006 44.1501 22.0485 44.3083C22.0909 44.4666 22.1742 44.6108 22.2899 44.7267C22.4056 44.8425 22.5498 44.9258 22.7078 44.9682C22.8659 45.0106 23.0323 45.0106 23.1903 44.9682L27.2037 43.8921L28.3598 43.5824C31.7495 45.398 36.031 45.4265 39.4859 43.7386M32.0639 29.1154L35.7807 32.8365L41.23 29.1154L37.5137 34.5717L35.939 36.8858L32.2227 33.1647L26.7729 36.8858L30.4897 31.4294L32.0639 29.1154ZM44.7724 38.2661C43.659 40.6211 41.801 42.5439 39.4859 43.7386Z" stroke="white" stroke-width="1.5" stroke-linecap="round" stroke-linejoin="round"/>
<path d="M35.4245 33.3334L31.8887 30.3334L28.3999 35.5138L32.2816 33.3334L35.8173 36.3334L39.353 31.0834L35.4245 33.3334Z" fill="white"/>
<path d="M28.353 35.5834L28.3999 35.5138M28.3999 35.5138L31.8887 30.3334L35.4245 33.3334L39.353 31.0834L35.8173 36.3334L32.2816 33.3334L28.3999 35.5138Z" stroke="white"/>
<defs>
<filter id="filter0_d_1448_8307" x="0" y="0" filterUnits="userSpaceOnUse" color-interpolation-filters="sRGB">
<feFlood flood-opacity="0" result="BackgroundImageFix"/>
<feColorMatrix in="SourceAlpha" type="matrix" values="0 0 0 0 0 0 0 0 0 0 0 0 0 0 0 0 0 0 127 0" result="hardAlpha"/>
<feOffset dy="1"/>
<feGaussianBlur stdDeviation="5"/>
<feComposite in2="hardAlpha" operator="out"/>
<feColorMatrix type="matrix" values="0 0 0 0 0.433333 0 0 0 0 0.433333 0 0 0 0 0.433333 0 0 0 0.25 0"/>
<feBlend mode="normal" in2="BackgroundImageFix" result="effect1_dropShadow_1448_8307"/>
<feBlend mode="normal" in="SourceGraphic" in2="effect1_dropShadow_1448_8307" result="shape"/>
</filter>
</defs>
</svg>