<svg xmlns="http://www.w3.org/2000/svg" viewBox="0 0 68 68" fill="none">
<g filter="url(#filter0_d_233_691)">
<circle cx="34" cy="33" r="24" fill="black"/>
</g>
<path d="M45 31C45 33.8212 44.0125 36.4 42.2213 38.2637C40.5488 40 38.2813 41 36 41C33.765 41 32.2725 40.2675 31.3213 39.5L29.9738 45.2287C29.9222 45.4482 29.7979 45.6439 29.6211 45.7839C29.4444 45.9239 29.2255 46 29 46C28.9226 45.9999 28.8454 45.9911 28.77 45.9737C28.6417 45.9443 28.5204 45.8897 28.4132 45.8133C28.306 45.7369 28.2149 45.64 28.1452 45.5283C28.0755 45.4165 28.0286 45.2921 28.0071 45.1622C27.9856 45.0323 27.99 44.8994 28.02 44.7712L32.02 27.7712C32.0807 27.513 32.2414 27.2894 32.467 27.1497C32.6925 27.0099 32.9642 26.9655 33.2225 27.0262C33.4808 27.0869 33.7043 27.2477 33.844 27.4732C33.9838 27.6987 34.0282 27.9705 33.9675 28.2287L31.855 37.2037C32.25 37.75 33.4125 39 36 39C39.4413 39 43 36.0075 43 31C42.9995 29.6198 42.6815 28.2582 42.0707 27.0206C41.4599 25.7829 40.5727 24.7023 39.4776 23.8623C38.3825 23.0223 37.1088 22.4454 35.7552 22.1763C34.4015 21.9071 33.004 21.9529 31.6709 22.3101C30.3377 22.6672 29.1046 23.3262 28.0668 24.2361C27.029 25.146 26.2144 26.2823 25.6859 27.5573C25.1574 28.8323 24.9293 30.2118 25.0191 31.589C25.1089 32.9662 25.5142 34.3044 26.2038 35.5C26.3281 35.729 26.3582 35.9976 26.2874 36.2485C26.2167 36.4994 26.0508 36.7127 25.8251 36.8431C25.5994 36.9735 25.3317 37.0105 25.0791 36.9465C24.8264 36.8824 24.6088 36.7222 24.4725 36.5C23.6293 35.0387 23.1335 33.4031 23.0234 31.7196C22.9134 30.0362 23.192 28.3499 23.8378 26.7914C24.4836 25.2328 25.4793 23.8436 26.7477 22.7314C28.0162 21.6191 29.5236 20.8135 31.1531 20.3768C32.7827 19.9402 34.4909 19.8843 36.1456 20.2134C37.8003 20.5424 39.3571 21.2477 40.6956 22.2746C42.0341 23.3015 43.1185 24.6225 43.8649 26.1355C44.6113 27.6485 44.9997 29.3129 45 31Z" fill="white"/>
<defs>
<filter id="filter0_d_233_691" x="0" y="0" filterUnits="userSpaceOnUse" color-interpolation-filters="sRGB">
<feFlood flood-opacity="0" result="BackgroundImageFix"/>
<feColorMatrix in="SourceAlpha" type="matrix" values="0 0 0 0 0 0 0 0 0 0 0 0 0 0 0 0 0 0 127 0" result="hardAlpha"/>
<feOffset dy="1"/>
<feGaussianBlur stdDeviation="5"/>
<feComposite in2="hardAlpha" operator="out"/>
<feColorMatrix type="matrix" values="0 0 0 0 0.433333 0 0 0 0 0.433333 0 0 0 0 0.433333 0 0 0 0.25 0"/>
<feBlend mode="normal" in2="BackgroundImageFix" result="effect1_dropShadow_233_691"/>
<feBlend mode="normal" in="SourceGraphic" in2="effect1_dropShadow_233_691" result="shape"/>
</filter>
</defs>
</svg>