<svg xmlns="http://www.w3.org/2000/svg"  viewBox="0 0 68 68" fill="none">
<g filter="url(#filter0_d_233_755)">
<circle cx="34" cy="33" r="24" fill="black"/>
</g>
<path d="M39.4375 29.1388L39.1448 29.5441C40.9234 30.8285 43.0287 31.5842 45.2181 31.724L45.75 31.758V31.225V27.7137V27.2605L45.299 27.2162C43.6269 27.0516 42.0637 26.3123 40.8757 25.1243C39.6877 23.9363 38.9484 22.3731 38.7838 20.701L38.7395 20.25H38.2862H34.75H34.25V20.75V36.4999C34.25 36.4999 34.25 36.5 34.25 36.5C34.2499 37.1528 34.0794 37.7942 33.7553 38.3608C33.4313 38.9275 32.9649 39.3998 32.4024 39.7309C31.8398 40.0621 31.2006 40.2407 30.5479 40.249C29.8951 40.2573 29.2515 40.0951 28.6807 39.7784C28.1099 39.4617 27.6316 39.0015 27.2932 38.4433C26.9548 37.8851 26.768 37.2482 26.7512 36.5956C26.7345 35.9431 26.8883 35.2974 27.1976 34.7226C27.5069 34.1477 27.9609 33.6635 28.5147 33.3179L28.75 33.1711V32.8938V28.9525V28.2744L28.1022 28.4748C24.6997 29.5277 22.25 32.8177 22.25 36.5C22.25 38.688 23.1192 40.7865 24.6664 42.3336C26.2135 43.8808 28.312 44.75 30.5 44.75C32.688 44.75 34.7865 43.8808 36.3336 42.3336C37.8808 40.7865 38.75 38.688 38.75 36.5L38.75 29.75L38.75 29.7486C38.7499 29.7026 38.7625 29.6574 38.7864 29.618C38.8103 29.5787 38.8446 29.5467 38.8856 29.5256C38.9265 29.5046 38.9725 29.4952 39.0184 29.4986C39.0643 29.502 39.1084 29.518 39.1458 29.5449L39.4375 29.1388ZM39.4375 29.1388C39.3253 29.0582 39.193 29.0101 39.0552 29C38.9175 28.9898 38.7796 29.0179 38.6567 29.0811C38.5339 29.1443 38.4309 29.2402 38.3592 29.3583C38.2874 29.4763 38.2496 29.6119 38.25 29.75L34.75 21.25V20.75H35.25H38.2862C38.4621 22.5372 39.2523 24.208 40.5222 25.4779C41.792 26.7477 43.4628 27.5379 45.25 27.7137V30.7239C45.2606 30.7246 45.2712 30.7253 45.2819 30.726L45.25 31.225H44.75V31.1817C42.835 30.9725 41.0039 30.2699 39.4375 29.1388ZM45.9994 26.75H46C46.0663 26.75 46.1299 26.7763 46.1768 26.8232C46.2237 26.8701 46.25 26.9337 46.25 27V32C46.25 32.0663 46.2237 32.1299 46.1768 32.1768C46.1299 32.2237 46.0663 32.25 46 32.25L45.9988 32.25C43.8958 32.2549 41.8274 31.7142 39.9957 30.6808L39.25 30.2601V31.1163V36.5C39.25 38.8206 38.3281 41.0462 36.6872 42.6872C35.0462 44.3281 32.8206 45.25 30.5 45.25C28.1794 45.25 25.9538 44.3281 24.3128 42.6872C22.6719 41.0462 21.75 38.8206 21.75 36.5C21.75 32.243 24.8562 28.4853 28.9599 27.754C28.9952 27.7483 29.0314 27.7502 29.0659 27.7596L29.1847 27.3251L29.0659 27.7596C29.101 27.7692 29.1335 27.7863 29.1613 27.8097C29.189 27.8332 29.2114 27.8624 29.2267 27.8953C29.242 27.9283 29.25 27.9642 29.25 28.0005V33.3361C29.25 33.3362 29.25 33.3362 29.25 33.3363C29.25 33.3835 29.2365 33.4298 29.2113 33.4697C29.186 33.5097 29.1498 33.5417 29.1071 33.5619L29.1069 33.562C28.5815 33.8113 28.1327 34.1969 27.8071 34.6788C27.4815 35.1606 27.2912 35.721 27.256 36.3014C27.2207 36.8819 27.3419 37.4612 27.6068 37.9788C27.8717 38.4965 28.2707 38.9336 28.7621 39.2446C29.2534 39.5556 29.8193 39.729 30.4005 39.7468C30.9818 39.7646 31.5571 39.6261 32.0666 39.3458C32.5761 39.0655 33.0011 38.6536 33.2972 38.1531C33.5933 37.6526 33.7496 37.0818 33.75 36.5003V36.5V20C33.75 19.9337 33.7763 19.8701 33.8232 19.8232C33.8701 19.7763 33.9337 19.75 34 19.75H39C39.0663 19.75 39.1299 19.7763 39.1768 19.8232C39.2237 19.8701 39.25 19.9337 39.25 20V20.0006C39.2521 21.79 39.9639 23.5055 41.2292 24.7708C42.4945 26.0361 44.21 26.7479 45.9994 26.75Z" fill="white" stroke="white"/>
<defs>
<filter id="filter0_d_233_755" x="0" y="0"  filterUnits="userSpaceOnUse" color-interpolation-filters="sRGB">
<feFlood flood-opacity="0" result="BackgroundImageFix"/>
<feColorMatrix in="SourceAlpha" type="matrix" values="0 0 0 0 0 0 0 0 0 0 0 0 0 0 0 0 0 0 127 0" result="hardAlpha"/>
<feOffset dy="1"/>
<feGaussianBlur stdDeviation="5"/>
<feComposite in2="hardAlpha" operator="out"/>
<feColorMatrix type="matrix" values="0 0 0 0 0.433333 0 0 0 0 0.433333 0 0 0 0 0.433333 0 0 0 0.25 0"/>
<feBlend mode="normal" in2="BackgroundImageFix" result="effect1_dropShadow_233_755"/>
<feBlend mode="normal" in="SourceGraphic" in2="effect1_dropShadow_233_755" result="shape"/>
</filter>
</defs>
</svg>