<svg xmlns="http://www.w3.org/2000/svg" viewBox="0 0 68 68" fill="none">
<g filter="url(#filter0_d_1057_5995)">
<circle cx="34" cy="33" r="24" fill="black"/>
</g>
<g clip-path="url(#clip0_1057_5995)">
<path d="M22.4507 39.6667C23.6207 41.6943 25.3042 43.378 27.3316 44.5483C29.3591 45.7186 31.659 46.3343 34 46.3334C36.341 46.3343 38.641 45.7186 40.6684 44.5483C42.6959 43.378 44.3793 41.6943 45.5494 39.6667M22.4507 26.3334C23.6207 24.3057 25.3042 22.622 27.3316 21.4517C29.3591 20.2814 31.659 19.6657 34 19.6667C36.341 19.6657 38.641 20.2814 40.6684 21.4517C42.6959 22.622 44.3793 24.3057 45.5494 26.3334" stroke="white" stroke-width="1.5" stroke-linecap="round" stroke-linejoin="round"/>
<path d="M35.3333 46.2667C35.3333 46.2667 37.2106 43.796 38.3933 39.6667M35.3333 19.7333C35.3333 19.7333 37.2106 22.2027 38.3933 26.3333M32.6666 46.2667C32.6666 46.2667 30.7893 43.7973 29.6066 39.6667M32.6666 19.7333C32.6666 19.7333 30.7893 22.2027 29.6066 26.3333M29.9999 30.3333L31.9999 37L33.9999 30.3333L35.9999 37L37.9999 30.3333M19.3333 30.3333L21.3333 37L23.3333 30.3333L25.3333 37L27.3333 30.3333M40.6666 30.3333L42.6666 37L44.6666 30.3333L46.6666 37L48.6666 30.3333" stroke="white" stroke-width="1.5" stroke-linecap="round" stroke-linejoin="round"/>
</g>
<defs>
<filter id="filter0_d_1057_5995" x="0" y="0" filterUnits="userSpaceOnUse" color-interpolation-filters="sRGB">
<feFlood flood-opacity="0" result="BackgroundImageFix"/>
<feColorMatrix in="SourceAlpha" type="matrix" values="0 0 0 0 0 0 0 0 0 0 0 0 0 0 0 0 0 0 127 0" result="hardAlpha"/>
<feOffset dy="1"/>
<feGaussianBlur stdDeviation="5"/>
<feComposite in2="hardAlpha" operator="out"/>
<feColorMatrix type="matrix" values="0 0 0 0 0.433333 0 0 0 0 0.433333 0 0 0 0 0.433333 0 0 0 0.25 0"/>
<feBlend mode="normal" in2="BackgroundImageFix" result="effect1_dropShadow_1057_5995"/>
<feBlend mode="normal" in="SourceGraphic" in2="effect1_dropShadow_1057_5995" result="shape"/>
</filter>
<clipPath id="clip0_1057_5995">
<rect width="32" height="32" fill="white" transform="translate(18 17)"/>
</clipPath>
</defs>
</svg>