<svg xmlns="http://www.w3.org/2000/svg" viewBox="0 0 68 68" fill="none">
<g filter="url(#filter0_d_1062_6019)">
<circle cx="34" cy="33" r="24" fill="black"/>
</g>
<g clip-path="url(#clip0_1062_6019)">
<g clip-path="url(#clip1_1062_6019)">
<path d="M34 18.6667C26.0767 18.6754 19.66 25.1054 19.6687 33.0287C19.6713 35.433 20.2781 37.7981 21.4334 39.9067L20.3334 46.6667L27.0934 45.5667C34.0334 49.3734 42.7467 46.834 46.5534 39.8934C50.36 32.9527 47.8214 24.2407 40.8807 20.4334C38.7719 19.2765 36.4053 18.669 34 18.6667Z" stroke="white" stroke-width="1.5" stroke-linecap="round" stroke-linejoin="round"/>
<path d="M35.0293 33C35.8691 33 36.6746 33.3337 37.2685 33.9275C37.8623 34.5214 38.196 35.3268 38.196 36.1667C38.196 37.0065 37.8623 37.812 37.2685 38.4059C36.6746 38.9997 35.8691 39.3334 35.0293 39.3334H29.804V26.6667H35.0293C35.8691 26.6667 36.6746 27.0003 37.2685 27.5942C37.8623 28.188 38.196 28.9935 38.196 29.8334C38.196 30.6732 37.8623 31.4787 37.2685 32.0725C36.6746 32.6664 35.8691 33 35.0293 33ZM35.0293 33H29.804" stroke="white" stroke-width="1.5" stroke-linecap="round" stroke-linejoin="round"/>
</g>
</g>
<defs>
<filter id="filter0_d_1062_6019" x="0" y="0" filterUnits="userSpaceOnUse" color-interpolation-filters="sRGB">
<feFlood flood-opacity="0" result="BackgroundImageFix"/>
<feColorMatrix in="SourceAlpha" type="matrix" values="0 0 0 0 0 0 0 0 0 0 0 0 0 0 0 0 0 0 127 0" result="hardAlpha"/>
<feOffset dy="1"/>
<feGaussianBlur stdDeviation="5"/>
<feComposite in2="hardAlpha" operator="out"/>
<feColorMatrix type="matrix" values="0 0 0 0 0.433333 0 0 0 0 0.433333 0 0 0 0 0.433333 0 0 0 0.25 0"/>
<feBlend mode="normal" in2="BackgroundImageFix" result="effect1_dropShadow_1062_6019"/>
<feBlend mode="normal" in="SourceGraphic" in2="effect1_dropShadow_1062_6019" result="shape"/>
</filter>
<clipPath id="clip0_1062_6019">
<rect width="32" height="32" fill="white" transform="translate(18 17)"/>
</clipPath>
<clipPath id="clip1_1062_6019">
<rect width="32" height="32" fill="white" transform="translate(18 17)"/>
</clipPath>
</defs>
</svg>