<svg xmlns="http://www.w3.org/2000/svg"  viewBox="0 0 68 68" fill="none">
<g filter="url(#filter0_d_233_719)">
<circle cx="34" cy="33" r="24" fill="black"/>
</g>

<path d="M36.6667 33L32 35.6666V30.3333L36.6667 33Z" fill="white" stroke="white" stroke-width="1.5" stroke-linecap="round" stroke-linejoin="round"/>

<path d="M20.6667 33.944V32.056C20.6667 28.196 20.6667 26.2653 21.8734 25.024C23.0814 23.7813 24.9827 23.728 28.7841 23.62C30.5841 23.5693 32.4241 23.5333 34.0001 23.5333C35.5747 23.5333 37.4147 23.5693 39.2161 23.62C43.0174 23.728 44.9187 23.7813 46.1254 25.024C47.3334 26.2653 47.3334 28.1973 47.3334 32.056V33.9427C47.3334 37.804 47.3334 39.7333 46.1267 40.976C44.9187 42.2173 43.0187 42.272 39.2161 42.3787C37.4161 42.4307 35.5761 42.4667 34.0001 42.4667C32.2611 42.4614 30.5223 42.4321 28.7841 42.3787C24.9827 42.272 23.0814 42.2187 21.8734 40.976C20.6667 39.7333 20.6667 37.8027 20.6667 33.944Z" stroke="white" stroke-width="1.5"/>
<defs>
<filter id="filter0_d_233_719" x="0" y="0" width="68" height="68" filterUnits="userSpaceOnUse" color-interpolation-filters="sRGB">
<feFlood flood-opacity="0" result="BackgroundImageFix"/>
<feColorMatrix in="SourceAlpha" type="matrix" values="0 0 0 0 0 0 0 0 0 0 0 0 0 0 0 0 0 0 127 0" result="hardAlpha"/>
<feOffset dy="1"/>
<feGaussianBlur stdDeviation="5"/>
<feComposite in2="hardAlpha" operator="out"/>
<feColorMatrix type="matrix" values="0 0 0 0 0.433333 0 0 0 0 0.433333 0 0 0 0 0.433333 0 0 0 0.25 0"/>
<feBlend mode="normal" in2="BackgroundImageFix" result="effect1_dropShadow_233_719"/>
<feBlend mode="normal" in="SourceGraphic" in2="effect1_dropShadow_233_719" result="shape"/>
</filter>
</defs>
</svg>